<svg width="234" height="265" viewBox="0 0 234 265" fill="none" xmlns="http://www.w3.org/2000/svg">
<path fill-rule="evenodd" clip-rule="evenodd" d="M14.0128 87.4647C52.0883 65.3842 77.2844 50.7725 113.903 51.1142C131.29 51.2764 143.973 59.1707 153.569 70.1815C154.31 71.0318 154.164 72.3253 153.275 73.02C114.319 103.47 80.4631 138.965 38.6595 202.009C38.2961 202.557 37.6815 202.9 37.0241 202.914C29.9175 203.061 22.5326 203.315 14.8362 203.681C13.9896 203.721 13.258 204.293 13.0286 205.109C7.58431 224.477 10.0467 242.569 19.0955 260.954C19.5475 261.872 20.6259 262.284 21.5841 261.924C68.9627 244.147 127.273 244.137 173.404 244.128C196.126 244.124 215.894 244.12 229.943 241.994C231.893 241.699 232.08 239.164 230.234 238.471C187.529 222.427 152.903 210.887 107.996 205.747C106.656 205.593 105.832 204.191 106.379 202.959C122.708 166.192 146.814 131.217 168.583 101.02C169.483 99.7721 171.392 99.9702 172 101.384C173.852 105.697 175.513 109.932 177.04 113.92C177.445 114.978 178.655 115.49 179.686 115.02C208.574 101.843 219.211 74.7165 216.381 60.8973C216.33 60.6443 216.225 60.4122 216.076 60.2007C213.186 56.0783 210.216 52.2406 207.184 48.6686C206.615 47.9984 206.541 47.0371 207.004 46.2895C209.522 42.2195 211.726 38.38 213.554 34.7895C214.449 33.0323 212.504 31.3764 210.857 32.4615C207.409 34.7348 204.021 36.9791 200.69 39.204C199.895 39.7348 198.823 39.6151 198.14 38.9464C150.074 -8.11819 91.5532 2.87189 87.6795 3.66253C87.5373 3.69154 87.4052 3.70494 87.2602 3.70573C54.5449 3.8839 11.7511 44.4455 2.04414 90.6864C1.69767 92.3369 3.45978 93.5698 4.92072 92.7273C8.03623 90.9306 11.0632 89.1753 14.0128 87.4647Z" fill="white"/>
<path d="M113.903 51.1142L113.885 53.1141L113.885 53.1141L113.903 51.1142ZM14.0128 87.4647L15.0161 89.1949L15.0161 89.1949L14.0128 87.4647ZM173.404 244.128L173.403 242.128L173.403 242.128L173.404 244.128ZM2.04414 90.6864L0.0868004 90.2756L2.04414 90.6864ZM4.92072 92.7273L3.92157 90.9948L4.92072 92.7273ZM87.6795 3.66253L87.2795 1.70293L87.6795 3.66253ZM87.2602 3.70573L87.2493 1.70576L87.2602 3.70573ZM200.69 39.204L201.8 40.8672L200.69 39.204ZM198.14 38.9464L196.74 40.3754L198.14 38.9464ZM207.184 48.6686L208.709 47.3743L207.184 48.6686ZM207.004 46.2895L208.704 47.3418L207.004 46.2895ZM216.381 60.8973L214.422 61.2985L216.381 60.8973ZM216.076 60.2007L217.714 59.0527L216.076 60.2007ZM177.04 113.92L178.908 113.204L177.04 113.92ZM179.686 115.02L178.856 113.2L179.686 115.02ZM168.583 101.02L170.206 102.19L168.583 101.02ZM172 101.384L170.162 102.173L172 101.384ZM107.996 205.747L107.769 207.734L107.996 205.747ZM106.379 202.959L104.552 202.147L106.379 202.959ZM19.0955 260.954L17.3011 261.837L19.0955 260.954ZM21.5841 261.924L20.8815 260.052L21.5841 261.924ZM14.8362 203.681L14.7413 201.683L14.8362 203.681ZM13.0286 205.109L11.1032 204.568L13.0286 205.109ZM38.6595 202.009L40.3264 203.114L38.6595 202.009ZM37.0241 202.914L36.9828 200.914L37.0241 202.914ZM229.943 241.994L229.644 240.017L229.943 241.994ZM230.234 238.471L229.531 240.343L230.234 238.471ZM210.857 32.4615L211.958 34.1314L210.857 32.4615ZM153.569 70.1815L152.061 71.4955L153.569 70.1815ZM153.275 73.02L154.507 74.5957L153.275 73.02ZM113.922 49.1143C76.6729 48.7668 51.0158 63.6942 13.0095 85.7346L15.0161 89.1949C53.1608 67.0742 77.896 52.7783 113.885 53.1141L113.922 49.1143ZM155.077 68.8674C145.194 57.5274 132.002 49.283 113.922 49.1143L113.885 53.1141C130.578 53.2699 142.752 60.8141 152.061 71.4955L155.077 68.8674ZM40.3264 203.114C82.0299 140.221 115.745 104.894 154.507 74.5957L152.043 71.4443C112.893 102.046 78.8962 137.709 36.9927 200.903L40.3264 203.114ZM14.9312 205.679C22.6109 205.314 29.9779 205.06 37.0653 204.913L36.9828 200.914C29.8571 201.061 22.4543 201.317 14.7413 201.683L14.9312 205.679ZM20.8899 260.071C12.0287 242.067 9.6605 224.481 14.954 205.651L11.1032 204.568C5.50812 224.472 8.06459 243.07 17.3011 261.837L20.8899 260.071ZM173.403 242.128C127.358 242.137 68.6622 242.124 20.8815 260.052L22.2867 263.797C69.2631 246.171 127.189 246.137 173.404 246.128L173.403 242.128ZM229.644 240.017C215.779 242.115 196.192 242.124 173.403 242.128L173.404 246.128C196.061 246.124 216.009 246.126 230.243 243.972L229.644 240.017ZM107.769 207.734C152.426 212.845 186.867 224.315 229.531 240.343L230.938 236.598C188.19 220.539 153.379 208.928 108.223 203.76L107.769 207.734ZM166.961 99.8507C145.189 130.052 120.972 165.174 104.552 202.147L108.207 203.771C124.444 167.211 148.44 132.382 170.206 102.19L166.961 99.8507ZM178.908 113.204C177.377 109.208 175.705 104.944 173.837 100.595L170.162 102.173C171.999 106.45 173.648 110.656 175.172 114.635L178.908 113.204ZM214.422 61.2985C215.708 67.5777 213.958 77.3091 208.2 87.1928C202.48 97.011 192.904 106.793 178.856 113.2L180.516 116.84C195.356 110.071 205.543 99.7004 211.656 89.2063C217.731 78.7776 219.885 68.0361 218.341 60.4961L214.422 61.2985ZM205.66 49.963C208.651 53.4873 211.584 57.2761 214.439 61.3488L217.714 59.0527C214.789 54.8806 211.782 50.994 208.709 47.3743L205.66 49.963ZM211.772 33.8821C209.976 37.4097 207.801 41.1994 205.303 45.2371L208.704 47.3418C211.243 43.2397 213.477 39.3504 215.337 35.6969L211.772 33.8821ZM201.8 40.8672C205.128 38.6451 208.512 36.4029 211.958 34.1314L209.757 30.7917C206.305 33.0666 202.915 35.3132 199.579 37.5408L201.8 40.8672ZM88.0794 5.62213C91.7846 4.86588 149.417 -5.96266 196.74 40.3754L199.539 37.5173C150.732 -10.2737 91.3217 0.877891 87.2795 1.70293L88.0794 5.62213ZM4.00148 91.0973C8.76283 68.4157 21.6656 47.0518 37.4356 31.3394C53.2545 15.5783 71.6567 5.79073 87.2711 5.7057L87.2493 1.70576C70.1484 1.79889 50.7961 12.3812 34.6124 28.5058C18.38 44.6789 5.03237 66.7163 0.0868004 90.2756L4.00148 91.0973ZM13.0095 85.7346C10.0595 87.4453 7.03466 89.1995 3.92157 90.9948L5.91987 94.4599C9.0378 92.6618 12.0668 90.9052 15.0161 89.1949L13.0095 85.7346ZM0.0868004 90.2756C-0.631895 93.6992 3.03346 96.1244 5.91987 94.4599L3.92157 90.9948C3.90707 91.0031 3.90309 91.0029 3.90913 91.0015C3.91469 91.0002 3.92269 90.9994 3.93133 90.9999C3.94699 91.0009 3.9546 91.0054 3.95788 91.0077C3.96135 91.0102 3.97602 91.0218 3.9883 91.0513C3.99464 91.0665 3.99831 91.082 3.99955 91.0952C4.00083 91.1089 3.99867 91.1107 4.00148 91.0973L0.0868004 90.2756ZM87.2795 1.70293C87.274 1.70405 87.2707 1.70459 87.2692 1.70483C87.2677 1.70505 87.267 1.70513 87.2667 1.70516C87.2664 1.7052 87.2653 1.7053 87.263 1.70542C87.2607 1.70554 87.2563 1.70572 87.2493 1.70576L87.2711 5.7057C87.5439 5.70421 87.8064 5.67786 88.0794 5.62213L87.2795 1.70293ZM199.579 37.5408C199.583 37.538 199.588 37.5364 199.59 37.5359C199.591 37.5356 199.588 37.5365 199.58 37.5358C199.563 37.5339 199.548 37.5261 199.539 37.5173L196.74 40.3754C198.073 41.6799 200.188 41.9438 201.8 40.8672L199.579 37.5408ZM208.709 47.3743C208.706 47.3708 208.704 47.3681 208.704 47.3657C208.702 47.363 208.702 47.3596 208.701 47.3559C208.701 47.3522 208.701 47.3494 208.702 47.3476C208.702 47.3462 208.703 47.3446 208.704 47.3418L205.303 45.2371C204.382 46.726 204.532 48.6347 205.66 49.963L208.709 47.3743ZM218.341 60.4961C218.229 59.9501 218.004 59.4669 217.714 59.0527L214.439 61.3488C214.443 61.3547 214.44 61.3524 214.436 61.3419C214.431 61.331 214.426 61.3159 214.422 61.2985L218.341 60.4961ZM175.172 114.635C175.98 116.743 178.408 117.801 180.516 116.84L178.856 113.2C178.857 113.2 178.86 113.198 178.866 113.197C178.872 113.196 178.877 113.195 178.882 113.195C178.893 113.195 178.898 113.197 178.9 113.198C178.901 113.199 178.903 113.199 178.905 113.201C178.908 113.204 178.909 113.207 178.908 113.204L175.172 114.635ZM170.206 102.19C170.212 102.181 170.214 102.18 170.211 102.183C170.208 102.186 170.203 102.188 170.199 102.19C170.19 102.194 170.188 102.193 170.191 102.193C170.195 102.193 170.189 102.194 170.178 102.185C170.171 102.181 170.166 102.176 170.162 102.171C170.157 102.165 170.158 102.165 170.162 102.173L173.837 100.595C172.607 97.7308 168.756 97.3605 166.961 99.8507L170.206 102.19ZM108.223 203.76C108.22 203.759 108.217 203.759 108.216 203.758C108.215 203.758 108.214 203.758 108.214 203.758C108.214 203.758 108.214 203.758 108.214 203.758C108.215 203.758 108.215 203.758 108.215 203.758C108.215 203.758 108.214 203.758 108.212 203.756C108.211 203.755 108.209 203.753 108.208 203.751C108.206 203.746 108.207 203.746 108.208 203.755C108.208 203.759 108.208 203.764 108.207 203.769C108.206 203.773 108.205 203.774 108.207 203.771L104.552 202.147C103.441 204.646 105.124 207.431 107.769 207.734L108.223 203.76ZM17.3011 261.837C18.2194 263.703 20.3917 264.508 22.2867 263.797L20.8815 260.052C20.8784 260.053 20.8766 260.053 20.8758 260.053C20.8749 260.053 20.8744 260.053 20.874 260.053C20.8729 260.053 20.8722 260.053 20.8723 260.053C20.8725 260.053 20.8755 260.054 20.8801 260.059C20.8824 260.061 20.8847 260.063 20.8867 260.066C20.8888 260.069 20.8898 260.07 20.8899 260.071L17.3011 261.837ZM14.7413 201.683C13.0501 201.763 11.5698 202.908 11.1032 204.568L14.954 205.651C14.9526 205.656 14.95 205.661 14.9466 205.666C14.9434 205.671 14.9406 205.674 14.9389 205.675C14.9371 205.676 14.9356 205.677 14.9342 205.678C14.9324 205.678 14.931 205.679 14.9312 205.679L14.7413 201.683ZM36.9927 200.903C36.9922 200.904 36.991 200.906 36.9889 200.908C36.9868 200.91 36.9842 200.912 36.9816 200.913C36.9758 200.916 36.9756 200.914 36.9828 200.914L37.0653 204.913C38.3896 204.886 39.6067 204.199 40.3264 203.114L36.9927 200.903ZM230.243 243.972C232.181 243.678 233.377 242.178 233.506 240.539C233.633 238.925 232.724 237.27 230.938 236.598L229.531 240.343C229.567 240.356 229.576 240.366 229.571 240.361C229.565 240.357 229.555 240.346 229.544 240.329C229.523 240.296 229.515 240.26 229.518 240.224C229.521 240.188 229.538 240.13 229.589 240.073C229.615 240.045 229.641 240.027 229.66 240.016C229.68 240.006 229.679 240.011 229.644 240.017L230.243 243.972ZM215.337 35.6969C216.225 33.951 215.703 32.1073 214.461 31.0419C213.234 29.9887 211.358 29.7361 209.757 30.7917L211.958 34.1314C211.989 34.1109 212.001 34.1096 211.993 34.1118C211.985 34.1138 211.969 34.1163 211.949 34.1147C211.91 34.1118 211.879 34.0968 211.856 34.0773C211.833 34.0575 211.8 34.0165 211.786 33.9494C211.779 33.9158 211.779 33.8865 211.782 33.8666C211.784 33.8467 211.788 33.8514 211.772 33.8821L215.337 35.6969ZM152.061 71.4955C152.06 71.4945 152.058 71.4911 152.055 71.4854C152.052 71.48 152.049 71.474 152.047 71.4683C152.044 71.4568 152.044 71.4495 152.044 71.447C152.045 71.4447 152.045 71.4435 152.046 71.4426C152.047 71.4404 152.047 71.4409 152.043 71.4443L154.507 74.5957C156.265 73.2215 156.599 70.6142 155.077 68.8674L152.061 71.4955Z" fill="black"/>
</svg>
