<svg width="198" height="265" viewBox="0 0 198 265" fill="none" xmlns="http://www.w3.org/2000/svg">
<path fill-rule="evenodd" clip-rule="evenodd" d="M174.178 253.025C174.427 254.005 173.913 255.023 172.968 255.383C150.547 263.918 129.292 264.618 107.52 255.693C106.742 255.374 106.256 254.587 106.303 253.747C108.423 216.242 112.064 185.182 117.233 157.825C117.485 156.489 116.366 155.291 115.017 155.467C95.8328 157.976 77.249 161.778 60.561 165.192V165.192C59.7602 165.356 59.166 166.034 59.1136 166.85C58.7726 172.156 58.6749 176.326 58.6011 179.476C58.5238 182.774 58.4727 184.955 58.1959 186.154C56.6506 192.848 6.76478 179.764 2.13169 169.294C-2.5014 158.824 116.858 -40.7952 85.5554 50.6819C73.5691 85.7097 66.9773 112.794 63.3194 133.258C63.0259 134.901 64.7651 136.143 66.2392 135.362C84.5382 125.672 103.908 117.667 127.472 111.083C128.137 110.897 128.664 110.38 128.862 109.718C139.877 72.8515 154.58 40.7265 172.996 3.11645C173.869 1.3335 176.409 1.78516 176.513 3.76769C177.395 20.6511 174.949 44.3459 172.129 71.6683C171.219 80.4787 170.27 89.6663 169.382 99.1244C169.259 100.439 170.422 101.508 171.723 101.283C176.453 100.463 181.339 99.677 186.394 98.9228C187.265 98.7929 188.121 99.2508 188.484 100.054C196.449 117.69 197.619 135.458 193.363 154.622C193.126 155.687 192.069 156.346 191.001 156.126C183.409 154.563 175.631 153.588 167.757 153.087C166.639 153.016 165.689 153.887 165.655 155.006C164.649 188.204 166.317 222.141 174.178 253.025Z" fill="white"/>
<path d="M58.6011 179.476L56.6017 179.429L56.6017 179.429L58.6011 179.476ZM58.1959 186.154L56.2471 185.704L56.2471 185.704L58.1959 186.154ZM2.13169 169.294L0.302756 170.104L0.302757 170.104L2.13169 169.294ZM85.5554 50.6819L83.6631 50.0343L83.6631 50.0343L85.5554 50.6819ZM172.129 71.6683L174.118 71.8737L174.118 71.8737L172.129 71.6683ZM167.757 153.087L167.884 151.091L167.757 153.087ZM165.655 155.006L163.656 154.946L165.655 155.006ZM186.394 98.9228L186.689 100.901L186.394 98.9228ZM188.484 100.054L190.307 99.2305L188.484 100.054ZM127.472 111.083L126.933 109.157L127.472 111.083ZM128.862 109.718L126.945 109.146L128.862 109.718ZM63.3194 133.258L65.2882 133.61L63.3194 133.258ZM66.2392 135.362L67.1752 137.129L66.2392 135.362ZM193.363 154.622L191.41 154.189L193.363 154.622ZM191.001 156.126L191.404 154.168L191.001 156.126ZM59.1136 166.85L61.1095 166.978L59.1136 166.85ZM169.382 99.1244L167.391 98.9374L169.382 99.1244ZM171.723 101.283L172.064 103.254L171.723 101.283ZM172.968 255.383L173.679 257.252L172.968 255.383ZM174.178 253.025L176.116 252.532L174.178 253.025ZM172.996 3.11645L174.792 3.99599L172.996 3.11645ZM176.513 3.76769L174.516 3.87205L176.513 3.76769ZM107.52 255.693L108.279 253.843L107.52 255.693ZM106.303 253.747L104.306 253.634L106.303 253.747ZM106.762 257.544C129.066 266.687 150.851 265.942 173.679 257.252L172.256 253.514C150.243 261.894 129.518 262.549 108.279 253.843L106.762 257.544ZM115.268 157.454C110.079 184.914 106.43 216.063 104.306 253.634L108.3 253.86C110.416 216.421 114.049 185.449 119.198 158.196L115.268 157.454ZM60.9618 167.151C77.6587 163.735 96.1741 159.948 115.277 157.45L114.758 153.484C95.4914 156.003 76.8392 159.82 60.1601 163.232L60.9618 167.151ZM60.6006 179.523C60.6743 176.376 60.7713 172.241 61.1095 166.978L57.1177 166.721C56.774 172.071 56.6756 176.275 56.6017 179.429L60.6006 179.523ZM60.1446 186.604C60.3258 185.82 60.4131 184.822 60.4707 183.705C60.5295 182.564 60.5621 181.162 60.6006 179.523L56.6017 179.429C56.5628 181.088 56.5312 182.426 56.476 183.5C56.4194 184.598 56.3428 185.29 56.2471 185.704L60.1446 186.604ZM0.302757 170.104C1.09194 171.887 2.71154 173.489 4.61386 174.904C6.56035 176.352 9.01539 177.758 11.7567 179.087C17.2441 181.746 24.0795 184.192 30.7778 186.085C37.4706 187.977 44.1245 189.344 49.2554 189.808C51.8011 190.038 54.0974 190.058 55.8732 189.752C56.7572 189.6 57.6419 189.345 58.3872 188.901C59.1607 188.439 59.892 187.699 60.1446 186.604L56.2471 185.704C56.3066 185.447 56.467 185.388 56.3378 185.466C56.1803 185.56 55.8303 185.7 55.1932 185.81C53.927 186.029 52.0363 186.043 49.6155 185.824C44.8134 185.39 38.4165 184.087 31.8656 182.236C25.3202 180.386 18.7188 178.016 13.5013 175.487C10.8901 174.222 8.67565 172.94 7.00117 171.694C5.28253 170.416 4.32971 169.319 3.96062 168.485L0.302757 170.104ZM87.4476 51.3294C89.415 45.58 90.805 40.9332 91.6719 37.2865C92.5263 33.6926 92.9174 30.8954 92.7619 28.9275C92.6851 27.9565 92.4583 26.9222 91.8479 26.0991C91.1376 25.1415 90.0871 24.7076 88.9806 24.7646C88.0172 24.8142 87.1007 25.2247 86.3146 25.6969C85.4964 26.1884 84.6328 26.8619 83.7406 27.6609C80.2085 30.8239 75.4614 36.6596 70.0758 44.0758C64.6601 51.5336 58.5079 60.7182 52.158 70.6831C39.4583 90.613 25.9253 113.732 15.8511 132.536C10.8164 141.933 6.62846 150.284 3.83886 156.635C2.44694 159.804 1.38124 162.524 0.735318 164.65C0.413492 165.71 0.178053 166.679 0.0690343 167.514C-0.0287384 168.263 -0.0769244 169.246 0.302756 170.104L3.96062 168.485C4.05073 168.689 3.95515 168.647 4.03539 168.032C4.10439 167.503 4.27238 166.769 4.56262 165.813C5.14084 163.91 6.13386 161.357 7.50114 158.244C10.2299 152.031 14.3624 143.784 19.377 134.425C29.4014 115.714 42.8832 92.6817 55.5314 72.8327C61.8555 62.9081 67.9605 53.7962 73.3124 46.4262C78.6945 39.0147 83.2254 33.4917 86.409 30.6407C87.1957 29.9363 87.8508 29.4403 88.3744 29.1257C88.6337 28.97 88.8364 28.8735 88.9859 28.8174C89.138 28.7604 89.1994 28.7586 89.1864 28.7593C89.0512 28.7662 88.7782 28.6749 88.6351 28.4819C88.5917 28.4235 88.7216 28.5758 88.7743 29.2427C88.8777 30.5507 88.6188 32.8346 87.7804 36.3614C86.9544 39.8354 85.6085 44.3491 83.6631 50.0343L87.4476 51.3294ZM65.2882 133.61C68.9264 113.256 75.491 86.2705 87.4476 51.3294L83.6631 50.0343C71.6471 85.1488 65.0281 112.332 61.3506 132.907L65.2882 133.61ZM126.933 109.157C103.229 115.78 83.7258 123.839 65.3033 133.594L67.1752 137.129C85.3506 127.505 104.587 119.553 128.01 113.009L126.933 109.157ZM171.2 2.23691C152.774 39.8662 138.011 72.1134 126.945 109.146L130.778 110.291C141.744 73.5896 156.385 41.5867 174.792 3.99599L171.2 2.23691ZM174.118 71.8737C176.931 44.6202 179.403 20.7397 178.51 3.66332L174.516 3.87205C175.388 20.5625 172.967 44.0715 170.139 71.4629L174.118 71.8737ZM171.373 99.3114C172.261 89.864 173.208 80.6853 174.118 71.8737L170.139 71.4629C169.23 80.2721 168.28 89.4687 167.391 98.9374L171.373 99.3114ZM186.099 96.9447C181.03 97.7011 176.128 98.4899 171.381 99.3124L172.064 103.254C176.779 102.437 181.649 101.653 186.689 100.901L186.099 96.9447ZM195.315 155.056C199.653 135.524 198.471 117.308 190.307 99.2305L186.661 100.877C194.426 118.071 195.585 135.392 191.41 154.189L195.315 155.056ZM167.63 155.083C175.424 155.579 183.108 156.543 190.597 158.085L191.404 154.168C183.709 152.583 175.838 151.597 167.884 151.091L167.63 155.083ZM176.116 252.532C168.321 221.903 166.651 188.175 167.654 155.067L163.656 154.946C162.647 188.233 164.314 222.378 172.24 253.519L176.116 252.532ZM167.884 151.091C165.629 150.948 163.724 152.705 163.656 154.946L167.654 155.067C167.655 155.065 167.655 155.065 167.654 155.067C167.654 155.068 167.653 155.07 167.653 155.072C167.651 155.075 167.65 155.076 167.649 155.076C167.649 155.077 167.646 155.079 167.641 155.081C167.638 155.082 167.635 155.083 167.633 155.083C167.63 155.083 167.628 155.083 167.63 155.083L167.884 151.091ZM186.689 100.901C186.69 100.901 186.688 100.901 186.686 100.901C186.684 100.9 186.682 100.9 186.68 100.899C186.678 100.898 186.675 100.895 186.671 100.891C186.666 100.886 186.663 100.881 186.661 100.877L190.307 99.2305C189.569 97.5984 187.84 96.685 186.099 96.9447L186.689 100.901ZM128.01 113.009C129.335 112.639 130.383 111.612 130.778 110.291L126.945 109.146C126.945 109.146 126.945 109.146 126.945 109.147C126.944 109.148 126.943 109.15 126.941 109.151C126.937 109.155 126.934 109.156 126.933 109.157L128.01 113.009ZM61.3506 132.907C60.7557 136.235 64.2687 138.669 67.1752 137.129L65.3033 133.594C65.2957 133.599 65.2908 133.6 65.2887 133.601C65.2865 133.602 65.286 133.602 65.287 133.602C65.2895 133.601 65.293 133.601 65.2959 133.601C65.2982 133.602 65.2978 133.602 65.2949 133.601C65.2917 133.6 65.2874 133.597 65.283 133.594C65.2786 133.591 65.2763 133.588 65.2758 133.588C65.2755 133.588 65.2777 133.59 65.2805 133.596C65.2818 133.6 65.2831 133.603 65.2842 133.607C65.2853 133.611 65.286 133.615 65.2864 133.618C65.2867 133.621 65.2867 133.623 65.2867 133.622C65.2867 133.622 65.2869 133.618 65.2882 133.61L61.3506 132.907ZM191.41 154.189C191.41 154.189 191.41 154.188 191.411 154.187C191.411 154.186 191.412 154.184 191.413 154.183C191.414 154.179 191.416 154.175 191.418 154.172C191.423 154.167 191.425 154.165 191.424 154.166C191.423 154.167 191.421 154.168 191.418 154.168C191.417 154.168 191.415 154.169 191.413 154.169C191.412 154.169 191.409 154.168 191.404 154.168L190.597 158.085C192.697 158.518 194.833 157.225 195.315 155.056L191.41 154.189ZM60.1601 163.232C58.4808 163.576 57.2283 165 57.1177 166.721L61.1095 166.978C61.1037 167.068 61.0397 167.135 60.9619 167.151L60.1601 163.232ZM167.391 98.9374C167.143 101.572 169.473 103.703 172.064 103.254L171.381 99.3124C171.375 99.3134 171.373 99.3131 171.375 99.3132C171.376 99.3132 171.377 99.3135 171.378 99.3138C171.38 99.3144 171.377 99.3138 171.373 99.3103C171.37 99.3067 171.37 99.3051 171.371 99.3087C171.372 99.3107 171.373 99.3132 171.373 99.3154C171.373 99.3178 171.373 99.3169 171.373 99.3114L167.391 98.9374ZM119.198 158.196C119.7 155.54 117.473 153.129 114.758 153.484L115.277 157.45C115.282 157.449 115.283 157.45 115.279 157.449C115.276 157.449 115.272 157.448 115.269 157.447C115.263 157.445 115.263 157.443 115.266 157.447C115.268 157.448 115.269 157.45 115.269 157.451C115.27 157.452 115.27 157.452 115.269 157.45C115.269 157.449 115.269 157.447 115.269 157.446C115.269 157.445 115.269 157.447 115.268 157.454L119.198 158.196ZM173.679 257.252C175.596 256.522 176.611 254.474 176.116 252.532L172.24 253.519C172.24 253.521 172.241 253.523 172.241 253.523C172.241 253.524 172.241 253.524 172.241 253.524C172.24 253.525 172.24 253.526 172.24 253.527C172.24 253.527 172.241 253.525 172.244 253.521C172.246 253.52 172.249 253.518 172.251 253.516C172.254 253.515 172.256 253.514 172.256 253.514L173.679 257.252ZM174.792 3.99599C174.809 3.96191 174.819 3.95425 174.813 3.95993C174.808 3.96534 174.796 3.97504 174.778 3.98369C174.745 4.0002 174.712 4.00266 174.685 3.99766C174.657 3.99259 174.608 3.97449 174.562 3.92349C174.539 3.89791 174.524 3.87217 174.516 3.85334C174.509 3.83442 174.514 3.837 174.516 3.87205L178.51 3.66332C178.407 1.69267 177.017 0.356529 175.401 0.0623628C173.805 -0.228251 172.048 0.503895 171.2 2.23691L174.792 3.99599ZM108.279 253.843C108.284 253.845 108.29 253.848 108.294 253.852C108.298 253.855 108.299 253.857 108.299 253.857C108.3 253.858 108.3 253.858 108.3 253.858C108.3 253.858 108.3 253.859 108.3 253.859C108.3 253.86 108.3 253.86 108.3 253.86L104.306 253.634C104.212 255.308 105.178 256.894 106.762 257.544L108.279 253.843Z" fill="black"/>
</svg>
