<svg width="132" height="261" viewBox="0 0 132 261" fill="none" xmlns="http://www.w3.org/2000/svg">
<path fill-rule="evenodd" clip-rule="evenodd" d="M46.5929 249.838C46.5399 250.718 47.0711 251.546 47.9013 251.841C73.0527 260.773 97.548 260.216 123.343 251.947C124.381 251.614 124.949 250.504 124.633 249.461C107.359 192.394 115.122 124.912 121.262 71.537C122.124 64.0423 122.954 56.8257 123.679 49.9551C123.778 49.008 124.532 48.2667 125.478 48.1611C126.589 48.0372 127.41 47.9122 127.958 47.7444C130.37 47.007 128.874 38.3449 125.72 28.9143C125.637 28.6652 125.602 28.4003 125.619 28.1382C126.212 19.0629 126.373 10.9528 125.847 4.04241C125.703 2.15377 123.305 1.67904 122.367 3.32461C121.433 4.96202 120.509 6.58871 119.592 8.20557C118.835 9.54026 116.915 9.56376 116.013 8.32309C114.432 6.15005 112.872 4.63479 111.44 4.11731C102.86 1.01652 -49.1785 106.989 21.7948 77.0219C52.1205 64.2177 74.9575 57.3025 91.5772 53.4566C93.2129 53.0781 94.5261 54.7815 93.7835 56.2872C67.7203 109.133 51.9534 161.052 46.5929 249.838Z" fill="white"/>
<path d="M121.262 71.537L119.275 71.3084L121.262 71.537ZM127.958 47.7444L127.374 45.8318L127.374 45.8318L127.958 47.7444ZM111.44 4.11731L112.12 2.23638L112.12 2.23637L111.44 4.11731ZM21.7948 77.0219L21.0169 75.1794L21.0169 75.1794L21.7948 77.0219ZM93.7835 56.2872L95.5772 57.1719L93.7835 56.2872ZM119.592 8.20557L117.852 7.21924L119.592 8.20557ZM123.679 49.9551L121.69 49.7454L123.679 49.9551ZM125.478 48.1611L125.7 50.1488L125.478 48.1611ZM125.847 4.04241L123.853 4.19414L125.847 4.04241ZM122.367 3.32461L120.629 2.33424L122.367 3.32461ZM47.9013 251.841L48.5706 249.956L47.9013 251.841ZM125.72 28.9143L123.823 29.5487L125.72 28.9143ZM125.619 28.1382L127.615 28.2685L125.619 28.1382ZM122.732 250.042C97.2995 258.196 73.2575 258.724 48.5706 249.956L47.2319 253.725C72.8478 262.823 97.7965 262.237 123.954 253.851L122.732 250.042ZM119.275 71.3084C113.146 124.589 105.303 192.504 122.719 250.04L126.548 248.881C109.415 192.283 117.098 125.235 123.249 71.7655L119.275 71.3084ZM121.69 49.7454C120.966 56.6048 120.137 63.8117 119.275 71.3084L123.249 71.7655C124.111 64.2728 124.942 57.0465 125.668 50.1648L121.69 49.7454ZM125.7 50.1488C126.8 50.0261 127.794 49.8861 128.543 49.657L127.374 45.8318C127.025 45.9383 126.378 46.0483 125.256 46.1735L125.7 50.1488ZM128.543 49.657C130.382 49.0948 130.89 47.2351 131.05 46.096C131.238 44.7636 131.151 43.1045 130.908 41.3201C130.418 37.7122 129.215 33.0581 127.617 28.2799L123.823 29.5487C125.379 34.201 126.501 38.5933 126.945 41.8585C127.169 43.5106 127.201 44.7447 127.089 45.5385C126.95 46.5258 126.741 46.0253 127.374 45.8318L128.543 49.657ZM123.853 4.19414C124.368 10.9699 124.213 18.9743 123.623 28.0079L127.615 28.2685C128.21 19.1515 128.377 10.9357 127.841 3.89068L123.853 4.19414ZM121.332 9.1919C122.248 7.57654 123.172 5.9512 124.104 4.31498L120.629 2.33424C119.695 3.97284 118.77 5.60089 117.852 7.21924L121.332 9.1919ZM117.63 7.14654C116.019 4.93139 114.158 2.97289 112.12 2.23638L110.761 5.99824C111.586 6.29669 112.845 7.36872 114.395 9.49963L117.63 7.14654ZM112.12 2.23637C111.306 1.94218 110.434 2.0563 109.83 2.17839C109.142 2.3177 108.361 2.56721 107.527 2.88585C105.85 3.5259 103.731 4.53275 101.284 5.81819C96.3772 8.39572 89.9614 12.1952 82.7678 16.7218C68.372 25.7805 50.7391 37.8284 35.5953 49.0367C28.0234 54.6408 21.0577 60.0469 15.4223 64.7734C9.82619 69.4668 5.42119 73.5888 3.07418 76.6096C2.47979 77.3747 1.97594 78.121 1.61489 78.8297C1.27085 79.5051 0.961904 80.3269 0.97779 81.1926C0.996304 82.2016 1.46225 83.1429 2.38555 83.7326C3.16766 84.232 4.0925 84.3584 4.89965 84.3657C6.53974 84.3806 8.7925 83.8972 11.6085 83.0162C14.4761 82.119 18.1057 80.7505 22.5728 78.8644L21.0169 75.1794C16.6123 77.0391 13.1125 78.3544 10.4141 79.1987C7.66402 80.0591 5.91408 80.3747 4.93588 80.3659C4.43389 80.3613 4.39567 80.2702 4.53847 80.3614C4.82246 80.5427 4.97282 80.8851 4.97712 81.1192C4.97879 81.2102 4.95699 81.0814 5.1791 80.6453C5.38419 80.2427 5.72548 79.7168 6.23287 79.0637C8.29294 76.4122 12.4011 72.5279 17.9927 67.8382C23.545 63.1814 30.4415 57.8275 37.9749 52.2519C53.0417 41.1006 70.5915 29.1099 84.8981 20.1073C92.0557 15.6034 98.3712 11.8666 103.144 9.35933C105.537 8.10238 107.495 7.17971 108.953 6.62273C109.686 6.34285 110.238 6.17697 110.623 6.09897C111.094 6.00375 111.038 6.09864 110.761 5.99824L112.12 2.23637ZM22.5728 78.8644C52.804 66.1001 75.5316 59.2225 92.0281 55.4051L91.1263 51.5081C74.3834 55.3825 51.437 62.3353 21.0169 75.1794L22.5728 78.8644ZM48.5893 249.959C53.9351 161.416 69.6414 109.759 95.5772 57.1719L91.9898 55.4026C65.7993 108.506 49.9717 160.689 44.5966 249.718L48.5893 249.959ZM92.0281 55.4051C92.0356 55.4034 92.0392 55.4031 92.0393 55.4031C92.0394 55.4031 92.0373 55.4033 92.0332 55.403C92.0244 55.4024 92.0143 55.4002 92.005 55.3966C91.9963 55.3933 91.9915 55.3901 91.9901 55.389C91.9889 55.3881 91.9901 55.3889 91.9923 55.3917C91.9945 55.3945 91.9961 55.3973 91.9968 55.3992C91.9975 55.4009 91.997 55.4001 91.9966 55.3968C91.9961 55.3929 91.9962 55.3887 91.9967 55.3858C91.9973 55.3824 91.9971 55.3876 91.9898 55.4026L95.5772 57.1719C97.0387 54.2086 94.4658 50.7353 91.1263 51.5081L92.0281 55.4051ZM117.852 7.21924C117.845 7.23114 117.847 7.22569 117.853 7.22199C117.854 7.22152 117.839 7.22989 117.806 7.23075C117.731 7.23266 117.669 7.19969 117.63 7.14654L114.395 9.49963C116.063 11.7918 119.784 11.9229 121.332 9.1919L117.852 7.21924ZM125.668 50.1648C125.668 50.1631 125.668 50.164 125.667 50.1653C125.667 50.1659 125.667 50.1644 125.67 50.1616C125.673 50.1589 125.677 50.156 125.682 50.1538C125.686 50.1518 125.691 50.1498 125.7 50.1488L125.256 46.1735C123.399 46.3807 121.89 47.8422 121.69 49.7454L125.668 50.1648ZM127.841 3.89068C127.697 1.99899 126.358 0.713751 124.802 0.398106C123.264 0.0859781 121.547 0.723945 120.629 2.33424L124.104 4.31498C124.12 4.28816 124.128 4.28314 124.122 4.28854C124.116 4.29364 124.105 4.30174 124.089 4.30864C124.059 4.32174 124.031 4.32314 124.007 4.31825C123.982 4.31327 123.939 4.29663 123.897 4.25077C123.876 4.22772 123.862 4.20409 123.854 4.18571C123.847 4.16712 123.85 4.1667 123.853 4.19414L127.841 3.89068ZM48.5706 249.956C48.5744 249.957 48.5783 249.959 48.5819 249.961C48.5855 249.963 48.5882 249.965 48.5902 249.967C48.5938 249.97 48.5941 249.971 48.5929 249.969C48.5916 249.967 48.5904 249.964 48.5898 249.962C48.5892 249.96 48.5893 249.959 48.5893 249.959L44.5966 249.718C44.4915 251.459 45.5361 253.123 47.2319 253.725L48.5706 249.956ZM127.617 28.2799C127.616 28.2781 127.615 28.2755 127.615 28.2727C127.615 28.2698 127.615 28.2683 127.615 28.2685L123.623 28.0079C123.589 28.5311 123.658 29.0556 123.823 29.5487L127.617 28.2799ZM123.954 253.851C126.054 253.178 127.173 250.947 126.548 248.881L122.719 250.04C122.72 250.043 122.72 250.045 122.72 250.046C122.72 250.047 122.72 250.047 122.72 250.047C122.72 250.049 122.72 250.05 122.719 250.052C122.718 250.053 122.719 250.051 122.723 250.048C122.725 250.047 122.727 250.045 122.729 250.044C122.732 250.042 122.733 250.042 122.732 250.042L123.954 253.851Z" fill="black"/>
</svg>
