<svg width="197" height="264" viewBox="0 0 197 264" fill="none" xmlns="http://www.w3.org/2000/svg">
<path fill-rule="evenodd" clip-rule="evenodd" d="M151.724 62.2861C151.727 61.5444 151.3 60.8691 150.637 60.5375C132.019 51.2339 115.069 45.7564 93.7968 45.9555C60.3794 46.2683 46.4426 78.7139 37.5616 101.958C37.1564 103.019 35.9475 103.53 34.9169 103.054C9.33279 91.2391 -0.104325 67.0967 2.38502 54.7501C2.43595 54.4975 2.54512 54.2594 2.69277 54.0482C47.1824 -9.59027 112.978 2.63155 117.158 3.48212C117.301 3.51114 117.44 3.52581 117.586 3.52671C132.472 3.61867 149.694 13.1112 164.143 27.8828C164.455 28.2015 164.866 28.4095 165.306 28.4784C177.651 30.4099 186.799 37.0959 189.853 43.0999C189.97 43.3301 190.031 43.5818 190.044 43.8397C190.439 51.5811 190.018 58.7232 188.978 65.295C188.922 65.651 188.961 66.0155 189.091 66.3516C190.929 71.1019 192.413 75.9801 193.475 80.9329C193.829 82.5827 192.066 83.8141 190.606 82.9687C189.57 82.3688 188.545 81.7742 187.53 81.1849C186.434 80.5484 185.031 81.0785 184.596 82.2685C176.562 104.209 161.697 117.601 152.338 124.258C151.224 125.05 151.163 126.696 152.222 127.562C165.116 138.109 181.496 156.269 188.842 184.108C189.183 185.403 190.662 186.04 191.822 185.371C191.854 185.352 191.887 185.333 191.919 185.315C193.38 184.471 195.139 185.703 194.78 187.351C194.006 190.907 193.002 194.422 191.797 197.874C191.692 198.173 191.659 198.492 191.699 198.806C192.536 205.323 192.885 212.279 192.632 219.694C192.623 219.952 192.566 220.204 192.454 220.437C189.21 227.192 179.764 234.77 166.719 238.077C166.363 238.168 166.035 238.351 165.774 238.609C152.276 251.952 136.414 260.463 122.65 260.552C122.505 260.553 122.369 260.567 122.227 260.596C118.186 261.414 55.6609 272.955 13.3673 212.657C13.2191 212.445 13.1094 212.207 13.0585 211.953C10.708 200.252 19.6635 177.418 43.9179 166.205C44.9468 165.729 46.1533 166.241 46.5591 167.3C55.0084 189.337 68.2725 220.018 100.012 220.314C116.147 220.465 129.668 217.192 143.463 211.386C144.11 211.114 144.565 210.518 144.652 209.821C146.833 192.346 144.505 174.074 128.043 161.426C103.406 142.498 78.8704 139.538 41.7935 135.065C39.1222 134.742 36.3858 134.412 33.5796 134.068C31.9056 133.862 31.242 131.82 32.5203 130.719C54.2039 112.056 85.6892 103.948 109.933 106.935C110.223 106.97 110.516 106.944 110.794 106.854C120.518 103.713 129.338 99.2699 138.13 92.2679C148.373 84.1094 151.684 73.3312 151.724 62.2861Z" fill="white"/>
<path d="M93.7968 45.9555L93.8155 47.9554L93.8155 47.9554L93.7968 45.9555ZM100.012 220.314L99.9937 222.314L99.9937 222.314L100.012 220.314ZM128.043 161.426L126.824 163.012L126.824 163.012L128.043 161.426ZM41.7935 135.065L42.0331 133.079L42.0331 133.079L41.7935 135.065ZM138.13 92.2679L139.376 93.8324L139.376 93.8324L138.13 92.2679ZM33.5796 134.068L33.3359 136.053L33.5796 134.068ZM32.5203 130.719L33.825 132.235L32.5203 130.719ZM143.463 211.386L144.239 213.23L143.463 211.386ZM144.652 209.821L146.636 210.069L144.652 209.821ZM43.9179 166.205L43.0786 164.389L43.9179 166.205ZM46.5591 167.3L44.6917 168.016L46.5591 167.3ZM13.3673 212.657L11.73 213.805L13.3673 212.657ZM13.0585 211.953L15.0193 211.56L13.0585 211.953ZM122.65 260.552L122.663 262.552L122.65 260.552ZM122.227 260.596L121.83 258.636L122.227 260.596ZM166.719 238.077L166.228 236.139L166.719 238.077ZM165.774 238.609L164.368 237.187L165.774 238.609ZM192.632 219.694L190.633 219.625L192.632 219.694ZM192.454 220.437L194.257 221.303L192.454 220.437ZM191.797 197.874L189.909 197.215L191.797 197.874ZM191.699 198.806L189.715 199.061L191.699 198.806ZM194.78 187.351L196.734 187.777L194.78 187.351ZM191.822 185.371L192.822 187.103L191.822 185.371ZM152.338 124.258L151.179 122.628L152.338 124.258ZM152.222 127.562L150.955 129.11L152.222 127.562ZM187.53 81.1849L186.526 82.9144L187.53 81.1849ZM184.596 82.2685L186.474 82.9562L184.596 82.2685ZM193.475 80.9329L195.43 80.5135L193.475 80.9329ZM190.606 82.9687L191.608 81.2378L190.606 82.9687ZM188.978 65.295L187.003 64.9824L188.978 65.295ZM189.091 66.3516L190.956 65.6296L189.091 66.3516ZM189.853 43.0999L188.07 44.0068L189.853 43.0999ZM190.044 43.8397L188.047 43.9416L190.044 43.8397ZM164.143 27.8828L165.573 26.4843L164.143 27.8828ZM165.306 28.4784L165.615 26.5024L165.306 28.4784ZM117.158 3.48212L116.76 5.44195L117.158 3.48212ZM117.586 3.52671L117.574 5.52667L117.586 3.52671ZM2.69277 54.0482L1.05361 52.9022L2.69277 54.0482ZM37.5616 101.958L39.4298 102.672L37.5616 101.958ZM34.9169 103.054L35.7555 101.238L34.9169 103.054ZM110.794 106.854L111.408 108.757L110.794 106.854ZM150.637 60.5375L151.531 58.7485L150.637 60.5375ZM151.724 62.2861L153.724 62.2934L151.724 62.2861ZM93.8155 47.9554C114.674 47.7601 131.307 53.1136 149.743 62.3266L151.531 58.7485C132.732 49.3541 115.464 43.7526 93.778 43.9556L93.8155 47.9554ZM39.4298 102.672C43.8724 91.0447 49.4856 77.3891 58.0448 66.6006C66.5513 55.8785 77.8682 48.1047 93.8155 47.9554L93.778 43.9556C76.3079 44.1191 63.9477 52.7245 54.9112 64.1145C45.9275 75.4381 40.1318 89.6276 35.6933 101.245L39.4298 102.672ZM0.424475 54.3548C-0.946181 61.1529 0.989078 70.7761 6.39284 80.104C11.8339 89.4962 20.8918 98.7801 34.0784 104.87L35.7555 101.238C23.3579 95.513 14.9052 86.8183 9.854 78.0989C4.7655 69.3152 3.22688 60.6938 4.34557 55.1454L0.424475 54.3548ZM117.557 1.52228C113.195 0.634692 46.2693 -11.7748 1.05361 52.9022L4.33193 55.1941C48.0955 -7.40576 112.762 4.6284 116.76 5.44195L117.557 1.52228ZM165.573 26.4843C150.944 11.5283 133.242 1.62339 117.598 1.52675L117.574 5.52667C131.702 5.61395 148.445 14.6941 162.714 29.2813L165.573 26.4843ZM191.635 42.1931C188.209 35.4573 178.394 28.5018 165.615 26.5024L164.997 30.4543C176.908 32.318 185.388 38.7345 188.07 44.0068L191.635 42.1931ZM190.954 65.6076C192.016 58.8961 192.444 51.615 192.042 43.7377L188.047 43.9416C188.435 51.5472 188.021 58.5503 187.003 64.9824L190.954 65.6076ZM195.43 80.5135C194.345 75.4511 192.83 70.4717 190.956 65.6296L187.226 67.0736C189.029 71.7321 190.481 76.5092 191.519 81.3522L195.43 80.5135ZM186.526 82.9144C187.541 83.504 188.567 84.0991 189.604 84.6995L191.608 81.2378C190.573 80.6385 189.549 80.0443 188.535 79.4554L186.526 82.9144ZM153.497 125.887C163.054 119.09 178.254 105.403 186.474 82.9562L182.717 81.5808C174.869 103.014 160.34 116.112 151.179 122.628L153.497 125.887ZM190.775 183.598C183.292 155.237 166.603 136.741 153.488 126.014L150.955 129.11C163.628 139.476 179.7 157.302 186.908 184.618L190.775 183.598ZM190.919 183.582C190.887 183.601 190.854 183.62 190.822 183.639L192.822 187.103C192.854 187.084 192.887 187.065 192.919 187.047L190.919 183.582ZM193.685 198.533C194.916 195.009 195.942 191.416 196.734 187.777L192.826 186.926C192.07 190.398 191.089 193.835 189.909 197.215L193.685 198.533ZM194.631 219.762C194.888 212.241 194.534 205.177 193.683 198.551L189.715 199.061C190.538 205.468 190.883 212.316 190.633 219.625L194.631 219.762ZM167.211 240.016C180.636 236.613 190.68 228.75 194.257 221.303L190.651 219.571C187.739 225.635 178.893 232.928 166.228 236.139L167.211 240.016ZM122.663 262.552C137.165 262.458 153.5 253.556 167.18 240.032L164.368 237.187C151.053 250.349 135.664 258.468 122.637 258.552L122.663 262.552ZM11.73 213.805C54.7498 275.139 118.403 263.411 122.624 262.556L121.83 258.636C117.97 259.418 56.5719 270.771 15.0047 211.508L11.73 213.805ZM43.0786 164.389C30.5585 170.178 21.9537 178.983 16.7817 187.892C11.6469 196.737 9.79687 205.872 11.0977 212.347L15.0193 211.56C13.9696 206.334 15.4221 198.201 20.241 189.9C25.0227 181.664 33.0228 173.445 44.7572 168.02L43.0786 164.389ZM100.031 218.314C84.9187 218.173 74.1889 210.841 66.1157 200.713C57.9894 190.519 52.6528 177.607 48.4266 166.584L44.6917 168.016C48.9147 179.03 54.4348 192.477 62.9879 203.207C71.5939 214.003 83.3661 222.159 99.9937 222.314L100.031 218.314ZM142.687 209.543C129.101 215.261 115.85 218.462 100.031 218.314L99.9937 222.314C116.444 222.468 130.235 219.123 144.239 213.23L142.687 209.543ZM126.824 163.012C142.465 175.029 144.811 192.402 142.667 209.573L146.636 210.069C148.856 192.289 146.545 173.119 129.261 159.84L126.824 163.012ZM41.5539 137.05C78.7104 141.533 102.687 144.468 126.824 163.012L129.261 159.84C104.124 140.528 79.0305 137.543 42.0331 133.079L41.5539 137.05ZM33.3359 136.053C36.1445 136.397 38.8829 136.728 41.5539 137.05L42.0331 133.079C39.3615 132.757 36.6271 132.427 33.8233 132.082L33.3359 136.053ZM110.178 104.95C85.401 101.897 53.3464 110.155 31.2156 129.204L33.825 132.235C55.0614 113.957 85.9773 105.999 109.689 108.92L110.178 104.95ZM136.884 90.7035C128.297 97.5422 119.695 101.877 110.179 104.951L111.408 108.757C121.34 105.549 130.379 100.998 139.376 93.8324L136.884 90.7035ZM149.724 62.2788C149.685 72.8985 146.527 83.0228 136.884 90.7035L139.376 93.8324C150.219 85.196 153.682 73.7639 153.724 62.2934L149.724 62.2788ZM33.8233 132.082C33.8065 132.08 33.8033 132.078 33.809 132.08C33.8143 132.083 33.8214 132.087 33.8284 132.093C33.8411 132.104 33.8458 132.113 33.8479 132.12C33.8501 132.127 33.8552 132.149 33.846 132.184C33.8414 132.202 33.8341 132.218 33.8264 132.23C33.8184 132.243 33.8149 132.244 33.825 132.235L31.2156 129.204C28.5461 131.501 30.0375 135.648 33.3359 136.053L33.8233 132.082ZM144.239 213.23C145.541 212.682 146.46 211.48 146.636 210.069L142.667 209.573C142.669 209.555 142.68 209.546 142.687 209.543L144.239 213.23ZM44.7572 168.02C44.7558 168.021 44.7515 168.023 44.7449 168.024C44.7385 168.026 44.7317 168.026 44.7253 168.026C44.7127 168.026 44.7048 168.024 44.7015 168.023C44.6982 168.021 44.696 168.02 44.6939 168.017C44.6908 168.014 44.6903 168.012 44.6917 168.016L48.4266 166.584C47.6203 164.481 45.1924 163.412 43.0786 164.389L44.7572 168.02ZM15.0047 211.508C15.0002 211.502 15.0008 211.501 15.004 211.508C15.0073 211.516 15.0139 211.533 15.0193 211.56L11.0977 212.347C11.2099 212.906 11.4443 213.398 11.73 213.805L15.0047 211.508ZM122.637 258.552C122.364 258.554 122.099 258.581 121.83 258.636L122.624 262.556C122.639 262.553 122.646 262.552 122.663 262.552L122.637 258.552ZM166.228 236.139C165.532 236.315 164.887 236.674 164.368 237.187L167.18 240.032C167.181 240.031 167.184 240.028 167.19 240.024C167.197 240.021 167.204 240.018 167.211 240.016L166.228 236.139ZM190.633 219.625C190.633 219.633 190.632 219.61 190.651 219.571L194.257 221.303C194.499 220.798 194.613 220.271 194.631 219.762L190.633 219.625ZM189.909 197.215C189.702 197.806 189.635 198.437 189.715 199.061L193.683 198.551C193.682 198.546 193.682 198.54 193.685 198.533L189.909 197.215ZM192.919 187.047C192.934 187.038 192.938 187.038 192.932 187.04C192.926 187.041 192.918 187.042 192.909 187.041C192.892 187.04 192.882 187.035 192.877 187.031C192.871 187.027 192.853 187.013 192.84 186.979C192.833 186.962 192.829 186.945 192.827 186.93C192.826 186.915 192.828 186.913 192.826 186.926L196.734 187.777C197.483 184.336 193.798 181.921 190.919 183.582L192.919 187.047ZM186.908 184.618C187.576 187.152 190.489 188.45 192.822 187.103L190.822 183.639C190.816 183.642 190.815 183.642 190.817 183.641C190.819 183.64 190.821 183.64 190.823 183.64C190.825 183.64 190.82 183.641 190.809 183.636C190.799 183.632 190.791 183.625 190.786 183.62C190.784 183.618 190.783 183.616 190.781 183.613C190.78 183.611 190.778 183.606 190.775 183.598L186.908 184.618ZM151.179 122.628C148.997 124.18 148.868 127.403 150.955 129.11L153.488 126.014C153.475 126.003 153.472 125.996 153.47 125.992C153.467 125.985 153.463 125.972 153.464 125.954C153.464 125.936 153.469 125.921 153.474 125.913C153.477 125.907 153.482 125.899 153.497 125.887L151.179 122.628ZM188.535 79.4554C186.33 78.1749 183.568 79.2591 182.717 81.5808L186.474 82.9562C186.479 82.9421 186.484 82.9358 186.488 82.9315C186.494 82.9257 186.503 82.92 186.513 82.9163C186.522 82.9127 186.527 82.9132 186.526 82.9131C186.525 82.913 186.524 82.9128 186.522 82.9124C186.521 82.9119 186.522 82.9119 186.526 82.9144L188.535 79.4554ZM191.519 81.3522C191.522 81.3654 191.52 81.363 191.521 81.3485C191.523 81.3344 191.526 81.3177 191.533 81.3013C191.546 81.2693 191.563 81.2559 191.568 81.2523C191.573 81.2488 191.582 81.244 191.598 81.243C191.607 81.2424 191.615 81.2433 191.621 81.2447C191.627 81.2461 191.623 81.2463 191.608 81.2378L189.604 84.6995C192.484 86.3671 196.167 83.9504 195.43 80.5135L191.519 81.3522ZM187.003 64.9824C186.891 65.6867 186.968 66.4081 187.226 67.0736L190.956 65.6296C190.953 65.6229 190.952 65.6154 190.954 65.6076L187.003 64.9824ZM188.07 44.0068C188.047 43.9605 188.047 43.9333 188.047 43.9416L192.042 43.7377C192.016 43.2304 191.893 42.6997 191.635 42.1931L188.07 44.0068ZM162.714 29.2813C163.334 29.9155 164.141 30.3204 164.997 30.4543L165.615 26.5024C165.604 26.5007 165.594 26.4973 165.586 26.4931C165.578 26.489 165.574 26.4853 165.573 26.4843L162.714 29.2813ZM116.76 5.44195C117.028 5.49648 117.296 5.52496 117.574 5.52667L117.598 1.52675C117.584 1.52667 117.574 1.5258 117.557 1.52228L116.76 5.44195ZM4.34557 55.1454C4.34037 55.1711 4.33397 55.1875 4.33088 55.1945C4.32787 55.2012 4.32738 55.2006 4.33193 55.1941L1.05361 52.9022C0.769125 53.3092 0.536509 53.7991 0.424475 54.3548L4.34557 55.1454ZM35.6933 101.245C35.6921 101.248 35.6927 101.245 35.6962 101.242C35.6986 101.239 35.701 101.238 35.7041 101.236C35.7072 101.235 35.7145 101.233 35.7263 101.233C35.7323 101.233 35.7385 101.234 35.7445 101.235C35.7506 101.236 35.7544 101.238 35.7555 101.238L34.0784 104.87C36.1899 105.845 38.6233 104.783 39.4298 102.672L35.6933 101.245ZM109.689 108.92C110.261 108.99 110.846 108.939 111.408 108.757L110.179 104.951C110.181 104.95 110.183 104.95 110.184 104.95C110.185 104.95 110.183 104.95 110.178 104.95L109.689 108.92ZM149.743 62.3266C149.741 62.326 149.738 62.3238 149.734 62.3179C149.73 62.3112 149.724 62.2971 149.724 62.2788L153.724 62.2934C153.73 60.7705 152.855 59.4105 151.531 58.7485L149.743 62.3266Z" fill="black"/>
</svg>
