<svg width="190" height="265" viewBox="0 0 190 265" fill="none" xmlns="http://www.w3.org/2000/svg">
<path fill-rule="evenodd" clip-rule="evenodd" d="M41.9015 39.9945C40.49 39.3396 38.8927 40.4634 39.0492 42.0115C40.8402 59.7178 43.2171 79.8128 49.1543 98.6112C49.5243 99.7827 50.8627 100.324 51.9679 99.7875C64.3371 93.7842 76.8392 91.2264 87.0698 93.3294C87.2119 93.3586 87.3417 93.3732 87.4868 93.3746C91.2581 93.4109 146.389 94.8969 175.813 150.534C176.059 151 176.705 151.09 177.05 150.691V150.691C179.086 148.33 181.175 145.909 183.326 143.428C184.431 142.153 186.5 142.743 186.706 144.418C192.148 188.487 166.688 237.497 137.793 247.636C137.656 247.684 137.527 247.745 137.401 247.819C133.6 250.06 72.3315 284.818 6.25365 236.683C6.04548 236.531 5.865 236.341 5.73445 236.119C-0.989831 224.684 0.121963 197.363 21.5942 176.83C22.4149 176.046 23.7248 176.134 24.453 177.005C41.2466 197.1 66.2412 224.703 99.6176 213.56C114.949 208.441 127.022 201.145 138.321 191.593C138.86 191.138 139.114 190.433 138.99 189.739C135.12 168.141 127.328 141.79 100.354 135.793C71.1291 129.296 48.4959 136.702 14.2936 147.895C11.8757 148.686 9.39993 149.496 6.85996 150.322C5.25597 150.843 3.7924 149.273 4.4888 147.736C7.02291 142.147 10.1928 136.817 13.8368 131.828C14.1496 131.4 14.2834 130.859 14.2075 130.334C8.07548 87.9279 11.5537 60.5771 20.5487 31.2819C20.8331 30.3555 20.4194 29.3542 19.5608 28.9048C14.1788 26.088 8.69263 23.1336 3.0314 20.0431C1.36889 19.1355 1.80662 16.7633 3.69608 16.6308C9.40396 16.2304 16.1704 16.3999 23.7562 16.888C24.6542 16.9458 25.4835 16.4012 25.7841 15.553C27.2011 11.5537 28.7006 7.46972 30.2733 3.26259C30.9023 1.58 33.1481 1.56788 33.6458 3.29385C34.7147 7.00081 35.5366 11.3922 36.2372 16.312C36.3689 17.2365 37.116 17.9532 38.0459 18.0385C41.9151 18.3936 45.9256 18.7842 50.0547 19.1863C87.8849 22.8704 135.668 27.5238 175.889 14.7572C176.928 14.4274 178.048 14.9735 178.393 16.0073C184.375 33.9001 185.038 51.007 179.208 68.6673C178.932 69.5038 178.115 70.0479 177.235 70.0096C115.646 67.3291 78.8847 57.1539 41.9015 39.9945Z" fill="white"/>
<path d="M99.6176 213.56L98.9842 211.663L98.9842 211.663L99.6176 213.56ZM100.354 135.793L100.788 133.841L100.788 133.841L100.354 135.793ZM14.2936 147.895L13.6716 145.994L13.6716 145.994L14.2936 147.895ZM50.0547 19.1863L49.8608 21.1769L49.8608 21.1769L50.0547 19.1863ZM177.235 70.0096L177.148 72.0077L177.235 70.0096ZM175.889 14.7572L176.494 16.6634L175.889 14.7572ZM178.393 16.0073L180.29 15.3732L178.393 16.0073ZM36.2372 16.312L38.2172 16.03L36.2372 16.312ZM38.0459 18.0385L38.2287 16.0469L38.0459 18.0385ZM30.2733 3.26259L32.1467 3.9629L30.2733 3.26259ZM33.6458 3.29385L31.7241 3.848L33.6458 3.29385ZM23.7562 16.888L23.6278 18.8839L23.7562 16.888ZM25.7841 15.553L23.8989 14.885L25.7841 15.553ZM3.0314 20.0431L2.07308 21.7985L3.0314 20.0431ZM3.69608 16.6308L3.55615 14.6357L3.69608 16.6308ZM20.5487 31.2819L22.4606 31.869L20.5487 31.2819ZM19.5608 28.9048L18.6334 30.6768L19.5608 28.9048ZM138.321 191.593L139.612 193.121L138.321 191.593ZM138.99 189.739L137.021 190.092L138.99 189.739ZM21.5942 176.83L22.9765 178.276L21.5942 176.83ZM24.453 177.005L22.9183 178.288L24.453 177.005ZM6.25365 236.683L7.43125 235.066L6.25365 236.683ZM5.73445 236.119L4.01041 237.133L5.73445 236.119ZM137.793 247.636L138.455 249.523L137.793 247.636ZM137.401 247.819L136.385 246.096L137.401 247.819ZM13.8368 131.828L15.4518 133.008L13.8368 131.828ZM14.2075 130.334L12.2281 130.621L14.2075 130.334ZM175.813 150.534L174.045 151.469L175.813 150.534ZM6.85996 150.322L6.24176 148.42L6.85996 150.322ZM4.4888 147.736L2.66725 146.911L4.4888 147.736ZM87.0698 93.3294L87.4725 91.3703L87.0698 93.3294ZM87.4868 93.3746L87.5061 91.3747L87.4868 93.3746ZM39.0492 42.0115L41.0391 41.8103L39.0492 42.0115ZM41.9015 39.9945L42.7432 38.1803L41.9015 39.9945ZM183.326 143.428L184.837 144.738L183.326 143.428ZM49.1543 98.6112L51.0615 98.0089L49.1543 98.6112ZM51.9679 99.7875L51.0947 97.9882L51.9679 99.7875ZM47.2472 99.2136C41.2418 80.1991 38.8505 59.9203 37.0594 42.2128L41.0391 41.8103C42.8299 59.5153 45.1925 79.4264 51.0615 98.0089L47.2472 99.2136ZM86.6671 95.2884C77.0245 93.3063 64.9873 95.6917 52.8412 101.587L51.0947 97.9882C63.6868 91.8767 76.6539 89.1465 87.4725 91.3703L86.6671 95.2884ZM174.045 151.469C145.163 96.8571 91.0615 95.4091 87.4676 95.3746L87.5061 91.3747C91.4547 91.4127 147.615 92.9366 177.581 149.599L174.045 151.469ZM175.535 149.384C177.572 147.024 179.662 144.601 181.814 142.118L184.837 144.738C182.688 147.217 180.601 149.636 178.564 151.997L175.535 149.384ZM188.691 144.173C191.467 166.648 186.363 190.307 176.923 209.628C167.514 228.888 153.606 244.207 138.455 249.523L137.131 245.749C150.876 240.926 164.145 226.671 173.329 207.873C182.483 189.137 187.388 166.256 184.722 144.663L188.691 144.173ZM138.417 249.542C134.456 251.878 72.1792 287.181 5.07605 238.299L7.43125 235.066C72.4839 282.454 132.744 248.243 136.385 246.096L138.417 249.542ZM4.01041 237.133C0.324571 230.865 -1.05398 220.637 1.12796 209.502C3.32427 198.293 9.16104 185.952 20.212 175.385L22.9765 178.276C12.5551 188.241 7.09989 199.827 5.05331 210.271C2.99235 220.788 4.42005 229.938 7.45849 235.106L4.01041 237.133ZM25.9876 175.722C34.3887 185.775 44.6628 197.477 56.8955 205.313C69.0568 213.103 83.0201 216.993 98.9842 211.663L100.251 215.457C82.8387 221.27 67.6164 216.93 54.738 208.681C41.9309 200.477 31.3109 188.33 22.9183 178.288L25.9876 175.722ZM98.9842 211.663C114.048 206.633 125.902 199.473 137.03 190.066L139.612 193.121C128.142 202.816 115.851 210.248 100.251 215.457L98.9842 211.663ZM100.788 133.841C114.93 136.985 124.044 145.498 130.067 155.915C136.051 166.264 139.014 178.535 140.959 189.386L137.021 190.092C135.096 179.346 132.228 167.642 126.604 157.917C121.02 148.259 112.752 140.598 99.9198 137.745L100.788 133.841ZM13.6716 145.994C47.7978 134.826 70.9477 127.206 100.788 133.841L99.9198 137.745C71.3105 131.385 49.194 138.578 14.9156 149.796L13.6716 145.994ZM6.24176 148.42C8.77951 147.595 11.2534 146.785 13.6716 145.994L14.9156 149.796C12.498 150.587 10.0203 151.398 7.47815 152.224L6.24176 148.42ZM15.4518 133.008C11.8816 137.896 8.78321 143.108 6.31035 148.562L2.66725 146.911C5.2626 141.186 8.50404 135.738 12.2218 130.649L15.4518 133.008ZM22.4606 31.869C13.552 60.8826 10.0973 87.9352 16.1869 130.048L12.2281 130.621C6.05363 87.9206 9.55533 60.2716 18.6368 30.6949L22.4606 31.869ZM3.98971 18.2876C9.64493 21.3748 15.1201 24.3232 20.4882 27.1328L18.6334 30.6768C13.2376 27.8527 7.74034 24.8923 2.07308 21.7985L3.98971 18.2876ZM23.6278 18.8839C16.0742 18.3978 9.41147 18.2348 3.83601 18.6259L3.55615 14.6357C9.39646 14.2261 16.2665 14.4019 23.8846 14.8922L23.6278 18.8839ZM32.1467 3.9629C30.5765 8.16334 29.0812 12.236 27.6692 16.2209L23.8989 14.885C25.321 10.8715 26.8247 6.77609 28.4 2.56227L32.1467 3.9629ZM34.2572 16.594C33.5622 11.714 32.756 7.42639 31.7241 3.848L35.5675 2.7397C36.6735 6.57523 37.5109 11.0704 38.2172 16.03L34.2572 16.594ZM49.8608 21.1769C45.7306 20.7746 41.7258 20.3846 37.8631 20.0301L38.2287 16.0469C42.1044 16.4026 46.1206 16.7937 50.2485 17.1957L49.8608 21.1769ZM176.494 16.6634C135.811 29.5767 87.5977 24.8519 49.8608 21.1769L50.2485 17.1957C88.172 20.8889 135.525 25.4709 175.284 12.8509L176.494 16.6634ZM177.309 68.0404C182.987 50.8396 182.359 34.178 176.497 16.6415L180.29 15.3732C186.391 33.6222 187.089 51.1744 181.107 69.2943L177.309 68.0404ZM42.7432 38.1803C79.4664 55.219 115.968 65.3412 177.321 68.0115L177.148 72.0077C115.324 69.317 78.3031 59.0888 41.0597 41.8087L42.7432 38.1803ZM181.107 69.2943C180.54 71.0119 178.889 72.0835 177.148 72.0077L177.321 68.0115C177.322 68.0116 177.323 68.0115 177.324 68.0112C177.326 68.0107 177.327 68.0099 177.328 68.0095C177.328 68.0092 177.326 68.0109 177.322 68.0162C177.317 68.0222 177.312 68.0307 177.309 68.0404L181.107 69.2943ZM175.284 12.8509C177.327 12.2022 179.586 13.2668 180.29 15.3732L176.497 16.6415C176.497 16.6413 176.497 16.6419 176.497 16.6431C176.498 16.6442 176.498 16.6456 176.499 16.6473C176.501 16.6507 176.504 16.654 176.506 16.6567C176.511 16.6621 176.514 16.6633 176.513 16.6629C176.512 16.6623 176.51 16.6616 176.507 16.6613C176.506 16.6612 176.504 16.6612 176.503 16.6614C176.501 16.6616 176.498 16.662 176.494 16.6634L175.284 12.8509ZM38.2172 16.03C38.2179 16.0345 38.2188 16.0367 38.2196 16.0381C38.2206 16.0401 38.2222 16.0422 38.2242 16.0442C38.2262 16.0462 38.2276 16.0468 38.2276 16.0468C38.2276 16.0468 38.2276 16.0468 38.2275 16.0468C38.2274 16.0467 38.2273 16.0467 38.2272 16.0467C38.2269 16.0466 38.2273 16.0467 38.2287 16.0469L37.8631 20.0301C36.0022 19.8593 34.5183 18.4277 34.2572 16.594L38.2172 16.03ZM28.4 2.56227C29.0107 0.928512 30.4855 -0.00518998 32.0156 2.16739e-05C33.5773 0.00534098 35.0644 0.995143 35.5675 2.7397L31.7241 3.848C31.715 3.81636 31.7266 3.87178 31.8061 3.93077C31.8762 3.9827 31.949 3.99982 32.002 4C32.0538 4.00017 32.0967 3.98499 32.1283 3.9633C32.1677 3.9362 32.1636 3.91782 32.1467 3.9629L28.4 2.56227ZM23.8846 14.8922C23.8877 14.8924 23.889 14.8921 23.8898 14.8918C23.8911 14.8915 23.8929 14.8907 23.8949 14.8894C23.8969 14.8881 23.8979 14.887 23.8982 14.8867C23.8983 14.8866 23.8983 14.8866 23.8983 14.8866C23.8983 14.8865 23.8983 14.8864 23.8984 14.8862C23.8985 14.886 23.8987 14.8856 23.8989 14.885L27.6692 16.2209C27.0687 17.9157 25.4148 18.9989 23.6278 18.8839L23.8846 14.8922ZM2.07308 21.7985C0.458532 20.9171 -0.228764 19.2243 0.0671096 17.6718C0.367554 16.0954 1.66752 14.7681 3.55615 14.6357L3.83601 18.6259C3.80666 18.6279 3.80772 18.6321 3.8289 18.6232C3.85005 18.6143 3.87827 18.5979 3.90657 18.5722C3.9637 18.5202 3.98854 18.4618 3.99639 18.4207C4.00409 18.3803 3.99921 18.3401 3.98267 18.3044C3.96116 18.258 3.9403 18.2606 3.98971 18.2876L2.07308 21.7985ZM18.6368 30.6949C18.6375 30.6926 18.6377 30.6912 18.6378 30.6905C18.6379 30.6898 18.6379 30.6891 18.6379 30.6883C18.6378 30.6864 18.6373 30.6838 18.6361 30.6808C18.6349 30.678 18.6337 30.6767 18.6338 30.6767C18.6339 30.6768 18.6341 30.6771 18.6344 30.6773C18.6348 30.6776 18.6346 30.6774 18.6334 30.6768L20.4882 27.1328C22.2067 28.0322 23.0256 30.0287 22.4606 31.869L18.6368 30.6949ZM137.03 190.066C137.028 190.067 137.025 190.071 137.023 190.077C137.022 190.079 137.022 190.082 137.021 190.085C137.021 190.088 137.021 190.091 137.021 190.092L140.959 189.386C141.209 190.785 140.695 192.205 139.612 193.121L137.03 190.066ZM20.212 175.385C21.8891 173.781 24.5353 173.985 25.9876 175.722L22.9183 178.288C22.9164 178.285 22.9182 178.288 22.923 178.29C22.9264 178.292 22.9294 178.292 22.9325 178.293C22.9357 178.293 22.9428 178.293 22.953 178.289C22.9583 178.287 22.9635 178.285 22.9683 178.282C22.9732 178.279 22.9759 178.276 22.9765 178.276L20.212 175.385ZM5.07605 238.299C4.67491 238.007 4.29674 237.62 4.01041 237.133L7.45849 235.106C7.44562 235.084 7.43467 235.071 7.42971 235.066C7.42489 235.06 7.4248 235.061 7.43125 235.066L5.07605 238.299ZM138.455 249.523C138.447 249.526 138.436 249.531 138.417 249.542L136.385 246.096C136.618 245.959 136.865 245.842 137.131 245.749L138.455 249.523ZM12.2218 130.649C12.2217 130.649 12.2225 130.648 12.2235 130.646C12.2246 130.643 12.2258 130.64 12.2267 130.636C12.2287 130.628 12.2284 130.622 12.2281 130.621L16.1869 130.048C16.3374 131.089 16.0741 132.156 15.4518 133.008L12.2218 130.649ZM177.581 149.599C177.208 148.894 176.165 148.654 175.535 149.384L178.564 151.997C177.246 153.525 174.91 153.106 174.045 151.469L177.581 149.599ZM7.47815 152.224C4.31907 153.251 1.21085 150.123 2.66725 146.911L6.31035 148.562C6.30485 148.574 6.30777 148.572 6.30967 148.557C6.31152 148.542 6.31127 148.524 6.3079 148.505C6.30131 148.469 6.28706 148.45 6.28158 148.444C6.27629 148.439 6.26741 148.431 6.25104 148.427C6.24207 148.424 6.2337 148.424 6.2279 148.424C6.22162 148.424 6.22557 148.425 6.24176 148.42L7.47815 152.224ZM87.4725 91.3703C87.4814 91.3722 87.4872 91.3732 87.4903 91.3737C87.4934 91.3742 87.4948 91.3743 87.4951 91.3743C87.4953 91.3744 87.4957 91.3744 87.4967 91.3745C87.4978 91.3745 87.5007 91.3747 87.5061 91.3747L87.4676 95.3746C87.1857 95.3718 86.9275 95.3419 86.6671 95.2884L87.4725 91.3703ZM37.0594 42.2128C36.7447 39.1015 39.945 36.882 42.7432 38.1803L41.0597 41.8087C41.0538 41.806 41.0501 41.8047 41.0485 41.8043C41.0469 41.8038 41.0465 41.8038 41.0473 41.8039C41.0492 41.8042 41.0517 41.8043 41.0537 41.804C41.0552 41.8039 41.0545 41.8037 41.0517 41.8048C41.0487 41.8059 41.0448 41.8079 41.0407 41.8108C41.0366 41.8137 41.034 41.8164 41.0328 41.8178C41.0317 41.8191 41.0326 41.8183 41.0342 41.8149C41.0361 41.8111 41.0376 41.8064 41.0383 41.8022C41.0387 41.8004 41.0386 41.7997 41.0386 41.8004C41.0386 41.8012 41.0385 41.8044 41.0391 41.8103L37.0594 42.2128ZM181.814 142.118C183.996 139.6 188.261 140.691 188.691 144.173L184.722 144.663C184.72 144.649 184.718 144.652 184.724 144.665C184.73 144.677 184.739 144.691 184.75 144.704C184.772 144.729 184.791 144.736 184.796 144.737C184.801 144.739 184.81 144.74 184.826 144.736C184.834 144.734 184.842 144.73 184.846 144.727C184.852 144.724 184.848 144.725 184.837 144.738L181.814 142.118ZM51.0615 98.0089C51.062 98.0107 51.0616 98.0088 51.0592 98.0048C51.0569 98.0009 51.0542 97.9973 51.0515 97.9945C51.0463 97.9889 51.0447 97.9895 51.0499 97.9917C51.0553 97.9939 51.0624 97.9954 51.0695 97.9952C51.0727 97.9952 51.0759 97.9948 51.0793 97.9939C51.0826 97.9932 51.0876 97.9916 51.0947 97.9882L52.8412 101.587C50.691 102.63 48.0022 101.604 47.2472 99.2136L51.0615 98.0089Z" fill="black"/>
</svg>
