<svg width="264" height="264" viewBox="0 0 264 264" fill="none" xmlns="http://www.w3.org/2000/svg">
<path fill-rule="evenodd" clip-rule="evenodd" d="M12.0669 207.993L12.0695 207.991L12.0697 207.991C27.8922 195.542 61.5138 169.089 96.4104 138.122C99.9618 134.97 99.9631 129.432 96.4132 126.279C61.3553 95.1388 27.5117 68.5111 11.6211 56.0087L11.6211 56.0086C6.8786 52.2773 3.73524 49.8042 2.63593 48.8447C-4.88629 42.2793 56.6846 6.2301 62.8645 2.6393C63.2242 2.43029 63.5169 2.17623 63.9175 2.06388C70.7515 0.147016 97.7514 41.6507 124.982 88.9566C128.088 94.3527 135.912 94.3527 139.018 88.9567C166.249 41.6507 193.249 0.146944 200.083 2.06383C200.483 2.17618 200.776 2.43023 201.136 2.63925C207.315 6.23003 268.886 42.2792 261.364 48.8447C260.265 49.8041 257.122 52.2771 252.38 56.0081L252.379 56.0086L252.379 56.0087C236.488 68.5112 202.645 95.1389 167.587 126.279C164.037 129.432 164.038 134.97 167.59 138.122C202.486 169.09 236.108 195.543 251.931 207.991C256.673 211.723 259.816 214.196 260.916 215.155C268.438 221.721 206.867 257.77 200.687 261.361C200.327 261.57 200.035 261.824 199.634 261.936C192.838 263.843 166.095 222.802 139.016 175.819C135.909 170.428 128.091 170.428 124.984 175.819C97.9052 222.802 71.1625 263.843 64.3659 261.936C63.9653 261.824 63.6726 261.57 63.3129 261.361C57.1331 257.77 -4.43787 221.721 3.08436 215.155C4.18347 214.196 7.32589 211.724 12.0669 207.993Z" fill="#006400"/>
<path d="M12.0695 207.991L10.8902 206.376L10.8634 206.396L10.8372 206.416L12.0695 207.991ZM12.0669 207.993L10.8347 206.418L10.8302 206.422L12.0669 207.993ZM12.0697 207.991L13.249 209.607L13.2781 209.585L13.3064 209.563L12.0697 207.991ZM11.6211 56.0087L10.3802 57.5771L10.3845 57.5805L11.6211 56.0087ZM11.6211 56.0086L12.862 54.4402L12.8577 54.4368L11.6211 56.0086ZM2.63593 48.8447L1.3208 50.3515L1.3208 50.3515L2.63593 48.8447ZM261.364 48.8447L260.049 47.3379L260.049 47.3379L261.364 48.8447ZM252.38 56.0081L251.143 54.4363L251.135 54.4426L251.127 54.4491L252.38 56.0081ZM252.379 56.0086L251.126 54.4496L251.112 54.4607L251.099 54.4722L252.379 56.0086ZM252.379 56.0087L253.616 57.5805L253.638 57.5631L253.659 57.5452L252.379 56.0087ZM251.931 207.991L250.694 209.563L250.694 209.563L251.931 207.991ZM260.916 215.155L262.231 213.649L262.231 213.649L260.916 215.155ZM3.08436 215.155L4.39949 216.662L4.39951 216.662L3.08436 215.155ZM200.687 261.361L199.682 259.631L200.687 261.361ZM199.634 261.936L199.094 260.01L199.634 261.936ZM96.4104 138.122L95.0829 136.626L96.4104 138.122ZM96.4132 126.279L95.085 127.774L96.4132 126.279ZM167.587 126.279L166.259 124.784L167.587 126.279ZM167.59 138.122L168.917 136.626L167.59 138.122ZM200.083 2.06383L200.623 0.138146L200.083 2.06383ZM201.136 2.63925L200.131 4.36852L201.136 2.63925ZM139.016 175.819L137.283 176.817L139.016 175.819ZM124.984 175.819L123.251 174.82L124.984 175.819ZM62.8645 2.6393L63.8693 4.36858L62.8645 2.6393ZM63.9175 2.06388L64.4576 3.98956L63.9175 2.06388ZM64.3659 261.936L63.8258 263.862L64.3659 261.936ZM63.3129 261.361L62.3081 263.09L63.3129 261.361ZM139.018 88.9567L140.752 89.9544L139.018 88.9567ZM10.8372 206.416L10.8347 206.418L13.2992 209.569L13.3017 209.567L10.8372 206.416ZM10.8905 206.376L10.8902 206.376L13.2488 209.607L13.249 209.607L10.8905 206.376ZM95.0829 136.626C60.2342 167.551 26.6532 193.972 10.8331 206.419L13.3064 209.563C29.1311 197.112 62.7933 170.628 97.7378 139.618L95.0829 136.626ZM97.7414 124.784C62.6352 93.6006 28.7507 66.9411 12.8578 54.4369L10.3845 57.5805C26.2727 70.0812 60.0755 96.6771 95.085 127.774L97.7414 124.784ZM12.8621 54.4402L12.862 54.4402L10.3801 57.5771L10.3802 57.5771L12.8621 54.4402ZM12.8577 54.4368C8.08105 50.6786 5.00009 48.2535 3.95107 47.3379L1.3208 50.3515C2.47039 51.3548 5.67616 53.8761 10.3844 57.5804L12.8577 54.4368ZM3.95107 47.3379C3.93611 47.3248 3.96469 47.3476 3.98734 47.4045C4.00827 47.4571 3.99698 47.4708 4.00088 47.4086C4.01137 47.2414 4.11166 46.8384 4.52424 46.153C5.34278 44.7931 6.97354 42.9929 9.34703 40.8424C14.0475 36.5836 21.1335 31.4149 28.7312 26.284C43.8976 16.0417 60.787 6.15951 63.8693 4.36858L61.8597 0.910024C58.7621 2.7099 41.7761 12.6477 26.4926 22.9691C18.8654 28.1199 11.5829 33.419 6.66129 37.8781C4.22376 40.0866 2.23013 42.2079 1.09717 44.0902C0.534007 45.0258 0.0767652 46.074 0.00873661 47.158C-0.0663903 48.3551 0.346818 49.5014 1.3208 50.3515L3.95107 47.3379ZM64.4576 3.98956C64.3434 4.02159 64.399 3.95759 64.7485 4.08433C65.0917 4.20877 65.5778 4.4677 66.2157 4.92836C67.4914 5.84956 69.1024 7.37671 71.0249 9.51645C74.8545 13.779 79.6628 20.1803 85.1517 28.183C96.1165 44.1695 109.644 66.3202 123.249 89.9544L126.715 87.9589C113.089 64.2872 99.5016 42.0331 88.4503 25.9205C82.9311 17.8736 78.0062 11.3018 74.0003 6.84315C72.005 4.62232 70.1727 2.8519 68.5574 1.68548C67.7499 1.10233 66.9285 0.619932 66.1121 0.323903C65.302 0.0301738 64.3458 -0.133443 63.3774 0.138195L64.4576 3.98956ZM200.623 0.138146C199.654 -0.133494 198.698 0.03012 197.888 0.323848C197.072 0.619876 196.25 1.10227 195.443 1.68542C193.827 2.85185 191.995 4.62227 190 6.84309C185.994 11.3017 181.069 17.8735 175.55 25.9204C164.499 42.033 150.911 64.2871 137.285 87.9589L140.752 89.9544C154.356 66.3202 167.884 44.1695 178.848 28.1829C184.337 20.1803 189.146 13.7789 192.975 9.5164C194.898 7.37665 196.509 5.8495 197.784 4.92831C198.422 4.46764 198.908 4.20872 199.252 4.08428C199.601 3.95754 199.657 4.02154 199.543 3.98951L200.623 0.138146ZM262.679 50.3514C263.653 49.5014 264.066 48.3551 263.991 47.158C263.923 46.074 263.466 45.0258 262.903 44.0901C261.77 42.2079 259.776 40.0866 257.339 37.8781C252.417 33.4189 245.135 28.1199 237.508 22.969C222.224 12.6476 205.238 2.70983 202.14 0.90997L200.131 4.36852C203.213 6.15944 220.103 16.0416 235.269 26.2839C242.867 31.4149 249.953 36.5835 254.653 40.8423C257.027 42.9928 258.657 44.7931 259.476 46.153C259.888 46.8384 259.989 47.2414 259.999 47.4085C260.003 47.4707 259.992 47.457 260.013 47.4045C260.035 47.3476 260.064 47.3248 260.049 47.3379L262.679 50.3514ZM253.616 57.5799C258.324 53.8758 261.53 51.3548 262.679 50.3514L260.049 47.3379C259 48.2534 255.919 50.6783 251.143 54.4363L253.616 57.5799ZM253.632 57.5676L253.632 57.5671L251.127 54.4491L251.126 54.4496L253.632 57.5676ZM253.659 57.5452L253.659 57.545L251.099 54.4722L251.099 54.4723L253.659 57.5452ZM168.915 127.774C203.925 96.6771 237.727 70.0812 253.616 57.5805L251.142 54.4369C235.249 66.9412 201.365 93.6006 166.259 124.784L168.915 127.774ZM166.262 139.618C201.207 170.628 234.869 197.113 250.694 209.563L253.167 206.42C237.347 193.973 203.766 167.551 168.917 136.626L166.262 139.618ZM250.694 209.563C255.471 213.321 258.552 215.747 259.601 216.662L262.231 213.649C261.081 212.645 257.875 210.124 253.167 206.42L250.694 209.563ZM259.601 216.662C259.616 216.675 259.587 216.652 259.564 216.596C259.543 216.543 259.555 216.529 259.551 216.591C259.54 216.759 259.44 217.162 259.027 217.847C258.209 219.207 256.578 221.007 254.205 223.158C249.504 227.416 242.418 232.585 234.82 237.716C219.654 247.958 202.765 257.841 199.682 259.631L201.692 263.09C204.79 261.29 221.776 251.352 237.059 241.031C244.686 235.88 251.969 230.581 256.89 226.122C259.328 223.913 261.321 221.792 262.454 219.91C263.018 218.974 263.475 217.926 263.543 216.842C263.618 215.645 263.205 214.499 262.231 213.649L259.601 216.662ZM199.094 260.01C199.208 259.979 199.153 260.042 198.808 259.918C198.469 259.796 197.988 259.541 197.356 259.086C196.092 258.177 194.496 256.669 192.589 254.553C188.792 250.338 184.024 244.004 178.579 236.079C167.703 220.247 154.278 198.293 140.749 174.82L137.283 176.817C150.834 200.328 164.319 222.386 175.283 238.344C180.758 246.313 185.643 252.818 189.617 257.23C191.597 259.428 193.416 261.18 195.021 262.334C195.824 262.911 196.641 263.389 197.453 263.681C198.26 263.972 199.211 264.132 200.174 263.862L199.094 260.01ZM63.8258 263.862C64.789 264.132 65.7401 263.972 66.5468 263.681C67.3594 263.388 68.1763 262.911 68.9789 262.334C70.584 261.18 72.4031 259.428 74.3828 257.23C78.3574 252.818 83.2422 246.313 88.7175 238.344C99.6811 222.386 113.166 200.328 126.717 176.817L123.251 174.82C109.722 198.293 96.2973 220.247 85.4206 236.078C79.9759 244.004 75.2083 250.338 71.4109 254.553C69.5046 256.669 67.9078 258.177 66.6437 259.086C66.0117 259.541 65.5307 259.796 65.1917 259.918C64.8467 260.042 64.7924 259.979 64.9061 260.01L63.8258 263.862ZM1.76923 213.649C0.795243 214.499 0.382035 215.645 0.457162 216.842C0.525191 217.926 0.982434 218.974 1.5456 219.91C2.67856 221.792 4.67219 223.913 7.10972 226.122C12.0313 230.581 19.3139 235.88 26.941 241.031C42.2246 251.352 59.2105 261.29 62.3081 263.09L64.3177 259.631C61.2355 257.841 44.346 247.958 29.1797 237.716C21.5819 232.585 14.4959 227.416 9.79546 223.158C7.42197 221.007 5.79121 219.207 4.97267 217.847C4.56008 217.162 4.4598 216.759 4.44931 216.591C4.4454 216.529 4.4567 216.543 4.43577 216.595C4.41311 216.652 4.38454 216.675 4.39949 216.662L1.76923 213.649ZM10.8302 206.422C6.12345 210.125 2.91861 212.645 1.76921 213.649L4.39951 216.662C5.44832 215.747 8.52834 213.322 13.3036 209.565L10.8302 206.422ZM199.682 259.631C199.545 259.711 199.424 259.79 199.335 259.848C199.234 259.914 199.182 259.948 199.127 259.982C199.028 260.043 199.037 260.027 199.094 260.01L200.174 263.862C200.632 263.733 200.987 263.534 201.225 263.387C201.596 263.159 201.485 263.211 201.692 263.09L199.682 259.631ZM97.7378 139.618C102.186 135.67 102.187 128.733 97.7414 124.784L95.085 127.774C97.7389 130.132 97.7379 134.27 95.0829 136.626L97.7378 139.618ZM166.259 124.784C161.813 128.733 161.814 135.67 166.262 139.618L168.917 136.626C166.262 134.27 166.261 130.132 168.915 127.774L166.259 124.784ZM199.543 3.98951C199.485 3.97346 199.477 3.95739 199.575 4.01785C199.631 4.05227 199.682 4.0863 199.783 4.15221C199.872 4.2102 199.994 4.28892 200.131 4.36852L202.14 0.90997C201.933 0.789423 202.044 0.840895 201.674 0.612736C201.436 0.465827 201.081 0.266555 200.623 0.138146L199.543 3.98951ZM140.749 174.82C136.872 168.094 127.128 168.094 123.251 174.82L126.717 176.817C129.054 172.761 134.946 172.761 137.283 176.817L140.749 174.82ZM63.8693 4.36858C64.0063 4.28897 64.128 4.21026 64.2169 4.15227C64.318 4.08635 64.3692 4.05232 64.4251 4.0179C64.5232 3.95744 64.5149 3.97351 64.4576 3.98956L63.3774 0.138195C62.9196 0.266603 62.5646 0.465877 62.3262 0.612788C61.9561 0.840949 62.0672 0.789476 61.8597 0.910024L63.8693 4.36858ZM64.9061 260.01C64.9633 260.026 64.9716 260.043 64.8735 259.982C64.8177 259.948 64.7664 259.914 64.6654 259.848C64.5764 259.79 64.4547 259.711 64.3177 259.631L62.3081 263.09C62.5156 263.211 62.4045 263.159 62.7747 263.387C63.013 263.534 63.368 263.733 63.8258 263.862L64.9061 260.01ZM123.249 89.9544C127.124 96.6867 136.876 96.6867 140.752 89.9544L137.285 87.9589C134.948 92.0186 129.052 92.0186 126.715 87.9589L123.249 89.9544Z" fill="white"/>
</svg>
