<svg width="264" height="264" viewBox="0 0 264 264" fill="none" xmlns="http://www.w3.org/2000/svg">
<path fill-rule="evenodd" clip-rule="evenodd" d="M188.128 15.1222L188.128 15.1229C188.128 15.123 188.128 15.123 188.128 15.1231V15.1231C188.128 15.1231 188.128 15.1231 188.128 15.1232C188.096 15.3171 188.064 15.513 188.031 15.7111C187.418 19.4393 184.065 22.0779 180.296 21.8138C106.973 16.6765 4.34197 15.0405 2.04483 25.0829C1.9539 25.4805 2.0298 25.85 2.03615 26.2577C2.14695 33.3713 3.50614 105.751 12.9051 102.724C14.2773 102.282 17.9654 100.876 23.5297 98.7543C24.5732 98.3563 25.6827 97.9332 26.8553 97.4866C30.7627 95.9984 35.1509 97.7797 36.945 101.556C69.1179 169.279 120.913 264.803 130.846 261.937C131.249 261.821 131.54 261.553 131.898 261.334C138.011 257.593 198.498 220.292 191.243 213.497C190.183 212.504 187.147 209.943 182.566 206.08C180.98 204.742 179.209 203.248 177.271 201.609C174.177 198.993 173.54 194.476 175.764 191.089C216.619 128.883 268.518 40.127 261.327 32.9661C261.028 32.6681 260.652 32.5422 260.285 32.3335C254.033 28.7803 192.207 -6.07972 190.076 3.73557C189.764 5.17077 189.112 9.13751 188.128 15.1222ZM66.2151 82.8816C60.862 84.8041 59.2239 91.5423 63.1262 95.6804C89.5692 123.721 119.304 151.13 143.51 172.491C147.895 176.362 154.785 174.319 156.32 168.675C166.741 130.357 174.899 90.0651 180.605 58.8268C181.643 53.144 176.473 48.3176 170.884 49.7812C133.577 59.5522 95.6306 72.3171 66.2151 82.8816Z" fill="#FFFF00"/>
<path d="M188.128 15.1222L190.1 15.4578L190.101 15.4466L188.128 15.1222ZM12.9051 102.724L12.2921 100.821L12.2921 100.821L12.9051 102.724ZM23.5297 98.7543L24.2423 100.623L24.2423 100.623L23.5297 98.7543ZM191.243 213.497L192.611 212.037L192.611 212.037L191.243 213.497ZM182.566 206.08L183.856 204.551L183.856 204.551L182.566 206.08ZM190.076 3.73557L188.121 3.31119L188.121 3.31119L190.076 3.73557ZM180.605 58.8268L182.572 59.1862L180.605 58.8268ZM261.327 32.9661L259.916 34.3833L261.327 32.9661ZM260.285 32.3335L259.297 34.0723L260.285 32.3335ZM130.846 261.937L131.4 263.859L130.846 261.937ZM131.898 261.334L132.942 263.04L131.898 261.334ZM143.51 172.491L142.186 173.991L143.51 172.491ZM2.04483 25.0829L3.99447 25.5289L2.04483 25.0829ZM66.2151 82.8816L65.5391 80.9993L66.2151 82.8816ZM188.031 15.7111L190.005 16.0356L188.031 15.7111ZM26.8553 97.4866L26.1435 95.6176L26.8553 97.4866ZM36.945 101.556L35.1385 102.415L36.945 101.556ZM188.128 15.1232L186.154 14.7988L188.128 15.1232ZM177.271 201.609L178.562 200.082L177.271 201.609ZM188.128 15.1229L186.156 14.7873L188.128 15.1229ZM190.099 15.4585L190.1 15.4578L186.156 14.7866L186.156 14.7873L190.099 15.4585ZM190.005 16.0356C190.037 15.8375 190.069 15.6415 190.101 15.4476L186.154 14.7988C186.122 14.9926 186.09 15.1886 186.058 15.3867L190.005 16.0356ZM180.435 19.8187C143.735 17.2473 99.6946 15.5515 64.524 15.756C46.9477 15.8582 31.5335 16.435 20.3433 17.6242C14.7614 18.2174 10.1424 18.9716 6.80631 19.9256C5.14611 20.4003 3.70044 20.9528 2.58935 21.6207C1.53139 22.2566 0.421169 23.2119 0.0951827 24.637L3.99447 25.5289C3.95563 25.6987 3.91641 25.49 4.65 25.049C5.33047 24.64 6.39691 24.203 7.90608 23.7714C10.9088 22.9127 15.2574 22.1872 20.766 21.6018C31.7564 20.4339 47.0134 19.8579 64.5472 19.7559C99.597 19.5521 143.534 21.243 180.156 23.809L180.435 19.8187ZM0.0363957 26.2889C0.091932 29.8545 0.460086 49.7824 1.99428 68.4572C2.75999 77.7779 3.82302 86.8782 5.30565 93.491C6.04052 96.7686 6.91351 99.603 7.99164 101.563C8.52707 102.537 9.20472 103.467 10.0942 104.085C11.0713 104.764 12.2697 105.03 13.518 104.628L12.2921 100.821C12.2877 100.822 12.3298 100.811 12.3901 100.821C12.4435 100.83 12.4409 100.845 12.3764 100.8C12.2134 100.687 11.8979 100.365 11.4965 99.6354C10.7008 98.1889 9.92477 95.8095 9.20875 92.6159C7.78964 86.2865 6.74364 77.4148 5.98085 68.1297C4.45801 49.5931 4.09117 29.7745 4.03591 26.2266L0.0363957 26.2889ZM13.518 104.628C14.9561 104.165 18.7201 102.729 24.2423 100.623L22.8171 96.8855C17.2106 99.0234 13.5984 100.4 12.2921 100.821L13.518 104.628ZM24.2423 100.623C25.2858 100.225 26.395 99.8021 27.5672 99.3557L26.1435 95.6176C24.9704 96.0644 23.8605 96.4876 22.8171 96.8855L24.2423 100.623ZM130.291 260.015C130.489 259.958 130.327 260.111 129.535 259.636C128.812 259.203 127.868 258.426 126.705 257.244C124.391 254.892 121.502 251.237 118.144 246.46C111.443 236.928 103.069 223.204 93.9734 207.228C75.7899 175.29 54.8206 134.523 38.7515 100.698L35.1385 102.415C51.2424 136.313 72.2569 177.169 90.4973 209.207C99.6134 225.219 108.061 239.072 114.871 248.76C118.269 253.594 121.307 257.461 123.853 260.049C125.12 261.336 126.338 262.384 127.48 263.068C128.554 263.711 129.961 264.274 131.4 263.859L130.291 260.015ZM189.876 214.957C189.885 214.965 189.864 214.945 189.849 214.905C189.837 214.871 189.851 214.882 189.844 214.971C189.829 215.188 189.71 215.633 189.296 216.348C188.473 217.77 186.853 219.639 184.513 221.863C179.875 226.271 172.899 231.62 165.425 236.93C150.504 247.531 133.903 257.762 130.854 259.628L132.942 263.04C136.006 261.164 152.704 250.875 167.742 240.191C175.247 234.859 182.415 229.375 187.269 224.762C189.675 222.475 191.638 220.286 192.758 218.353C193.315 217.39 193.758 216.333 193.834 215.255C193.918 214.082 193.556 212.923 192.611 212.037L189.876 214.957ZM181.277 207.608C185.891 211.5 188.865 214.01 189.876 214.957L192.611 212.037C191.5 210.997 188.402 208.386 183.856 204.551L181.277 207.608ZM175.979 203.136C177.919 204.776 179.691 206.271 181.277 207.608L183.856 204.551C182.27 203.213 180.5 201.72 178.562 200.082L175.979 203.136ZM259.916 34.3833C259.795 34.2631 259.996 34.3565 260 35.2478C260.004 36.0674 259.838 37.2348 259.451 38.7787C258.68 41.8514 257.135 46.0296 254.903 51.1466C250.449 61.3575 243.396 75.001 234.815 90.4129C217.661 121.222 194.499 158.92 174.093 189.991L177.436 192.187C197.884 161.053 221.099 123.27 238.31 92.3587C246.911 76.9107 254.038 63.1346 258.57 52.7458C260.83 47.5629 262.48 43.1462 263.331 39.7514C263.754 38.0615 264.006 36.527 264 35.2293C263.994 34.0035 263.758 32.5643 262.738 31.549L259.916 34.3833ZM192.03 4.15995C192.035 4.13791 192.031 4.16549 192.001 4.20291C191.974 4.23638 191.967 4.22559 192.034 4.19247C192.203 4.10861 192.62 3.99168 193.426 4.00047C195.029 4.01795 197.413 4.5136 200.467 5.47178C206.517 7.36997 214.533 10.8658 222.769 14.824C239.208 22.7251 256.179 32.3002 259.297 34.0723L261.273 30.5947C258.139 28.8136 241.071 19.1821 224.501 11.2187C216.233 7.24466 208.002 3.64379 201.664 1.65524C198.525 0.670039 195.681 0.0248169 193.47 0.000709973C192.369 -0.0112906 191.233 0.125817 190.259 0.607921C189.192 1.13614 188.395 2.05083 188.121 3.31119L192.03 4.15995ZM190.101 15.4466C191.092 9.41904 191.732 5.53003 192.03 4.15995L188.121 3.31119C187.795 4.81152 187.131 8.85597 186.154 14.7977L190.101 15.4466ZM61.6712 97.0525C88.1738 125.156 117.96 152.611 142.186 173.991L144.833 170.992C120.649 149.649 90.9646 122.286 64.5813 94.3082L61.6712 97.0525ZM158.25 169.2C168.692 130.804 176.861 90.4499 182.572 59.1862L178.637 58.4674C172.936 89.6804 164.79 129.91 154.39 168.15L158.25 169.2ZM66.8911 84.7639C96.2811 74.2086 134.165 61.4656 171.391 51.716L170.378 47.8465C132.989 57.6387 94.9802 70.4256 65.5391 80.9993L66.8911 84.7639ZM182.572 59.1862C183.871 52.0753 177.393 46.0092 170.378 47.8465L171.391 51.716C175.553 50.6261 179.415 54.2128 178.637 58.4674L182.572 59.1862ZM262.738 31.549C262.39 31.2024 262.028 30.9884 261.775 30.8529C261.655 30.7888 261.529 30.7269 261.456 30.69C261.369 30.6464 261.316 30.6192 261.273 30.5947L259.297 34.0723C259.437 34.1521 259.569 34.2189 259.665 34.2669C259.775 34.3217 259.83 34.349 259.888 34.3797C259.989 34.4338 259.965 34.4318 259.916 34.3833L262.738 31.549ZM131.4 263.859C131.873 263.722 132.236 263.508 132.477 263.352C132.59 263.279 132.705 263.198 132.772 263.152C132.852 263.097 132.901 263.065 132.942 263.04L130.854 259.628C130.716 259.712 130.594 259.796 130.506 259.856C130.405 259.925 130.355 259.961 130.301 259.996C130.205 260.058 130.221 260.036 130.291 260.015L131.4 263.859ZM142.186 173.991C147.675 178.835 156.323 176.283 158.25 169.2L154.39 168.15C153.246 172.355 148.115 173.888 144.833 170.992L142.186 173.991ZM0.0951827 24.637C-0.00773172 25.0869 -0.00592337 25.4818 0.00590285 25.7535C0.0236647 26.1615 0.0329801 26.0696 0.0363957 26.2889L4.03591 26.2266C4.03348 26.0708 4.02458 25.9288 4.01756 25.8242C4.00956 25.705 4.00498 25.6452 4.00212 25.5795C3.99714 25.4651 4.00646 25.4765 3.99447 25.5289L0.0951827 24.637ZM64.5813 94.3082C61.676 91.2273 62.8834 86.2032 66.8911 84.7639L65.5391 80.9993C58.8406 83.405 56.7719 91.8573 61.6712 97.0525L64.5813 94.3082ZM186.058 15.3867C185.613 18.091 183.179 20.011 180.435 19.8187L180.156 23.809C184.95 24.1449 189.223 20.7877 190.005 16.0356L186.058 15.3867ZM27.5672 99.3557C30.4919 98.2417 33.7882 99.5721 35.1385 102.415L38.7515 100.698C36.5135 95.9872 31.0335 93.7551 26.1435 95.6176L27.5672 99.3557ZM186.128 15.1231C186.128 15.0146 186.137 14.9061 186.154 14.7988L190.101 15.4476C190.119 15.3402 190.128 15.2316 190.128 15.1231H186.128ZM178.562 200.082C176.246 198.124 175.762 194.735 177.436 192.187L174.093 189.991C171.317 194.217 172.107 199.861 175.979 203.136L178.562 200.082ZM186.156 14.7873C186.137 14.8982 186.128 15.0105 186.128 15.1231H190.128C190.128 15.2355 190.118 15.3477 190.099 15.4585L186.156 14.7873Z" fill="black"/>
</svg>
