<svg width="214" height="262" viewBox="0 0 214 262" fill="none" xmlns="http://www.w3.org/2000/svg">
<path fill-rule="evenodd" clip-rule="evenodd" d="M138.199 7.67911C138.624 8.81798 139.951 11.8857 141.952 16.5141L141.953 16.5142C150.354 35.9425 170.647 82.8687 186.123 130.056C170.574 177.875 149.85 225.798 141.336 245.486L141.336 245.486L141.335 245.488C139.334 250.115 138.008 253.182 137.582 254.321C134.515 262.524 201.204 260.862 201.204 260.862C207.557 261.677 210.966 217.39 211.944 169.707C214.522 110.105 211.81 -0.143519 201.821 1.13832C201.821 1.13832 135.131 -0.524337 138.199 7.67911ZM75.6605 7.67911C75.2346 8.81798 73.908 11.8857 71.9065 16.5141C63.505 35.9423 43.2121 82.8686 27.7359 130.056C43.2852 177.875 64.0092 225.799 72.5228 245.486L72.5228 245.486L72.523 245.486C74.5244 250.114 75.851 253.182 76.2768 254.321C79.3442 262.524 12.6546 260.862 12.6546 260.862C6.30236 261.677 2.89298 217.39 1.91537 169.707C-0.662636 110.105 2.04917 -0.14352 12.0383 1.13832C12.0383 1.13832 78.7279 -0.524337 75.6605 7.67911Z" fill="black"/>
<path d="M141.952 16.5141L142.413 16.3201L142.411 16.3157L141.952 16.5141ZM138.199 7.67911L138.667 7.50399L138.667 7.50399L138.199 7.67911ZM141.953 16.5142L141.492 16.7083L141.494 16.7127L141.953 16.5142ZM186.123 130.056L186.599 130.211L186.649 130.056L186.598 129.901L186.123 130.056ZM141.336 245.486L141.784 245.709L141.79 245.697L141.795 245.684L141.336 245.486ZM141.336 245.486L140.889 245.262L140.884 245.273L140.879 245.284L141.336 245.486ZM141.335 245.488L140.878 245.286L140.876 245.289L141.335 245.488ZM137.582 254.321L138.051 254.496L138.051 254.496L137.582 254.321ZM201.204 260.862L201.268 260.366L201.23 260.361L201.192 260.362L201.204 260.862ZM211.944 169.707L211.444 169.685L211.444 169.697L211.944 169.707ZM201.821 1.13832L201.808 1.63816L201.846 1.63912L201.884 1.63425L201.821 1.13832ZM71.9065 16.5141L72.3654 16.7126L72.3654 16.7126L71.9065 16.5141ZM75.6605 7.67911L75.1921 7.50399L75.1921 7.50399L75.6605 7.67911ZM27.7359 130.056L27.2608 129.901L27.2099 130.056L27.2604 130.211L27.7359 130.056ZM72.5228 245.486L72.9971 245.328L72.9903 245.307L72.9817 245.287L72.5228 245.486ZM72.5228 245.486L72.0485 245.644L72.0556 245.666L72.0647 245.686L72.5228 245.486ZM72.523 245.486L72.9819 245.288L72.9811 245.286L72.523 245.486ZM76.2768 254.321L75.8085 254.496L75.8085 254.496L76.2768 254.321ZM12.6546 260.862L12.6671 260.362L12.6289 260.361L12.591 260.366L12.6546 260.862ZM1.91537 169.707L2.41539 169.697L2.4149 169.685L1.91537 169.707ZM12.0383 1.13832L11.9747 1.63425L12.0126 1.63912L12.0508 1.63816L12.0383 1.13832ZM142.411 16.3157C140.406 11.6774 139.087 8.62742 138.667 7.50399L137.73 7.85422C138.162 9.00854 139.496 12.0941 141.494 16.7126L142.411 16.3157ZM142.413 16.3202L142.413 16.3201L141.492 16.7081L141.492 16.7083L142.413 16.3202ZM186.598 129.901C171.114 82.6887 150.813 35.7435 142.411 16.3158L141.494 16.7127C149.895 36.1414 170.18 83.0487 185.648 130.212L186.598 129.901ZM141.795 245.684C150.309 225.998 171.041 178.055 186.599 130.211L185.648 129.902C170.106 177.696 149.391 225.599 140.877 245.287L141.795 245.684ZM141.783 245.709L141.784 245.709L140.889 245.262L140.889 245.262L141.783 245.709ZM141.793 245.69L141.794 245.688L140.879 245.284L140.878 245.286L141.793 245.69ZM138.051 254.496C138.471 253.373 139.789 250.324 141.794 245.686L140.876 245.289C138.88 249.907 137.545 252.992 137.114 254.146L138.051 254.496ZM201.204 260.862C201.192 260.362 201.192 260.362 201.191 260.362C201.191 260.362 201.19 260.362 201.189 260.362C201.187 260.362 201.184 260.362 201.18 260.362C201.172 260.362 201.16 260.363 201.144 260.363C201.112 260.364 201.065 260.365 201.002 260.366C200.876 260.369 200.689 260.373 200.446 260.378C199.959 260.389 199.245 260.402 198.337 260.417C196.521 260.447 193.93 260.479 190.83 260.493C184.629 260.521 176.397 260.472 168.262 260.168C160.121 259.863 152.1 259.303 146.314 258.311C143.412 257.814 141.117 257.215 139.653 256.507C138.918 256.152 138.444 255.793 138.195 255.452C137.967 255.14 137.922 254.841 138.051 254.496L137.114 254.146C136.859 254.827 136.975 255.476 137.387 256.041C137.778 256.576 138.423 257.023 139.218 257.407C140.814 258.179 143.225 258.796 146.145 259.297C152 260.3 160.076 260.862 168.224 261.167C176.378 261.472 184.626 261.521 190.834 261.493C193.939 261.479 196.534 261.446 198.353 261.417C199.263 261.402 199.978 261.388 200.467 261.378C200.711 261.373 200.898 261.369 201.025 261.366C201.088 261.365 201.136 261.363 201.168 261.363C201.184 261.362 201.196 261.362 201.204 261.362C201.209 261.362 201.212 261.362 201.214 261.362C201.215 261.362 201.216 261.362 201.216 261.362C201.217 261.362 201.217 261.362 201.204 260.862ZM211.444 169.697C210.955 193.533 209.859 216.509 208.092 233.419C207.209 241.878 206.159 248.798 204.94 253.544C204.33 255.922 203.685 257.719 203.016 258.886C202.322 260.096 201.727 260.425 201.268 260.366L201.141 261.358C202.27 261.502 203.171 260.626 203.883 259.383C204.62 258.098 205.292 256.197 205.909 253.792C207.147 248.974 208.202 241.994 209.087 233.523C210.857 216.573 211.955 193.564 212.444 169.717L211.444 169.697ZM201.884 1.63425C202.244 1.58807 202.685 1.77151 203.21 2.46682C203.73 3.15531 204.25 4.24395 204.756 5.73014C205.766 8.69391 206.676 13.0915 207.484 18.6271C209.099 29.6893 210.293 45.1932 211.095 62.6143C212.699 97.4524 212.732 139.9 211.444 169.685L212.443 169.729C213.733 139.912 213.699 97.4345 212.094 62.5683C211.292 45.1371 210.096 29.5942 208.474 18.4827C207.663 12.9315 206.743 8.46052 205.703 5.4076C205.184 3.88544 204.623 2.67869 204.008 1.86394C203.397 1.056 202.646 0.52834 201.757 0.642386L201.884 1.63425ZM138.667 7.50399C138.538 7.15932 138.584 6.8605 138.811 6.5485C139.061 6.20698 139.534 5.84828 140.269 5.49293C141.733 4.78533 144.029 4.18642 146.93 3.68909C152.716 2.69724 160.738 2.13681 168.878 1.83207C177.013 1.52755 185.246 1.47902 191.446 1.5067C194.546 1.52054 197.137 1.55342 198.953 1.58283C199.861 1.59754 200.575 1.61138 201.062 1.62154C201.306 1.62662 201.492 1.63078 201.618 1.63367C201.681 1.63511 201.729 1.63624 201.76 1.637C201.776 1.63738 201.788 1.63768 201.796 1.63787C201.8 1.63797 201.803 1.63804 201.805 1.63809C201.806 1.63812 201.807 1.63813 201.808 1.63815C201.808 1.63816 201.808 1.63816 201.821 1.13832C201.833 0.638475 201.833 0.638468 201.832 0.638454C201.832 0.638442 201.831 0.638422 201.83 0.638397C201.828 0.638345 201.825 0.63827 201.821 0.63817C201.813 0.637971 201.8 0.637675 201.784 0.637289C201.752 0.636518 201.704 0.635384 201.641 0.633932C201.515 0.631029 201.327 0.626854 201.083 0.621759C200.594 0.611569 199.879 0.597699 198.969 0.582965C197.15 0.553498 194.555 0.520571 191.451 0.506713C185.243 0.479001 176.995 0.52753 168.841 0.832772C160.692 1.1378 152.616 1.69985 146.761 2.70347C143.842 3.20388 141.43 3.82095 139.834 4.59261C139.039 4.97689 138.394 5.42365 138.004 5.95903C137.591 6.52393 137.476 7.17346 137.73 7.85422L138.667 7.50399ZM72.3654 16.7126C74.3627 12.0941 75.6972 9.00854 76.1288 7.85422L75.1921 7.50399C74.7721 8.62742 73.4534 11.6774 71.4476 16.3157L72.3654 16.7126ZM28.211 130.212C43.6792 83.0486 63.9637 36.1412 72.3654 16.7126L71.4476 16.3157C63.0462 35.7433 42.7449 82.6887 27.2608 129.901L28.211 130.212ZM72.9817 245.287C64.4678 225.599 43.7526 177.696 28.2114 129.902L27.2604 130.211C42.8178 178.055 63.5505 225.998 72.0638 245.684L72.9817 245.287ZM72.9972 245.328L72.9971 245.328L72.0484 245.644L72.0485 245.644L72.9972 245.328ZM72.9811 245.286L72.9809 245.285L72.0647 245.686L72.0649 245.687L72.9811 245.286ZM76.7451 254.146C76.3135 252.991 74.979 249.906 72.9819 245.288L72.064 245.685C74.0697 250.323 75.3884 253.373 75.8085 254.496L76.7451 254.146ZM12.6546 260.862C12.6421 261.362 12.6424 261.362 12.643 261.362C12.6435 261.362 12.6443 261.362 12.6453 261.362C12.6474 261.362 12.6505 261.362 12.6545 261.362C12.6627 261.362 12.6749 261.362 12.691 261.363C12.7232 261.363 12.7711 261.365 12.8343 261.366C12.9608 261.369 13.1482 261.373 13.3924 261.378C13.8808 261.388 14.5965 261.402 15.5061 261.417C17.3253 261.446 19.9203 261.479 23.0247 261.493C29.2327 261.521 37.4806 261.472 45.6347 261.167C53.7831 260.862 61.8593 260.3 67.7144 259.297C70.6338 258.796 73.0451 258.179 74.6413 257.407C75.4362 257.023 76.081 256.576 76.4717 256.041C76.8839 255.476 76.9997 254.827 76.7451 254.146L75.8085 254.496C75.9373 254.841 75.8916 255.14 75.6639 255.452C75.4147 255.793 74.9412 256.152 74.2061 256.507C72.7424 257.215 70.4468 257.814 67.5454 258.311C61.7589 259.303 53.7378 259.863 45.5973 260.168C37.4624 260.472 29.2296 260.521 23.0292 260.493C19.9293 260.479 17.3382 260.447 15.5223 260.417C14.6143 260.402 13.9002 260.389 13.4132 260.378C13.1698 260.373 12.9831 260.369 12.8573 260.366C12.7944 260.365 12.7468 260.364 12.7149 260.363C12.699 260.363 12.687 260.362 12.679 260.362C12.675 260.362 12.672 260.362 12.67 260.362C12.669 260.362 12.6683 260.362 12.6678 260.362C12.6673 260.362 12.6671 260.362 12.6546 260.862ZM1.41547 169.717C1.90439 193.564 3.00152 216.573 4.77221 233.523C5.65714 241.994 6.71234 248.974 7.94994 253.792C8.56742 256.197 9.23877 258.098 9.97572 259.383C10.6881 260.626 11.5894 261.502 12.7183 261.358L12.591 260.366C12.1318 260.425 11.5369 260.096 10.8432 258.886C10.174 257.719 9.52921 255.922 8.91851 253.544C7.69973 248.798 6.65043 241.878 5.76679 233.419C4.00033 216.509 2.90395 193.533 2.41526 169.697L1.41547 169.717ZM12.1019 0.642386C11.2132 0.52834 10.4617 1.05601 9.85122 1.86394C9.23556 2.67869 8.67502 3.88545 8.15634 5.4076C7.11604 8.46053 6.19561 12.9315 5.38514 18.4827C3.76286 29.5942 2.56709 45.1372 1.76469 62.5683C0.159696 97.4346 0.126156 139.912 1.41583 169.729L2.4149 169.685C1.12657 139.9 1.15993 97.4524 2.76363 62.6143C3.56557 45.1933 4.75958 29.6893 6.37465 18.6271C7.18285 13.0915 8.09298 8.69391 9.1029 5.73014C9.60932 4.24395 10.1288 3.15531 10.6491 2.46682C11.1745 1.77151 11.6148 1.58807 11.9747 1.63425L12.1019 0.642386ZM76.1288 7.85422C76.3833 7.17346 76.2676 6.52393 75.8553 5.95903C75.4647 5.42365 74.8199 4.97689 74.025 4.59261C72.4288 3.82095 70.0175 3.20388 67.098 2.70347C61.2429 1.69985 53.1668 1.1378 45.0184 0.832772C36.8643 0.527531 28.6164 0.479001 22.4084 0.506713C19.304 0.520571 16.709 0.553498 14.8898 0.582965C13.9802 0.597699 13.2645 0.611569 12.7761 0.621759C12.5319 0.626854 12.3445 0.631029 12.218 0.633932C12.1548 0.635384 12.1069 0.636518 12.0746 0.637289C12.0585 0.637675 12.0464 0.637971 12.0382 0.63817C12.0341 0.63827 12.0311 0.638346 12.029 0.638397C12.028 0.638422 12.0272 0.638442 12.0267 0.638455C12.0261 0.638468 12.0258 0.638475 12.0383 1.13832C12.0508 1.63816 12.051 1.63816 12.0515 1.63815C12.052 1.63813 12.0527 1.63812 12.0537 1.63809C12.0557 1.63804 12.0587 1.63797 12.0627 1.63787C12.0707 1.63768 12.0827 1.63738 12.0986 1.637C12.1305 1.63624 12.1781 1.63511 12.241 1.63367C12.3667 1.63078 12.5534 1.62662 12.7969 1.62154C13.2839 1.61138 13.998 1.59754 14.906 1.58283C16.7219 1.55342 19.313 1.52054 22.4128 1.5067C28.6133 1.47903 36.846 1.52755 44.981 1.83207C53.1215 2.13681 61.1426 2.69724 66.9291 3.68909C69.8305 4.18642 72.126 4.78533 73.5898 5.49293C74.3248 5.84828 74.7983 6.20698 75.0476 6.5485C75.2752 6.8605 75.321 7.15932 75.1921 7.50399L76.1288 7.85422Z" fill="white"/>
</svg>
