<svg width="262" height="262" viewBox="0 0 262 262" fill="none" xmlns="http://www.w3.org/2000/svg">
<path fill-rule="evenodd" clip-rule="evenodd" d="M169.374 7.67913C169.897 8.818 171.525 11.8858 173.981 16.5142C184.292 35.9424 209.196 82.8688 228.189 130.057C209.106 177.875 183.673 225.798 173.225 245.485L173.225 245.486C170.769 250.114 169.14 253.182 168.618 254.321C164.853 262.524 246.697 260.862 246.697 260.862C254.493 261.677 258.677 217.388 259.877 169.704C263.04 110.101 259.712 -0.143483 247.453 1.13832C247.453 1.13832 165.61 -0.524322 169.374 7.67913ZM92.6256 7.67913C92.103 8.818 90.4749 11.8858 88.0186 16.5142C77.708 35.9424 52.8039 82.8688 33.811 130.057C52.8936 177.875 78.3267 225.799 88.7748 245.486L88.7749 245.486L88.775 245.486C91.2313 250.114 92.8593 253.182 93.3819 254.321C97.1463 262.524 15.3028 260.862 15.3028 260.862C7.50692 261.677 3.32281 217.388 2.12317 169.704C-1.04033 110.101 2.28778 -0.143483 14.5465 1.13832C14.5465 1.13832 96.39 -0.524322 92.6256 7.67913Z" fill="black"/>
<path d="M173.981 16.5142L174.423 16.2798L173.981 16.5142ZM169.374 7.67913L169.829 7.4706L169.829 7.47059L169.374 7.67913ZM228.189 130.057L228.653 130.242L228.727 130.056L228.653 129.87L228.189 130.057ZM173.225 245.485L172.783 245.251L172.778 245.262L173.225 245.485ZM173.225 245.486L173.667 245.72L173.672 245.709L173.225 245.486ZM168.618 254.321L168.163 254.112L168.163 254.112L168.618 254.321ZM246.697 260.862L246.749 260.364L246.718 260.361L246.687 260.362L246.697 260.862ZM259.877 169.704L259.377 169.677L259.377 169.691L259.877 169.704ZM247.453 1.13832L247.443 1.63822L247.474 1.63885L247.505 1.63561L247.453 1.13832ZM88.0186 16.5142L88.4603 16.7486L88.4603 16.7486L88.0186 16.5142ZM92.6256 7.67913L92.1712 7.47059L92.1712 7.47059L92.6256 7.67913ZM33.811 130.057L33.3472 129.87L33.2724 130.056L33.3466 130.242L33.811 130.057ZM88.7748 245.486L88.3332 245.72L88.3449 245.742L88.3588 245.763L88.7748 245.486ZM88.7749 245.486L89.2221 245.262L89.2082 245.234L89.1909 245.209L88.7749 245.486ZM88.775 245.486L88.3277 245.71L88.3334 245.721L88.775 245.486ZM93.3819 254.321L92.9275 254.529L92.9275 254.529L93.3819 254.321ZM15.3028 260.862L15.3129 260.362L15.2818 260.361L15.2508 260.364L15.3028 260.862ZM2.12317 169.704L2.6232 169.691L2.62246 169.677L2.12317 169.704ZM14.5465 1.13832L14.4945 1.63561L14.5255 1.63885L14.5567 1.63822L14.5465 1.13832ZM174.423 16.2798C171.961 11.6404 170.343 8.59229 169.829 7.4706L168.92 7.88766C169.45 9.04372 171.089 12.1311 173.539 16.7486L174.423 16.2798ZM228.653 129.87C209.649 82.6547 184.733 35.7072 174.423 16.2798L173.539 16.7486C183.851 36.1776 208.743 83.0828 227.725 130.243L228.653 129.87ZM173.667 245.72C184.114 226.033 209.559 178.089 228.653 130.242L227.724 129.871C208.653 177.662 183.232 225.563 172.783 245.251L173.667 245.72ZM173.672 245.709L173.672 245.709L172.778 245.262L172.778 245.262L173.672 245.709ZM169.072 254.529C169.587 253.408 171.204 250.36 173.667 245.72L172.783 245.251C170.333 249.869 168.694 252.956 168.163 254.112L169.072 254.529ZM246.697 260.862C246.687 260.362 246.687 260.362 246.686 260.362C246.685 260.362 246.684 260.362 246.683 260.362C246.681 260.362 246.677 260.362 246.672 260.362C246.662 260.362 246.647 260.363 246.628 260.363C246.589 260.364 246.53 260.365 246.453 260.366C246.298 260.369 246.069 260.373 245.77 260.378C245.172 260.389 244.296 260.402 243.181 260.417C240.952 260.447 237.771 260.479 233.966 260.493C226.355 260.521 216.248 260.472 206.261 260.168C196.269 259.863 186.414 259.302 179.299 258.309C175.733 257.811 172.895 257.209 171.075 256.492C170.158 256.131 169.56 255.763 169.247 255.413C169.096 255.244 169.026 255.096 169.002 254.969C168.979 254.847 168.992 254.705 169.072 254.529L168.163 254.112C168.009 254.45 167.953 254.801 168.019 255.153C168.084 255.501 168.26 255.81 168.502 256.08C168.974 256.607 169.748 257.044 170.709 257.422C172.645 258.185 175.582 258.799 179.16 259.299C186.332 260.301 196.232 260.862 206.23 261.167C216.233 261.472 226.352 261.521 233.97 261.493C237.778 261.479 240.962 261.447 243.194 261.417C244.31 261.402 245.188 261.388 245.787 261.378C246.087 261.373 246.317 261.369 246.472 261.366C246.549 261.365 246.608 261.364 246.647 261.363C246.667 261.362 246.682 261.362 246.692 261.362C246.697 261.362 246.701 261.362 246.703 261.362C246.705 261.362 246.705 261.362 246.706 261.362C246.707 261.362 246.707 261.362 246.697 260.862ZM259.377 169.691C258.777 193.526 257.432 216.5 255.264 233.406C254.18 241.864 252.893 248.778 251.4 253.517C250.651 255.891 249.862 257.683 249.043 258.847C248.216 260.022 247.45 260.438 246.749 260.364L246.645 261.359C247.893 261.49 248.963 260.699 249.861 259.422C250.768 258.134 251.594 256.227 252.353 253.818C253.874 248.992 255.17 242.007 256.256 233.534C258.43 216.578 259.776 193.565 260.376 169.716L259.377 169.691ZM247.505 1.63561C248.059 1.57769 248.646 1.82068 249.281 2.50533C249.92 3.19456 250.556 4.28052 251.175 5.76161C252.412 8.71838 253.527 13.1092 254.519 18.6424C256.5 29.699 257.965 45.1981 258.949 62.6175C260.917 97.4514 260.958 139.895 259.377 169.677L260.376 169.73C261.959 139.91 261.917 97.4295 259.947 62.5611C258.963 45.1292 257.495 29.5825 255.503 18.4661C254.508 12.9128 253.377 8.43549 252.098 5.37579C251.459 3.84865 250.769 2.63931 250.014 1.82535C249.255 1.00681 248.38 0.538727 247.401 0.641034L247.505 1.63561ZM169.829 7.47059C169.748 7.29537 169.735 7.15343 169.758 7.03062C169.782 6.9036 169.852 6.75591 170.003 6.58735C170.317 6.23725 170.914 5.86935 171.832 5.508C173.651 4.79129 176.49 4.18946 180.055 3.69149C187.17 2.6977 197.025 2.13699 207.017 1.8322C217.005 1.52755 227.111 1.47903 234.722 1.50671C238.527 1.52055 241.708 1.55344 243.937 1.58286C245.052 1.59757 245.929 1.61142 246.527 1.62158C246.825 1.62666 247.055 1.63083 247.209 1.63372C247.286 1.63516 247.345 1.63629 247.384 1.63705C247.404 1.63744 247.419 1.63773 247.428 1.63793C247.433 1.63802 247.437 1.6381 247.439 1.63815C247.441 1.63817 247.442 1.63819 247.442 1.6382C247.443 1.63821 247.443 1.63822 247.453 1.13832C247.463 0.638426 247.463 0.63842 247.462 0.638407C247.462 0.638394 247.461 0.638374 247.46 0.638349C247.457 0.638298 247.453 0.638223 247.448 0.638124C247.438 0.637925 247.423 0.63763 247.404 0.637245C247.364 0.636474 247.305 0.635342 247.228 0.633892C247.073 0.630991 246.843 0.626818 246.544 0.621726C245.944 0.611541 245.066 0.597677 243.95 0.582947C241.719 0.553489 238.535 0.520571 234.726 0.506717C227.109 0.479012 216.99 0.527541 206.987 0.832664C196.988 1.13764 187.088 1.69942 179.917 2.7011C176.339 3.20087 173.401 3.81502 171.465 4.57758C170.505 4.95586 169.73 5.39341 169.258 5.92022C169.016 6.19011 168.841 6.49873 168.775 6.84659C168.71 7.19866 168.765 7.55017 168.92 7.88766L169.829 7.47059ZM88.4603 16.7486C90.9108 12.1311 92.5496 9.04372 93.0801 7.88766L92.1712 7.47059C91.6565 8.59229 90.0391 11.6404 87.577 16.2798L88.4603 16.7486ZM34.2749 130.243C53.2567 83.0828 78.1492 36.1776 88.4603 16.7486L87.577 16.2798C77.2667 35.7072 52.351 82.6547 33.3472 129.87L34.2749 130.243ZM89.2165 245.251C78.7678 225.563 53.3468 177.662 34.2754 129.871L33.3466 130.242C52.4405 178.089 77.8856 226.034 88.3332 245.72L89.2165 245.251ZM89.1909 245.209L89.1909 245.208L88.3588 245.763L88.3589 245.763L89.1909 245.209ZM89.2222 245.263L89.2221 245.262L88.3277 245.71L88.3278 245.71L89.2222 245.263ZM93.8364 254.112C93.3059 252.956 91.6671 249.869 89.2167 245.252L88.3334 245.721C90.7954 250.36 92.4128 253.408 92.9275 254.529L93.8364 254.112ZM15.3028 260.862C15.2926 261.362 15.293 261.362 15.2936 261.362C15.2942 261.362 15.2952 261.362 15.2965 261.362C15.299 261.362 15.3027 261.362 15.3077 261.362C15.3177 261.362 15.3326 261.362 15.3523 261.363C15.3918 261.364 15.4506 261.365 15.5281 261.366C15.6831 261.369 15.913 261.373 16.2125 261.378C16.8116 261.388 17.6896 261.402 18.8056 261.417C21.0374 261.447 24.2214 261.479 28.0302 261.493C35.6473 261.521 45.7663 261.472 55.7692 261.167C65.7676 260.862 75.6676 260.301 82.8393 259.299C86.4175 258.799 89.3552 258.185 91.291 257.422C92.2513 257.044 93.0261 256.607 93.4979 256.08C93.7396 255.81 93.9155 255.501 93.9806 255.153C94.0465 254.801 93.9912 254.45 93.8364 254.112L92.9275 254.529C93.0079 254.705 93.0207 254.847 92.9977 254.969C92.9739 255.096 92.9039 255.244 92.7529 255.413C92.4394 255.763 91.8418 256.131 90.9245 256.492C89.1051 257.209 86.2663 257.811 82.701 258.309C75.5858 259.302 65.7308 259.863 55.7388 260.168C45.7514 260.472 35.6448 260.521 28.0338 260.493C24.2287 260.479 21.048 260.447 18.8187 260.417C17.7041 260.402 16.8274 260.389 16.2295 260.378C15.9305 260.373 15.7013 260.369 15.5468 260.366C15.4696 260.365 15.411 260.364 15.3719 260.363C15.3523 260.363 15.3375 260.362 15.3277 260.362C15.3227 260.362 15.319 260.362 15.3166 260.362C15.3154 260.362 15.3144 260.362 15.3138 260.362C15.3132 260.362 15.3129 260.362 15.3028 260.862ZM1.62332 169.716C2.22332 193.565 3.56982 216.578 5.74345 233.534C6.82969 242.007 8.12545 248.992 9.64641 253.818C10.4055 256.227 11.2316 258.134 12.1385 259.422C13.037 260.699 14.1064 261.489 15.3548 261.359L15.2508 260.364C14.5502 260.438 13.7836 260.022 12.9563 258.847C12.1375 257.683 11.3484 255.891 10.6002 253.517C9.10653 248.778 7.81956 241.864 6.73533 233.406C4.56803 216.5 3.22265 193.526 2.62301 169.691L1.62332 169.716ZM14.5985 0.641035C13.6201 0.538728 12.7445 1.00681 11.9854 1.82535C11.2306 2.63931 10.5407 3.84865 9.90206 5.3758C8.62252 8.43549 7.49171 12.9128 6.49669 18.4661C4.50486 29.5825 3.03712 45.1292 2.0523 62.5611C0.0823949 97.4295 0.0411044 139.91 1.62387 169.73L2.62246 169.677C1.04173 139.895 1.08275 97.4515 3.05071 62.6175C4.03482 45.1982 5.49991 29.699 7.48101 18.6424C8.47245 13.1092 9.58814 8.71839 10.8246 5.76161C11.444 4.28052 12.0795 3.19456 12.7187 2.50533C13.3536 1.82069 13.9406 1.57769 14.4945 1.63561L14.5985 0.641035ZM93.0801 7.88766C93.2349 7.55017 93.2902 7.19866 93.2243 6.84659C93.1592 6.49873 92.9833 6.19011 92.7416 5.92022C92.2698 5.39341 91.495 4.95586 90.5347 4.57758C88.5989 3.81502 85.6612 3.20087 82.083 2.7011C74.9113 1.69942 65.0113 1.13765 55.013 0.832664C45.01 0.527542 34.891 0.479012 27.2739 0.506717C23.4651 0.520571 20.2812 0.55349 18.0493 0.582948C16.9333 0.597677 16.0553 0.611542 15.4562 0.621726C15.1567 0.626819 14.9268 0.630991 14.7718 0.633892C14.6943 0.635342 14.6355 0.636475 14.5961 0.637245C14.5763 0.63763 14.5614 0.637925 14.5515 0.638124C14.5465 0.638223 14.5427 0.638299 14.5402 0.638349C14.5389 0.638375 14.538 0.638394 14.5373 0.638407C14.5367 0.63842 14.5364 0.638427 14.5465 1.13832C14.5567 1.63822 14.557 1.63821 14.5576 1.6382C14.5582 1.63819 14.5591 1.63817 14.5603 1.63815C14.5628 1.6381 14.5665 1.63802 14.5714 1.63793C14.5812 1.63773 14.596 1.63744 14.6156 1.63705C14.6548 1.63629 14.7133 1.63516 14.7905 1.63372C14.945 1.63083 15.1743 1.62666 15.4732 1.62158C16.0712 1.61142 16.9479 1.59757 18.0625 1.58286C20.2917 1.55344 23.4724 1.52055 27.2776 1.50671C34.8885 1.47903 44.9951 1.52755 54.9825 1.8322C64.9745 2.13699 74.8295 2.6977 81.9447 3.69149C85.51 4.18946 88.3488 4.79129 90.1682 5.508C91.0855 5.86935 91.6831 6.23725 91.9966 6.58735C92.1476 6.75591 92.2176 6.9036 92.2414 7.03062C92.2644 7.15343 92.2516 7.29537 92.1712 7.47059L93.0801 7.88766Z" fill="white"/>
</svg>
