<svg width="264" height="264" viewBox="0 0 264 264" fill="none" xmlns="http://www.w3.org/2000/svg">
<path fill-rule="evenodd" clip-rule="evenodd" d="M170.374 8.67911C170.897 9.81799 172.525 12.8858 174.981 17.5142C185.076 36.5346 209.157 81.9109 227.985 128.086C228.762 129.991 228.766 132.123 227.994 134.03C209.058 180.85 184.457 227.206 174.225 246.485L174.225 246.486C171.769 251.114 170.141 254.182 169.618 255.321C166.017 263.169 240.768 261.987 247.25 261.87C247.582 261.864 247.868 261.9 248.197 261.852C255.672 260.765 259.703 217.359 260.877 170.704C263.997 111.915 260.802 3.85787 248.951 2.14777C248.622 2.10034 248.338 2.13589 248.006 2.12989C241.524 2.01279 166.773 0.830984 170.374 8.67911ZM93.6258 8.67911C93.1032 9.81799 91.4751 12.8858 89.0188 17.5142C78.9245 36.5346 54.843 81.9109 36.0147 128.086C35.2377 129.991 35.2344 132.123 36.006 134.03C54.9419 180.85 79.5435 227.207 89.775 246.486L89.7751 246.486L89.7752 246.486C92.2314 251.114 93.8595 254.182 94.3821 255.321C97.9834 263.169 23.2322 261.987 16.75 261.87C16.4179 261.864 16.1321 261.9 15.8035 261.852C8.32794 260.765 4.29707 217.359 3.12331 170.704C0.00301207 111.915 3.19824 3.85787 15.0495 2.14777C15.3782 2.10034 15.6616 2.13589 15.9937 2.12989C22.4759 2.01279 97.2271 0.830984 93.6258 8.67911Z" fill="black"/>
<path d="M174.981 17.5142L176.748 16.5766L174.981 17.5142ZM170.374 8.67911L172.192 7.845L172.192 7.84498L170.374 8.67911ZM174.225 246.485L172.459 245.548L172.447 245.569L172.436 245.591L174.225 246.485ZM174.225 246.486L175.992 247.423L176.003 247.402L176.014 247.38L174.225 246.486ZM169.618 255.321L167.8 254.487L167.8 254.487L169.618 255.321ZM260.877 170.704L258.88 170.598L258.878 170.625L258.877 170.653L260.877 170.704ZM89.0188 17.5142L90.7854 18.4517L90.7854 18.4517L89.0188 17.5142ZM93.6258 8.67911L91.808 7.84498L91.808 7.84499L93.6258 8.67911ZM89.775 246.486L88.0083 247.423L88.0553 247.512L88.1109 247.595L89.775 246.486ZM89.7751 246.486L91.5639 245.591L91.5082 245.48L91.4392 245.377L89.7751 246.486ZM89.7752 246.486L87.9863 247.381L87.9972 247.402L88.0085 247.424L89.7752 246.486ZM94.3821 255.321L92.5643 256.155L92.5643 256.155L94.3821 255.321ZM3.12331 170.704L5.12267 170.653L5.12197 170.625L5.1205 170.598L3.12331 170.704ZM248.951 2.14777L248.665 4.12727L248.951 2.14777ZM248.006 2.12989L247.97 4.12956L248.006 2.12989ZM16.75 261.87L16.7138 263.87L16.75 261.87ZM15.8035 261.852L15.5156 263.831L15.8035 261.852ZM36.0147 128.086L34.1628 127.331L36.0147 128.086ZM36.006 134.03L37.8601 133.281L37.8601 133.281L36.006 134.03ZM247.25 261.87L247.286 263.87L247.25 261.87ZM248.197 261.852L248.484 263.831L248.197 261.852ZM227.985 128.086L226.133 128.841L227.985 128.086ZM227.994 134.03L226.14 133.281L227.994 134.03ZM176.748 16.5766C174.268 11.9044 172.683 8.91514 172.192 7.845L168.557 9.51323C169.111 10.7208 170.782 13.8671 173.215 18.4517L176.748 16.5766ZM229.837 127.331C210.967 81.0517 186.841 35.5947 176.748 16.5766L173.215 18.4517C183.31 37.4745 207.347 82.7701 226.133 128.841L229.837 127.331ZM175.992 247.423C186.222 228.147 210.869 181.707 229.848 134.78L226.14 133.281C207.248 179.993 182.692 226.266 172.459 245.548L175.992 247.423ZM176.014 247.38L176.014 247.38L172.436 245.591L172.436 245.591L176.014 247.38ZM171.436 256.155C171.927 255.085 173.512 252.096 175.992 247.423L172.458 245.548C170.025 250.133 168.354 253.279 167.8 254.487L171.436 256.155ZM247.214 259.87C243.98 259.929 223.715 260.253 204.723 259.584C195.212 259.249 186.098 258.667 179.614 257.694C176.34 257.202 173.898 256.633 172.428 256.016C172.073 255.867 171.811 255.73 171.625 255.612C171.533 255.553 171.468 255.505 171.424 255.468C171.38 255.43 171.363 255.41 171.363 255.41C171.365 255.413 171.449 255.518 171.481 255.718C171.514 255.93 171.465 256.092 171.436 256.155L167.8 254.487C167.546 255.041 167.424 255.675 167.53 256.343C167.634 256.999 167.934 257.543 168.287 257.968C168.949 258.764 169.93 259.306 170.88 259.705C172.834 260.525 175.692 261.15 179.02 261.649C185.742 262.658 195.045 263.245 204.582 263.581C223.686 264.254 244.038 263.928 247.286 263.87L247.214 259.87ZM258.877 170.653C258.291 193.953 256.992 216.394 254.915 233.119C253.875 241.496 252.649 248.355 251.247 253.151C250.543 255.56 249.824 257.34 249.124 258.509C248.37 259.767 247.91 259.873 247.909 259.873L248.484 263.831C250.352 263.559 251.653 262.07 252.555 260.565C253.511 258.97 254.343 256.816 255.086 254.273C256.579 249.167 257.836 242.055 258.885 233.612C260.985 216.699 262.289 194.11 262.876 170.754L258.877 170.653ZM248.665 4.12727C248.666 4.12736 248.669 4.12784 248.675 4.12966C248.681 4.13149 248.692 4.13503 248.708 4.14168C248.739 4.15502 248.79 4.18182 248.862 4.23391C249.011 4.34189 249.219 4.5385 249.471 4.87537C249.984 5.56044 250.545 6.64067 251.122 8.17392C252.27 11.2278 253.329 15.6706 254.281 21.2738C256.179 32.4518 257.587 47.8682 258.531 65.1303C260.417 99.6398 260.436 141.279 258.88 170.598L262.874 170.81C264.438 141.339 264.419 99.5556 262.525 64.912C261.578 47.5976 260.161 32.0048 258.224 20.604C257.259 14.9177 256.149 10.1788 254.866 6.76634C254.227 5.06643 253.507 3.59236 252.673 2.47798C251.858 1.38923 250.734 0.38444 249.236 0.168275L248.665 4.12727ZM172.192 7.84498C172.221 7.90823 172.271 8.06957 172.237 8.28165C172.205 8.48245 172.121 8.58693 172.119 8.58965C172.119 8.58974 172.136 8.56969 172.18 8.53243C172.225 8.49536 172.29 8.44666 172.381 8.3884C172.567 8.26993 172.83 8.13263 173.184 7.98378C174.654 7.36693 177.096 6.79766 180.37 6.30625C186.854 5.33302 195.969 4.7513 205.479 4.4163C224.472 3.74734 244.736 4.07114 247.97 4.12956L248.042 0.130215C244.794 0.0715408 224.442 -0.254111 205.339 0.418779C195.801 0.754705 186.498 1.34174 179.777 2.35055C176.448 2.85016 173.59 3.47523 171.636 4.29548C170.686 4.69411 169.706 5.23612 169.044 6.03224C168.69 6.45738 168.39 7.00069 168.286 7.65735C168.181 8.32528 168.302 8.95949 168.557 9.51325L172.192 7.84498ZM90.7854 18.4517C93.2185 13.8671 94.8894 10.7208 95.4435 9.51324L91.808 7.84499C91.3169 8.91514 89.7317 11.9044 87.2521 16.5766L90.7854 18.4517ZM37.8667 128.841C56.6526 82.7701 80.6899 37.4745 90.7854 18.4517L87.2521 16.5766C77.1591 35.5947 53.0335 81.0517 34.1628 127.331L37.8667 128.841ZM91.5416 245.548C81.3085 226.266 56.7525 179.993 37.8601 133.281L34.1519 134.78C53.1312 181.707 77.7784 228.147 88.0083 247.423L91.5416 245.548ZM91.4392 245.377L91.4391 245.376L88.1109 247.595L88.111 247.595L91.4392 245.377ZM91.564 245.592L91.5639 245.591L87.9862 247.38L87.9863 247.381L91.564 245.592ZM96.1998 254.487C95.6457 253.279 93.9748 250.133 91.5418 245.549L88.0085 247.424C90.488 252.096 92.0732 255.085 92.5643 256.155L96.1998 254.487ZM16.7138 263.87C19.9618 263.928 40.3141 264.254 59.4178 263.581C68.9548 263.245 78.2585 262.658 84.9798 261.649C88.3085 261.15 91.1659 260.525 93.1202 259.705C94.0699 259.306 95.0508 258.764 95.7127 257.968C96.0662 257.543 96.3663 256.999 96.4701 256.343C96.5756 255.675 96.4539 255.041 96.1998 254.487L92.5643 256.155C92.5353 256.092 92.4856 255.93 92.5191 255.718C92.5509 255.518 92.6348 255.413 92.6371 255.41C92.6372 255.41 92.6203 255.43 92.5759 255.468C92.5317 255.505 92.4667 255.553 92.3752 255.612C92.1893 255.73 91.9268 255.867 91.5721 256.016C90.1025 256.633 87.6601 257.202 84.3861 257.694C77.9019 258.667 68.7878 259.249 59.277 259.584C40.2848 260.253 20.0203 259.929 16.7861 259.87L16.7138 263.87ZM1.12394 170.754C1.71153 194.11 3.01492 216.699 5.11547 233.612C6.16407 242.055 7.42097 249.167 8.91387 254.273C9.65718 256.816 10.4893 258.97 11.4448 260.565C12.3469 262.07 13.6477 263.559 15.5156 263.831L16.0913 259.873C16.0903 259.873 15.6299 259.767 14.8762 258.509C14.1757 257.34 13.4573 255.56 12.7532 253.151C11.3511 248.355 10.1253 241.496 9.08498 233.119C7.00777 216.394 5.70885 193.953 5.12267 170.653L1.12394 170.754ZM14.7638 0.168276C13.2658 0.38444 12.1424 1.38923 11.3272 2.47798C10.4929 3.59236 9.77342 5.06643 9.13436 6.76634C7.8515 10.1788 6.74146 14.9177 5.77571 20.604C3.83942 32.0048 2.42156 47.5976 1.47505 64.912C-0.418791 99.5557 -0.43807 141.339 1.12612 170.81L5.1205 170.598C3.56439 141.279 3.58258 99.6399 5.46909 65.1303C6.41274 47.8682 7.82078 32.4518 9.71924 21.2738C10.6709 15.6706 11.7304 11.2278 12.8785 8.17392C13.4549 6.64067 14.0163 5.56044 14.5292 4.87537C14.7814 4.5385 14.9891 4.34189 15.1379 4.23391C15.2098 4.18182 15.2615 4.15502 15.2924 4.14168C15.3078 4.13503 15.3186 4.13149 15.325 4.12966C15.3313 4.12785 15.3345 4.12736 15.3351 4.12727L14.7638 0.168276ZM95.4435 9.51325C95.6976 8.95949 95.8193 8.32528 95.7138 7.65735C95.61 7.00069 95.31 6.45738 94.9564 6.03224C94.2945 5.23612 93.3137 4.69411 92.3639 4.29548C90.4096 3.47523 87.5522 2.85016 84.2235 2.35055C77.5022 1.34174 68.1985 0.754705 58.6615 0.41878C39.5578 -0.25411 19.2055 0.0715411 15.9576 0.130215L16.0298 4.12956C19.2641 4.07114 39.5285 3.74734 58.5207 4.4163C68.0315 4.7513 77.1456 5.33302 83.6298 6.30625C86.9038 6.79766 89.3462 7.36693 90.8158 7.98378C91.1705 8.13263 91.433 8.26993 91.619 8.3884C91.7104 8.44666 91.7754 8.49536 91.8196 8.53243C91.864 8.56969 91.8809 8.58974 91.8808 8.58965C91.8785 8.58693 91.7946 8.48245 91.7628 8.28165C91.7293 8.06957 91.779 7.90823 91.808 7.84498L95.4435 9.51325ZM15.3351 4.12727C15.3481 4.12539 15.3813 4.1215 15.4916 4.12309C15.5598 4.12407 15.6035 4.12572 15.7077 4.12805C15.7964 4.13002 15.9073 4.13178 16.0298 4.12956L15.9576 0.130215C15.8297 0.132526 15.7931 0.127011 15.5491 0.123501C15.3524 0.120672 15.0795 0.122726 14.7638 0.168276L15.3351 4.12727ZM249.236 0.168275C248.921 0.122726 248.648 0.120672 248.451 0.123501C248.207 0.127011 248.17 0.132525 248.042 0.130215L247.97 4.12956C248.093 4.13178 248.204 4.13002 248.292 4.12805C248.397 4.12572 248.44 4.12407 248.508 4.12309C248.619 4.1215 248.652 4.12539 248.665 4.12727L249.236 0.168275ZM16.7861 259.87C16.6635 259.868 16.5525 259.87 16.4638 259.872C16.3599 259.874 16.3153 259.876 16.2472 259.877C16.1364 259.878 16.1034 259.874 16.0913 259.873L15.5156 263.831C15.8322 263.877 16.1064 263.879 16.3036 263.876C16.5492 263.873 16.5852 263.867 16.7138 263.87L16.7861 259.87ZM34.1628 127.331C33.1892 129.718 33.185 132.39 34.1519 134.78L37.8601 133.281C37.2839 131.856 37.2863 130.264 37.8667 128.841L34.1628 127.331ZM247.286 263.87C247.415 263.867 247.451 263.873 247.696 263.876C247.894 263.879 248.168 263.877 248.484 263.831L247.909 259.873C247.897 259.874 247.864 259.878 247.753 259.877C247.685 259.876 247.64 259.874 247.536 259.872C247.448 259.87 247.337 259.868 247.214 259.87L247.286 263.87ZM226.133 128.841C226.714 130.264 226.716 131.856 226.14 133.281L229.848 134.78C230.815 132.39 230.811 129.718 229.837 127.331L226.133 128.841Z" fill="white"/>
</svg>
