<svg width="262" height="262" viewBox="0 0 262 262" fill="none" xmlns="http://www.w3.org/2000/svg">
<path fill-rule="evenodd" clip-rule="evenodd" d="M3.8551 6.38006C5.33537 6.39283 9.37841 6.63979 15.4782 7.01239C53.316 9.32364 170.295 16.4691 245.645 2.53622C280.43 -3.89597 251.619 10.7822 204.128 29.5949C200.99 30.8382 198.941 33.8958 199.089 37.2684C202.3 110.579 227.989 211.085 236.588 244.726C238.047 250.434 239.014 254.217 239.296 255.616C241.222 265.179 172.109 259.219 165.038 258.585C164.619 258.547 164.227 258.589 163.834 258.44C153.032 254.342 171.059 119.051 184.988 50.4389C186.262 44.1674 180.095 38.8803 174.098 41.1137C143.415 52.5405 109.463 64.2263 80.8983 72.9004C77.1681 74.0331 74.7661 77.6688 75.2645 81.5352C83.6378 146.489 101.789 217.502 108.748 244.727L108.748 244.727C110.206 250.434 111.173 254.217 111.455 255.616C113.381 265.179 44.2686 259.219 37.1972 258.585C36.7785 258.547 36.3824 258.589 35.9898 258.439C27.1638 255.065 37.6046 164.013 49.3197 93.4174C50.2696 87.6927 45.0258 82.8757 39.3525 84.0958C26.094 86.9473 17.4472 87.6168 16.0225 85.1176C15.8179 84.7588 15.7854 84.3832 15.6719 83.986C13.6891 77.0485 -6.2848 6.29262 3.8551 6.38006Z" fill="#000080"/>
<path d="M15.4782 7.01239L15.5392 6.01425L15.4782 7.01239ZM3.8551 6.38006L3.84647 7.38003L3.84647 7.38003L3.8551 6.38006ZM245.645 2.53622L245.826 3.51955L245.826 3.51955L245.645 2.53622ZM236.588 244.726L237.557 244.479L237.557 244.479L236.588 244.726ZM239.296 255.616L240.276 255.418L240.276 255.418L239.296 255.616ZM108.748 244.727L109.718 244.484L109.716 244.479L108.748 244.727ZM108.748 244.727L107.778 244.97L107.779 244.975L108.748 244.727ZM111.455 255.616L112.435 255.418L112.435 255.418L111.455 255.616ZM49.3197 93.4174L48.3331 93.2537L49.3197 93.4174ZM39.3525 84.0958L39.1423 83.1182L39.3525 84.0958ZM37.1972 258.585L37.2865 257.589L37.1972 258.585ZM35.9898 258.439L36.3469 257.505L35.9898 258.439ZM184.988 50.4389L184.008 50.24L184.988 50.4389ZM174.098 41.1137L173.749 40.1765L174.098 41.1137ZM165.038 258.585L165.127 257.589L165.038 258.585ZM163.834 258.44L164.189 257.505L163.834 258.44ZM80.8983 72.9004L81.1888 73.8573L80.8983 72.9004ZM75.2645 81.5352L74.2727 81.663L75.2645 81.5352ZM16.0225 85.1176L16.8912 84.6224L16.0225 85.1176ZM204.128 29.5949L204.496 30.5246L204.128 29.5949ZM15.5392 6.01425C9.46172 5.64301 5.3783 5.39316 3.86372 5.3801L3.84647 7.38003C5.29244 7.39249 9.29511 7.63656 15.4173 8.01053L15.5392 6.01425ZM245.463 1.55289C170.259 15.4589 53.4134 8.32773 15.5392 6.01425L15.4173 8.01053C53.2186 10.3196 170.332 17.4793 245.826 3.51955L245.463 1.55289ZM204.496 30.5246C228.231 21.1225 247.38 12.7227 256.25 7.45869C258.454 6.15078 260.117 4.98349 261.046 3.99579C261.489 3.52435 261.915 2.94161 261.989 2.28476C262.03 1.91925 261.96 1.54538 261.75 1.21049C261.55 0.891035 261.265 0.672137 260.978 0.52087C260.429 0.230363 259.693 0.0934748 258.871 0.0351973C258.023 -0.0248952 256.974 -0.00745642 255.723 0.0831568C253.222 0.264506 249.826 0.746098 245.463 1.55289L245.826 3.51955C250.16 2.7183 253.473 2.25154 255.868 2.07792C257.066 1.99105 258.012 1.97936 258.729 2.03019C259.472 2.08283 259.869 2.19693 260.044 2.28917C260.12 2.32928 260.094 2.3347 260.055 2.27147C260.005 2.19279 259.996 2.10705 260.001 2.06055C260.003 2.0417 259.97 2.22043 259.589 2.62566C258.869 3.3913 257.421 4.43811 255.23 5.73876C246.518 10.9089 227.516 19.2546 203.76 28.6652L204.496 30.5246ZM237.557 244.479C228.952 210.813 203.294 110.413 200.088 37.2246L198.09 37.3121C201.306 110.746 227.027 211.357 235.619 244.974L237.557 244.479ZM240.276 255.418C239.988 253.986 239.011 250.165 237.557 244.479L235.619 244.974C237.084 250.703 238.04 254.447 238.316 255.813L240.276 255.418ZM164.949 259.581C168.489 259.898 187.563 261.55 205.52 261.924C214.49 262.111 223.229 261.981 229.622 261.196C232.804 260.805 235.492 260.243 237.348 259.432C238.275 259.027 239.081 258.524 239.625 257.873C240.2 257.184 240.463 256.344 240.276 255.418L238.316 255.813C238.37 256.083 238.318 256.318 238.089 256.591C237.829 256.903 237.341 257.252 236.548 257.599C234.966 258.29 232.515 258.826 229.378 259.211C223.134 259.978 214.513 260.111 205.562 259.925C187.676 259.552 168.658 257.906 165.127 257.589L164.949 259.581ZM184.008 50.24C177.037 84.5777 169.044 135.582 164.143 178.519C161.693 199.985 160.014 219.458 159.624 233.833C159.429 241.014 159.555 246.961 160.078 251.261C160.338 253.406 160.704 255.191 161.201 256.531C161.677 257.811 162.372 258.955 163.479 259.375L164.189 257.505C163.946 257.413 163.516 257.019 163.076 255.834C162.658 254.708 162.316 253.1 162.063 251.019C161.558 246.868 161.429 241.037 161.623 233.887C162.011 219.598 163.683 200.191 166.13 178.746C171.025 135.859 179.01 84.9119 185.968 50.6379L184.008 50.24ZM81.1888 73.8573C109.778 65.1758 143.749 53.4829 174.447 42.0508L173.749 40.1765C143.08 51.5981 109.149 63.2768 80.6077 71.9435L81.1888 73.8573ZM109.716 244.479C102.757 217.25 84.6208 146.292 76.2563 81.4073L74.2727 81.663C82.6549 146.685 100.821 217.754 107.779 244.974L109.716 244.479ZM109.718 244.485L109.718 244.484L107.777 244.969L107.778 244.97L109.718 244.485ZM112.435 255.418C112.147 253.986 111.17 250.165 109.717 244.479L107.779 244.975C109.243 250.703 110.2 254.447 110.475 255.813L112.435 255.418ZM37.1078 259.581C40.6481 259.898 59.7222 261.55 77.6794 261.924C86.6493 262.111 95.388 261.981 101.781 261.196C104.963 260.805 107.651 260.243 109.508 259.432C110.434 259.027 111.24 258.524 111.784 257.873C112.36 257.184 112.622 256.344 112.435 255.418L110.475 255.813C110.529 256.083 110.477 256.318 110.249 256.591C109.988 256.903 109.5 257.252 108.707 257.599C107.125 258.29 104.674 258.826 101.537 259.211C95.2929 259.978 86.6725 260.111 77.7211 259.925C59.8356 259.552 40.8177 257.906 37.2865 257.589L37.1078 259.581ZM48.3331 93.2537C42.4729 128.568 36.9302 169.005 33.9561 201.044C32.4694 217.059 31.622 231.002 31.7017 241.166C31.7415 246.242 32.0125 250.418 32.5642 253.454C32.8394 254.968 33.193 256.248 33.65 257.228C34.0947 258.181 34.7179 259.023 35.6328 259.373L36.3469 257.505C36.1585 257.433 35.829 257.168 35.4626 256.382C35.1087 255.623 34.793 254.532 34.5319 253.096C34.011 250.23 33.7411 246.188 33.7016 241.15C33.6228 231.087 34.4628 217.223 35.9475 201.229C38.9161 169.25 44.4514 128.862 50.3062 93.5811L48.3331 93.2537ZM15.1537 85.6129C15.7339 86.6306 16.9189 87.1355 18.2079 87.3938C19.545 87.6618 21.2691 87.7194 23.3026 87.6118C27.3798 87.3962 32.9175 86.5027 39.5628 85.0735L39.1423 83.1182C32.529 84.5405 27.1141 85.4075 23.197 85.6146C21.2334 85.7185 19.7001 85.6531 18.6009 85.4328C17.4535 85.2028 17.0234 84.8543 16.8912 84.6224L15.1537 85.6129ZM3.86372 5.3801C2.88735 5.37168 2.09165 5.81111 1.51276 6.53803C0.96575 7.22492 0.618065 8.15443 0.392949 9.19326C-0.0586457 11.2772 -0.0929865 14.1775 0.147385 17.5643C0.630196 24.367 2.25087 33.4767 4.23969 42.7582C8.22089 61.3378 13.7178 80.7877 14.7104 84.2608L16.6334 83.7112C15.6432 80.2468 10.1618 60.85 6.1953 42.3392C4.21028 33.0754 2.61478 24.079 2.14237 17.4227C1.90512 14.08 1.95841 11.4127 2.34758 9.61683C2.54285 8.71574 2.80384 8.1273 3.07727 7.78395C3.31883 7.48062 3.55536 7.37752 3.84647 7.38003L3.86372 5.3801ZM50.3062 93.5811C51.3766 87.1304 45.4755 81.7561 39.1423 83.1182L39.5628 85.0735C44.576 83.9953 49.1627 88.255 48.3331 93.2537L50.3062 93.5811ZM37.2865 257.589C37.1537 257.577 37.028 257.572 36.9238 257.568C36.812 257.564 36.7308 257.561 36.649 257.556C36.4926 257.546 36.4088 257.528 36.3469 257.505L35.6328 259.373C35.9635 259.499 36.274 259.536 36.5185 259.552C36.6371 259.56 36.758 259.563 36.8505 259.567C36.9505 259.57 37.0313 259.574 37.1078 259.581L37.2865 257.589ZM185.968 50.6379C187.397 43.6003 180.484 37.6683 173.749 40.1765L174.447 42.0508C179.706 40.0922 185.126 44.7346 184.008 50.24L185.968 50.6379ZM165.127 257.589C164.994 257.577 164.869 257.572 164.765 257.568C164.653 257.564 164.572 257.562 164.491 257.556C164.336 257.546 164.252 257.529 164.189 257.505L163.479 259.375C163.809 259.5 164.118 259.536 164.362 259.552C164.48 259.56 164.6 259.563 164.692 259.567C164.792 259.57 164.872 259.574 164.949 259.581L165.127 257.589ZM80.6077 71.9435C76.4202 73.2151 73.7106 77.3022 74.2727 81.663L76.2563 81.4073C75.8217 78.0354 77.916 74.8511 81.1888 73.8573L80.6077 71.9435ZM16.8912 84.6224C16.8528 84.5549 16.8202 84.4694 16.7822 84.3198C16.7603 84.2336 16.6889 83.9054 16.6334 83.7112L14.7104 84.2608C14.7684 84.4638 14.77 84.5219 14.8438 84.8125C14.9016 85.0397 14.9876 85.3215 15.1537 85.6129L16.8912 84.6224ZM203.76 28.6652C200.239 30.0601 197.923 33.4995 198.09 37.3121L200.088 37.2246C199.959 34.2921 201.741 31.6163 204.496 30.5246L203.76 28.6652Z" fill="white"/>
</svg>
