<svg width="264" height="264" viewBox="0 0 264 264" fill="none" xmlns="http://www.w3.org/2000/svg">
<path fill-rule="evenodd" clip-rule="evenodd" d="M4.8551 7.38006C6.33537 7.39283 10.3784 7.63979 16.4782 8.01239C54.316 10.3236 171.295 17.4691 246.645 3.53622C281.43 -2.89597 252.619 11.7822 205.128 30.5949C201.99 31.8382 199.941 34.8958 200.089 38.2684C203.3 111.579 228.989 212.085 237.588 245.726C239.047 251.434 240.014 255.217 240.296 256.616C242.222 266.179 173.109 260.219 166.038 259.585C165.619 259.547 165.227 259.589 164.834 259.44C154.032 255.342 172.059 120.051 185.988 51.4389C187.262 45.1674 181.095 39.8803 175.098 42.1137C144.415 53.5405 110.463 65.2263 81.8983 73.9004C78.1681 75.0331 75.7661 78.6688 76.2645 82.5352C84.6378 147.489 102.789 218.502 109.748 245.727L109.748 245.727C111.206 251.434 112.173 255.217 112.455 256.616C114.381 266.179 45.2686 260.219 38.1972 259.585C37.7785 259.547 37.3824 259.589 36.9898 259.439C28.1638 256.065 38.6046 165.013 50.3197 94.4174C51.2696 88.6927 46.0258 83.8757 40.3525 85.0958C27.094 87.9473 18.4472 88.6168 17.0225 86.1176C16.8179 85.7588 16.7854 85.3832 16.6719 84.986C14.6891 78.0485 -5.2848 7.29262 4.8551 7.38006Z" fill="#000080"/>
<path d="M16.4782 8.01239L16.6002 6.01611L16.4782 8.01239ZM4.8551 7.38006L4.83785 9.37999L4.83785 9.37999L4.8551 7.38006ZM246.645 3.53622L247.008 5.50288L247.008 5.50288L246.645 3.53622ZM237.588 245.726L239.526 245.231L239.526 245.231L237.588 245.726ZM240.296 256.616L242.256 256.221L242.256 256.221L240.296 256.616ZM109.748 245.727L111.688 245.241L111.685 245.231L109.748 245.727ZM109.748 245.727L107.807 246.212L107.81 246.222L109.748 245.727ZM112.455 256.616L114.416 256.221L114.416 256.221L112.455 256.616ZM50.3197 94.4174L48.3466 94.09L50.3197 94.4174ZM40.3525 85.0958L39.932 83.1406L40.3525 85.0958ZM38.1972 259.585L38.3759 257.593L38.1972 259.585ZM36.9898 259.439L37.7039 257.57L36.9898 259.439ZM185.988 51.4389L184.028 51.041L185.988 51.4389ZM175.098 42.1137L174.4 40.2394L175.098 42.1137ZM166.038 259.585L166.217 257.593L166.038 259.585ZM164.834 259.44L165.543 257.57L164.834 259.44ZM81.8983 73.9004L82.4794 75.8141L81.8983 73.9004ZM76.2645 82.5352L74.2809 82.7909L76.2645 82.5352ZM17.0225 86.1176L18.76 85.1271L17.0225 86.1176ZM205.128 30.5949L205.865 32.4544L205.128 30.5949ZM16.6002 6.01611C10.545 5.64624 6.42124 5.39349 4.87234 5.38014L4.83785 9.37999C6.24951 9.39216 10.2118 9.63334 16.3563 10.0087L16.6002 6.01611ZM246.281 1.56956C171.222 15.4488 54.5108 8.33181 16.6002 6.01611L16.3563 10.0087C54.1212 12.3155 171.369 19.4895 247.008 5.50288L246.281 1.56956ZM205.865 32.4544C229.589 23.0565 248.812 14.6297 257.761 9.31865C259.971 8.00711 261.741 6.77959 262.774 5.68086C263.249 5.17632 263.87 4.39156 263.982 3.39687C264.047 2.82535 263.937 2.22168 263.598 1.68C263.278 1.1692 262.837 0.843567 262.446 0.636721C261.708 0.247081 260.803 0.0987948 259.941 0.0377013C259.029 -0.0270223 257.927 -0.00671207 256.651 0.0857735C254.096 0.27099 250.659 0.76 246.281 1.56956L247.008 5.50288C251.326 4.70439 254.599 4.24505 256.94 4.07531C258.113 3.99031 259.007 3.98149 259.659 4.02769C260.361 4.07751 260.59 4.18021 260.577 4.17332C260.547 4.15785 260.366 4.05653 260.207 3.80196C260.028 3.5165 259.979 3.20096 260.008 2.94844C260.048 2.59175 260.21 2.56847 259.86 2.9406C259.245 3.5952 257.905 4.58178 255.719 5.8788C247.087 11.002 228.159 19.3206 204.391 28.7355L205.865 32.4544ZM239.526 245.231C230.915 211.541 205.287 111.246 202.087 38.1808L198.091 38.3559C201.313 111.913 227.064 212.629 235.651 246.222L239.526 245.231ZM242.256 256.221C241.961 254.756 240.974 250.896 239.526 245.231L235.651 246.222C237.12 251.972 238.067 255.678 238.335 257.011L242.256 256.221ZM165.859 261.577C169.404 261.895 188.506 263.549 206.499 263.924C215.478 264.111 224.276 263.983 230.744 263.189C233.948 262.795 236.754 262.219 238.749 261.348C239.741 260.914 240.707 260.334 241.392 259.514C242.141 258.617 242.509 257.474 242.256 256.221L238.335 257.011C238.337 257.021 238.331 256.985 238.345 256.934C238.357 256.889 238.369 256.894 238.322 256.95C238.203 257.093 237.874 257.365 237.148 257.682C235.703 258.313 233.371 258.836 230.256 259.218C224.086 259.976 215.525 260.112 206.583 259.925C188.733 259.553 169.743 257.909 166.217 257.593L165.859 261.577ZM184.028 51.041C177.051 85.4106 169.053 136.444 164.15 179.405C161.699 200.881 160.015 220.388 159.624 234.805C159.429 242.002 159.553 248.008 160.085 252.381C160.35 254.558 160.726 256.433 161.264 257.879C161.757 259.207 162.585 260.726 164.125 261.31L165.543 257.57C165.733 257.642 165.436 257.623 165.013 256.486C164.635 255.467 164.305 253.948 164.056 251.899C163.56 247.821 163.429 242.049 163.623 234.914C164.009 220.668 165.677 201.295 168.124 179.859C173.016 136.997 180.996 86.079 187.948 51.8369L184.028 51.041ZM82.4794 75.8141C111.093 67.1253 145.084 55.4254 175.796 43.9879L174.4 40.2394C143.745 51.6556 109.834 63.3273 81.3172 71.9867L82.4794 75.8141ZM111.685 245.231C104.724 217.997 86.6037 147.095 78.2481 82.2794L74.2809 82.7909C82.672 147.882 100.854 219.007 107.81 246.222L111.685 245.231ZM111.688 245.242L111.688 245.241L107.807 246.212L107.807 246.212L111.688 245.242ZM114.416 256.221C114.121 254.756 113.133 250.896 111.685 245.232L107.81 246.222C109.28 251.972 110.226 255.678 110.495 257.011L114.416 256.221ZM38.0185 261.577C41.5633 261.895 60.6656 263.549 78.6586 263.924C87.6377 264.111 96.4356 263.983 102.903 263.189C106.108 262.795 108.914 262.219 110.908 261.348C111.901 260.914 112.866 260.334 113.551 259.514C114.301 258.617 114.668 257.474 114.416 256.221L110.495 257.011C110.497 257.021 110.49 256.985 110.504 256.934C110.517 256.889 110.528 256.894 110.481 256.95C110.362 257.093 110.034 257.365 109.307 257.682C107.863 258.313 105.53 258.836 102.416 259.218C96.2453 259.976 87.6842 260.112 78.742 259.925C60.8923 259.553 41.9024 257.909 38.3759 257.593L38.0185 261.577ZM48.3466 94.09C42.4836 129.421 36.9373 169.882 33.9604 201.951C32.4728 217.977 31.6217 231.959 31.7017 242.174C31.7417 247.268 32.0132 251.513 32.5803 254.632C32.8626 256.185 33.2351 257.56 33.7438 258.65C34.2275 259.688 34.9975 260.818 36.2757 261.307L37.7039 257.57C37.8788 257.637 37.6961 257.661 37.3689 256.96C37.0665 256.311 36.7698 255.314 36.5158 253.917C36.0103 251.136 35.741 247.162 35.7016 242.143C35.6231 232.13 36.4595 218.305 37.9432 202.321C40.909 170.372 46.4406 130.01 52.2927 94.7448L48.3466 94.09ZM15.285 87.1081C16.0891 88.5187 17.6517 89.1018 19.0114 89.3743C20.4674 89.6661 22.287 89.7198 24.3555 89.6104C28.5126 89.3906 34.1117 88.4838 40.773 87.0511L39.932 83.1406C33.3348 84.5594 27.9813 85.4131 24.1442 85.616C22.2155 85.718 20.7777 85.6487 19.7974 85.4523C18.7208 85.2365 18.6682 84.9661 18.76 85.1271L15.285 87.1081ZM4.87234 5.38014C3.55334 5.36876 2.47806 5.97636 1.73051 6.91507C1.04671 7.77373 0.655672 8.87378 0.415633 9.98147C-0.0671714 12.2094 -0.0920416 15.2263 0.149894 18.6351C0.637902 25.511 2.27116 34.6773 4.26189 43.9677C8.25045 62.5817 13.755 82.0582 14.7488 85.5356L18.5949 84.4364C17.606 80.9763 12.1322 61.6062 8.1731 43.1296C6.18999 33.8748 4.60708 24.9349 4.13986 18.3519C3.90418 15.0313 3.96693 12.4805 4.3249 10.8286C4.50524 9.99639 4.72288 9.57849 4.85953 9.4069C4.91542 9.33671 4.93143 9.341 4.89534 9.35929C4.85322 9.38064 4.82225 9.37985 4.83785 9.37999L4.87234 5.38014ZM52.2927 94.7448C53.4836 87.5681 46.9253 81.6365 39.932 83.1406L40.773 87.0511C45.1262 86.1149 49.0557 89.8173 48.3466 94.09L52.2927 94.7448ZM38.3759 257.593C38.215 257.578 38.0668 257.572 37.9604 257.569C37.839 257.564 37.7776 257.562 37.7142 257.558C37.6018 257.551 37.6314 257.543 37.7039 257.57L36.2757 261.307C36.7409 261.485 37.1648 261.531 37.4533 261.55C37.5903 261.559 37.731 261.563 37.8139 261.566C37.9117 261.569 37.9701 261.572 38.0185 261.577L38.3759 257.593ZM187.948 51.8369C189.533 44.0331 181.873 37.4563 174.4 40.2394L175.796 43.9879C180.317 42.3042 184.991 46.3017 184.028 51.041L187.948 51.8369ZM166.217 257.593C166.055 257.578 165.908 257.572 165.801 257.569C165.679 257.564 165.619 257.562 165.555 257.558C165.444 257.551 165.473 257.543 165.543 257.57L164.125 261.31C164.588 261.486 165.009 261.531 165.297 261.55C165.434 261.559 165.574 261.563 165.656 261.566C165.753 261.57 165.811 261.572 165.859 261.577L166.217 257.593ZM81.3172 71.9867C76.6724 73.3971 73.655 77.9355 74.2809 82.7909L78.2481 82.2794C77.8772 79.4021 79.6639 76.6691 82.4794 75.8141L81.3172 71.9867ZM18.76 85.1271C18.7853 85.1716 18.7795 85.1843 18.7514 85.0734C18.7349 85.0088 18.7222 84.9504 18.695 84.8321C18.6711 84.7284 18.6383 84.5884 18.5949 84.4364L14.7488 85.5356C14.8081 85.743 14.7748 85.6661 14.8747 86.0589C14.9423 86.3249 15.055 86.7048 15.285 87.1081L18.76 85.1271ZM204.391 28.7355C200.487 30.282 197.904 34.1032 198.091 38.3559L202.087 38.1808C201.978 35.6884 203.492 33.3944 205.865 32.4544L204.391 28.7355Z" fill="white"/>
</svg>
