<svg width="262" height="262" viewBox="0 0 262 262" fill="none" xmlns="http://www.w3.org/2000/svg">
<path fill-rule="evenodd" clip-rule="evenodd" d="M11.0669 206.993L11.0695 206.991L11.0697 206.991C26.8922 194.542 60.5138 168.089 95.4104 137.122C98.9618 133.97 98.9631 128.432 95.4132 125.279C60.3553 94.1388 26.5117 67.5111 10.6211 55.0087L10.6211 55.0086C5.8786 51.2773 2.73524 48.8042 1.63593 47.8447C-5.88629 41.2793 55.6846 5.2301 61.8645 1.6393C62.2242 1.43029 62.5169 1.17623 62.9175 1.06388C69.7515 -0.852984 96.7514 40.6507 123.982 87.9566C127.088 93.3527 134.912 93.3527 138.018 87.9567C165.249 40.6507 192.249 -0.853056 199.083 1.06383C199.483 1.17618 199.776 1.43023 200.136 1.63925C206.315 5.23003 267.886 41.2792 260.364 47.8447C259.265 48.8041 256.122 51.2771 251.38 55.0081L251.379 55.0086L251.379 55.0087C235.488 67.5112 201.645 94.1389 166.587 125.279C163.037 128.432 163.038 133.97 166.59 137.122C201.486 168.09 235.108 194.543 250.931 206.991C255.673 210.723 258.816 213.196 259.916 214.155C267.438 220.721 205.867 256.77 199.687 260.361C199.327 260.57 199.035 260.824 198.634 260.936C191.838 262.843 165.095 221.802 138.016 174.819C134.909 169.428 127.091 169.428 123.984 174.819C96.9052 221.802 70.1625 262.843 63.3659 260.936C62.9653 260.824 62.6726 260.57 62.3129 260.361C56.1331 256.77 -5.43787 220.721 2.08436 214.155C3.18347 213.196 6.32589 210.724 11.0669 206.993Z" fill="#006400"/>
<path d="M11.0695 206.991L10.4799 206.184L10.4664 206.193L10.4534 206.204L11.0695 206.991ZM11.0669 206.993L10.4508 206.206L10.4486 206.207L11.0669 206.993ZM11.0697 206.991L11.6594 207.799L11.6739 207.788L11.6881 207.777L11.0697 206.991ZM10.6211 55.0087L10.0007 55.7929L10.0028 55.7946L10.6211 55.0087ZM10.6211 55.0086L11.2415 54.2244L11.2394 54.2227L10.6211 55.0086ZM1.63593 47.8447L0.978367 48.5981L0.978368 48.5981L1.63593 47.8447ZM260.364 47.8447L259.707 47.0913L259.707 47.0913L260.364 47.8447ZM251.38 55.0081L250.761 54.2221L250.753 54.2286L251.38 55.0081ZM251.379 55.0086L250.753 54.2291L250.746 54.2347L250.739 54.2404L251.379 55.0086ZM251.379 55.0087L251.997 55.7946L252.008 55.7859L252.019 55.7769L251.379 55.0087ZM250.931 206.991L250.312 207.777L250.312 207.777L250.931 206.991ZM259.916 214.155L260.573 213.402L260.573 213.402L259.916 214.155ZM2.08436 214.155L2.74193 214.909L2.74193 214.909L2.08436 214.155ZM199.687 260.361L199.185 259.496L199.687 260.361ZM198.634 260.936L198.364 259.973L198.634 260.936ZM95.4104 137.122L94.7466 136.374L95.4104 137.122ZM95.4132 125.279L94.7491 126.027L95.4132 125.279ZM166.587 125.279L165.923 124.531L166.587 125.279ZM166.59 137.122L167.253 136.374L166.59 137.122ZM199.083 1.06383L199.353 0.100986L199.083 1.06383ZM200.136 1.63925L199.633 2.50388L200.136 1.63925ZM138.016 174.819L137.15 175.318L138.016 174.819ZM123.984 174.819L123.117 174.319L123.984 174.819ZM61.8645 1.6393L62.3669 2.50394L61.8645 1.6393ZM62.9175 1.06388L63.1876 2.02672L62.9175 1.06388ZM63.3659 260.936L63.0958 261.899L63.3659 260.936ZM62.3129 260.361L61.8105 261.225L62.3129 260.361ZM138.018 87.9567L138.885 88.4555L138.018 87.9567ZM10.4534 206.204L10.4508 206.206L11.683 207.781L11.6856 207.779L10.4534 206.204ZM10.4801 206.184L10.4799 206.184L11.6591 207.799L11.6594 207.799L10.4801 206.184ZM94.7466 136.374C59.874 167.32 26.2727 193.757 10.4514 206.205L11.6881 207.777C27.5117 195.327 61.1535 168.859 96.0741 137.87L94.7466 136.374ZM96.0773 124.531C60.9953 93.3697 27.1312 66.7261 11.2395 54.2228L10.0028 55.7946C25.8922 68.2961 59.7154 94.9079 94.7491 126.027L96.0773 124.531ZM11.2416 54.2245L11.2415 54.2244L10.0006 55.7928L10.0007 55.7929L11.2416 54.2245ZM11.2394 54.2227C6.47983 50.4779 3.36766 48.0288 2.2935 47.0913L0.978368 48.5981C2.10282 49.5795 5.27738 52.0767 10.0027 55.7945L11.2394 54.2227ZM2.2935 47.0913C2.07528 46.9008 1.98152 46.6857 2.00285 46.3459C2.02772 45.9496 2.21724 45.3853 2.66747 44.6373C3.56462 43.1468 5.2861 41.2663 7.67559 39.1013C12.4313 34.7924 19.5665 29.5912 27.1716 24.4552C42.3672 14.1932 59.2808 4.2971 62.3669 2.50394L61.3621 0.774663C58.2683 2.5723 41.3065 12.4962 26.0523 22.7978C18.4324 27.9437 11.199 33.2101 6.33272 37.6192C3.9112 39.8132 2.00829 41.8542 0.953939 43.6059C0.428419 44.479 0.0604169 45.3659 0.00677309 46.2206C-0.0504199 47.132 0.256306 47.9679 0.978367 48.5981L2.2935 47.0913ZM63.1876 2.02672C63.344 1.98283 63.6248 1.97573 64.0894 2.14422C64.5509 2.31156 65.1208 2.62636 65.8011 3.11764C67.1617 4.10014 68.8281 5.68811 70.7687 7.84813C74.6424 12.1597 79.4799 18.6036 84.9763 26.6173C95.9628 42.6354 109.505 64.8119 123.115 88.4555L124.849 87.4578C111.228 63.7954 97.6553 41.5672 86.6257 25.4861C81.114 17.4502 76.2183 10.9211 72.2565 6.51147C70.2794 4.31092 68.5024 2.60132 66.972 1.4962C66.2068 0.943672 65.4693 0.517142 64.7712 0.26401C64.0763 0.0120274 63.3452 -0.0946847 62.6474 0.101036L63.1876 2.02672ZM199.353 0.100986C198.655 -0.0947363 197.924 0.0119742 197.229 0.263955C196.531 0.517087 195.793 0.943616 195.028 1.49614C193.498 2.60126 191.721 4.31086 189.744 6.51142C185.782 10.921 180.886 17.4502 175.374 25.486C164.345 41.5671 150.772 63.7954 137.151 87.4578L138.885 88.4555C152.495 64.8119 166.037 42.6353 177.024 26.6173C182.52 18.6036 187.358 12.1596 191.231 7.84807C193.172 5.68805 194.838 4.10009 196.199 3.11759C196.879 2.6263 197.449 2.31151 197.911 2.14417C198.375 1.97568 198.656 1.98278 198.813 2.02667L199.353 0.100986ZM261.022 48.5981C261.744 47.9678 262.051 47.1319 261.993 46.2206C261.94 45.3658 261.572 44.4789 261.046 43.6058C259.992 41.8542 258.089 39.8132 255.667 37.6192C250.801 33.2101 243.568 27.9436 235.948 22.7977C220.694 12.4961 203.732 2.57223 200.638 0.774607L199.633 2.50388C202.719 4.29704 219.633 14.1931 234.829 24.4552C242.434 29.5911 249.569 34.7924 254.325 39.1013C256.714 41.2663 258.435 43.1468 259.333 44.6373C259.783 45.3852 259.972 45.9495 259.997 46.3459C260.019 46.6857 259.925 46.9008 259.707 47.0913L261.022 48.5981ZM251.998 55.794C256.723 52.0764 259.897 49.5794 261.022 48.598L259.707 47.0913C258.632 48.0287 255.521 50.4777 250.761 54.2222L251.998 55.794ZM252.005 55.7881L252.006 55.7876L250.753 54.2286L250.753 54.2291L252.005 55.7881ZM252.019 55.7769L252.019 55.7768L250.739 54.2404L250.739 54.2405L252.019 55.7769ZM167.251 126.027C202.285 94.908 236.108 68.2962 251.997 55.7946L250.761 54.2228C234.869 66.7262 201.005 93.3698 165.923 124.531L167.251 126.027ZM165.926 137.87C200.847 168.859 234.489 195.328 250.312 207.777L251.549 206.206C235.728 193.758 202.126 167.32 167.253 136.374L165.926 137.87ZM250.312 207.777C255.072 211.522 258.184 213.971 259.258 214.909L260.573 213.402C259.449 212.421 256.274 209.923 251.549 206.205L250.312 207.777ZM259.258 214.909C259.476 215.099 259.57 215.314 259.549 215.654C259.524 216.05 259.334 216.615 258.884 217.363C257.987 218.853 256.266 220.734 253.876 222.899C249.12 227.208 241.985 232.409 234.38 237.545C219.184 247.807 202.271 257.703 199.185 259.496L200.19 261.225C203.283 259.428 220.245 249.504 235.499 239.202C243.119 234.056 250.353 228.79 255.219 224.381C257.64 222.187 259.543 220.146 260.598 218.394C261.123 217.521 261.491 216.634 261.545 215.779C261.602 214.868 261.295 214.032 260.573 213.402L259.258 214.909ZM198.364 259.973C198.209 260.017 197.93 260.024 197.47 259.859C197.012 259.694 196.447 259.383 195.773 258.898C194.423 257.928 192.771 256.359 190.846 254.222C187.005 249.958 182.208 243.581 176.755 235.645C165.857 219.782 152.417 197.802 138.883 174.319L137.15 175.318C150.695 198.819 164.165 220.851 175.107 236.777C180.574 244.736 185.43 251.198 189.36 255.561C191.322 257.738 193.085 259.429 194.605 260.522C195.365 261.069 196.098 261.49 196.792 261.74C197.483 261.989 198.21 262.094 198.904 261.899L198.364 259.973ZM63.0958 261.899C63.7899 262.094 64.5168 261.989 65.208 261.74C65.9022 261.49 66.6352 261.068 67.3951 260.522C68.9149 259.429 70.6785 257.738 72.6398 255.561C76.5701 251.198 81.4256 244.736 86.8933 236.777C97.8351 220.851 111.305 198.819 124.85 175.318L123.117 174.319C109.583 197.802 96.1432 219.782 85.2449 235.645C79.7925 243.581 74.9956 249.958 71.1539 254.222C69.2292 256.359 67.5768 257.928 66.2275 258.898C65.5528 259.383 64.9879 259.694 64.5304 259.858C64.07 260.024 63.7915 260.017 63.636 259.973L63.0958 261.899ZM1.42679 213.402C0.704732 214.032 0.398006 214.868 0.455199 215.779C0.508843 216.634 0.876845 217.521 1.40237 218.394C2.45672 220.146 4.35963 222.187 6.78116 224.381C11.6475 228.79 18.8809 234.056 26.5007 239.202C41.7549 249.504 58.7168 259.428 61.8105 261.225L62.8153 259.496C59.7292 257.703 42.8157 247.807 27.62 237.545C20.0149 232.409 12.8798 227.208 8.12402 222.899C5.73453 220.734 4.01304 218.853 3.1159 217.363C2.66567 216.615 2.47615 216.05 2.45127 215.654C2.42995 215.314 2.52371 215.099 2.74193 214.909L1.42679 213.402ZM10.4486 206.207C5.72467 209.924 2.55104 212.421 1.42679 213.402L2.74193 214.909C3.81589 213.971 6.92711 211.523 11.6853 207.779L10.4486 206.207ZM199.185 259.496C199.019 259.593 198.719 259.792 198.651 259.833C198.518 259.916 198.436 259.953 198.364 259.973L198.904 261.899C199.233 261.807 199.497 261.661 199.701 261.536C199.97 261.37 199.996 261.338 200.19 261.225L199.185 259.496ZM96.0741 137.87C100.074 134.32 100.075 128.083 96.0773 124.531L94.7491 126.027C97.851 128.782 97.8498 133.62 94.7466 136.374L96.0741 137.87ZM165.923 124.531C161.925 128.083 161.926 134.32 165.926 137.87L167.253 136.374C164.15 133.62 164.149 128.782 167.251 126.027L165.923 124.531ZM198.813 2.02667C198.884 2.04673 198.967 2.0845 199.1 2.16657C199.167 2.20801 199.467 2.4074 199.633 2.50388L200.638 0.774607C200.444 0.662082 200.418 0.629935 200.149 0.464014C199.946 0.338717 199.682 0.19328 199.353 0.100986L198.813 2.02667ZM138.883 174.319C135.391 168.261 126.609 168.261 123.117 174.319L124.85 175.318C127.573 170.594 134.427 170.594 137.15 175.318L138.883 174.319ZM62.3669 2.50394C62.5329 2.40745 62.8331 2.20807 62.9004 2.16662C63.0335 2.08455 63.116 2.04678 63.1876 2.02672L62.6474 0.101036C62.3184 0.193329 62.0542 0.338768 61.851 0.464065C61.5818 0.629989 61.5558 0.662136 61.3621 0.774663L62.3669 2.50394ZM63.636 259.973C63.5644 259.953 63.482 259.915 63.3488 259.833C63.2816 259.792 62.9814 259.593 62.8153 259.496L61.8105 261.225C62.0042 261.338 62.0302 261.37 62.2994 261.536C62.5027 261.661 62.7668 261.807 63.0958 261.899L63.636 259.973ZM123.115 88.4555C126.606 94.5197 135.394 94.5197 138.885 88.4555L137.151 87.4578C134.43 92.1856 127.57 92.1856 124.849 87.4578L123.115 88.4555Z" fill="white"/>
</svg>
