<svg width="262" height="262" viewBox="0 0 262 262" fill="none" xmlns="http://www.w3.org/2000/svg">
<path fill-rule="evenodd" clip-rule="evenodd" d="M137.606 2.43452C137.356 3.63437 136.851 6.95194 136.087 11.9572L136.087 11.9574C133.806 26.9183 129.225 56.9574 122.317 90.5918C98.3595 51.6183 75.2432 18.5795 70.2936 22.3518C70.2936 22.3518 9.3829 55.5225 16.4092 61.3143C17.3843 62.118 20.1717 64.1892 24.3771 67.3141L24.3808 67.3169L24.382 67.3177L24.3824 67.3181C36.9609 76.6645 62.2161 95.4305 89.6044 117.898C41.8872 118.005 0.0327148 120.393 1.01712 126.327C1.01712 126.327 0.979126 192.731 9.80327 189.88C11.0283 189.484 14.3235 188.239 19.2949 186.361L19.2952 186.36C34.155 180.746 63.9911 169.473 98.2877 158.306C74.5278 197.387 55.7895 232.813 61.7235 234.975C61.7235 234.975 122.596 268.208 124.394 259.565C124.644 258.366 125.15 255.048 125.913 250.043L125.913 250.042C128.194 235.081 132.775 205.042 139.683 171.408C163.641 210.382 186.757 243.42 191.706 239.648C191.706 239.648 252.617 206.477 245.591 200.686C244.615 199.882 241.827 197.809 237.619 194.683L237.618 194.682L237.618 194.682L237.618 194.682C225.039 185.335 199.784 166.569 172.396 144.102C220.113 143.994 261.967 141.607 260.983 135.673C260.983 135.673 261.021 69.2692 252.197 72.1201C250.972 72.5159 247.677 73.7609 242.705 75.6393L242.705 75.6394C227.845 81.2539 198.009 92.5269 163.713 103.694C187.472 64.6127 206.211 29.1869 200.277 27.0248C200.277 27.0248 139.404 -6.20809 137.606 2.43452Z" fill="url(#paint0_linear_36_63)"/>
<path d="M136.087 11.9572L135.097 11.8166L135.099 11.8065L136.087 11.9572ZM137.606 2.43452L136.627 2.23086L136.627 2.23086L137.606 2.43452ZM136.087 11.9574L137.077 12.098L137.076 12.1081L136.087 11.9574ZM122.317 90.5918L123.297 90.793L122.788 93.268L121.465 91.1155L122.317 90.5918ZM70.2936 22.3518L70.8997 23.1471L70.839 23.1934L70.7718 23.23L70.2936 22.3518ZM16.4092 61.3143L15.7732 62.0859L15.7732 62.0859L16.4092 61.3143ZM24.3771 67.3141L23.7819 68.1177L23.7807 68.1168L24.3771 67.3141ZM24.3808 67.3169L23.786 68.1207L23.7856 68.1204L24.3808 67.3169ZM24.382 67.3177L24.9768 66.5139L24.982 66.5177L24.382 67.3177ZM24.3824 67.3181L23.786 68.1207L23.7824 68.1181L24.3824 67.3181ZM89.6044 117.898L90.2386 117.125L92.3925 118.891L89.6067 118.898L89.6044 117.898ZM1.01712 126.327L2.00364 126.163L2.01717 126.245L2.01712 126.328L1.01712 126.327ZM9.80327 189.88L10.1107 190.831L10.1107 190.831L9.80327 189.88ZM19.2949 186.361L18.9414 185.425L18.9599 185.418L18.9787 185.412L19.2949 186.361ZM19.2952 186.36L19.6486 187.296L19.6301 187.303L19.6114 187.309L19.2952 186.36ZM98.2877 158.306L97.9781 157.355L100.544 156.519L99.1421 158.825L98.2877 158.306ZM61.7235 234.975L62.0659 234.036L62.1366 234.061L62.2027 234.098L61.7235 234.975ZM124.394 259.565L123.415 259.362L123.415 259.362L124.394 259.565ZM125.913 250.043L126.907 250.153L126.904 250.173L126.901 250.194L125.913 250.043ZM125.913 250.042L124.919 249.932L124.921 249.912L124.924 249.892L125.913 250.042ZM139.683 171.408L138.704 171.207L139.212 168.732L140.535 170.884L139.683 171.408ZM191.706 239.648L191.1 238.853L191.161 238.806L191.228 238.77L191.706 239.648ZM245.591 200.686L246.227 199.914L246.227 199.914L245.591 200.686ZM237.619 194.683L237.023 195.485L237.021 195.485L237.619 194.683ZM237.618 194.682L238.206 193.873L238.216 193.88L237.618 194.682ZM237.618 194.682L238.183 193.857L238.195 193.865L238.206 193.873L237.618 194.682ZM237.618 194.682L237.052 195.507L237.037 195.496L237.021 195.485L237.618 194.682ZM172.396 144.102L171.761 144.875L169.607 143.108L172.393 143.102L172.396 144.102ZM260.983 135.673L259.996 135.836L259.983 135.755L259.983 135.672L260.983 135.673ZM252.197 72.1201L252.504 73.0717L252.504 73.0717L252.197 72.1201ZM242.705 75.6393L242.311 74.7202L242.331 74.7116L242.352 74.7039L242.705 75.6393ZM242.705 75.6394L243.099 76.5585L243.079 76.5671L243.058 76.5748L242.705 75.6394ZM163.713 103.694L164.022 104.645L161.456 105.48L162.858 103.174L163.713 103.694ZM200.277 27.0248L199.934 27.9643L199.863 27.9386L199.797 27.9025L200.277 27.0248ZM135.099 11.8065C135.858 6.82391 136.37 3.46519 136.627 2.23086L138.585 2.63817C138.343 3.80355 137.843 7.07998 137.076 12.108L135.099 11.8065ZM135.097 11.8168L135.097 11.8166L137.077 12.0978L137.077 12.098L135.097 11.8168ZM121.337 90.3906C128.24 56.7832 132.817 26.7658 135.099 11.8066L137.076 12.1081C134.794 27.0708 130.21 57.1316 123.297 90.793L121.337 90.3906ZM121.465 91.1155C109.492 71.6378 97.7411 53.6633 88.3742 41.0379C83.6859 34.7186 79.6211 29.7755 76.4411 26.6561C74.8436 25.089 73.5214 24.0345 72.4946 23.4835C71.4056 22.8991 71.0143 23.0598 70.8997 23.1471L69.6874 21.5564C70.8103 20.7006 72.2241 21.0686 73.4403 21.7212C74.7186 22.4072 76.2015 23.6194 77.8416 25.2283C81.1366 28.4606 85.2763 33.5057 89.9805 39.8463C99.3985 52.5406 111.185 70.5723 123.169 90.0682L121.465 91.1155ZM70.2936 22.3518C70.7718 23.23 70.7717 23.2301 70.7712 23.2303C70.7708 23.2306 70.7702 23.2309 70.7693 23.2314C70.7675 23.2324 70.7648 23.2338 70.7612 23.2358C70.7539 23.2398 70.743 23.2457 70.7286 23.2536C70.6996 23.2694 70.6563 23.2931 70.599 23.3244C70.4846 23.387 70.3146 23.4801 70.0931 23.602C69.6499 23.8456 69.0004 24.204 68.176 24.6624C66.527 25.5791 64.1786 26.8956 61.3822 28.4935C55.7882 31.6899 48.4071 36.0097 41.2486 40.5078C34.0806 45.012 27.1723 49.6724 22.5035 53.5521C20.1565 55.5025 18.4447 57.1998 17.5343 58.5393C17.0751 59.215 16.8853 59.7064 16.8508 60.0289C16.824 60.2787 16.883 60.4089 17.0453 60.5426L15.7732 62.0859C15.0571 61.4957 14.7686 60.6881 14.8622 59.8157C14.9479 59.0159 15.3463 58.2008 15.8802 57.4152C16.956 55.8321 18.8501 53.9877 21.2253 52.0139C26.0011 48.0452 33.0031 43.3269 40.1845 38.8144C47.3754 34.2959 54.7828 29.961 60.3899 26.757C63.1941 25.1546 65.5495 23.8343 67.2041 22.9144C68.0315 22.4544 68.6837 22.0945 69.1294 21.8494C69.3522 21.7269 69.5234 21.6331 69.6391 21.5698C69.6969 21.5382 69.7408 21.5142 69.7703 21.4981C69.7851 21.49 69.7963 21.4839 69.8038 21.4798C69.8076 21.4778 69.8104 21.4762 69.8123 21.4752C69.8133 21.4747 69.814 21.4743 69.8145 21.474C69.815 21.4737 69.8153 21.4736 70.2936 22.3518ZM17.0453 60.5426C17.9949 61.3254 20.7509 63.3737 24.9736 66.5115L23.7807 68.1168C19.5926 65.0048 16.7737 62.9106 15.7732 62.0859L17.0453 60.5426ZM24.9724 66.5106L24.9761 66.5133L23.7856 68.1204L23.7819 68.1177L24.9724 66.5106ZM24.9757 66.513L24.9768 66.5139L23.7871 68.1216L23.786 68.1207L24.9757 66.513ZM24.982 66.5177L24.9824 66.5181L23.7824 68.1181L23.782 68.1177L24.982 66.5177ZM24.9789 66.5154C37.5586 75.8628 62.8304 94.641 90.2386 117.125L88.9702 118.671C61.6018 96.22 36.3632 77.4662 23.786 68.1207L24.9789 66.5154ZM89.6067 118.898C65.7577 118.952 43.3959 119.575 27.1303 120.924C18.9894 121.599 12.4183 122.452 7.96115 123.495C5.72121 124.019 4.08886 124.575 3.0684 125.14C1.96172 125.753 1.99633 126.119 2.00364 126.163L0.030601 126.491C-0.208189 125.051 0.91903 124.044 2.09924 123.391C3.36568 122.689 5.21449 122.084 7.50556 121.548C12.1105 120.47 18.8007 119.608 26.965 118.931C43.3099 117.575 65.7339 116.952 89.6022 116.898L89.6067 118.898ZM1.01712 126.327C2.01712 126.328 2.01712 126.328 2.01712 126.328C2.01712 126.329 2.01712 126.329 2.01712 126.33C2.01712 126.332 2.01712 126.335 2.01712 126.339C2.01712 126.347 2.01712 126.359 2.01713 126.375C2.01714 126.406 2.01718 126.453 2.01728 126.516C2.01748 126.641 2.01791 126.826 2.01884 127.068C2.02071 127.552 2.0246 128.263 2.03268 129.166C2.04885 130.972 2.08177 133.551 2.14882 136.636C2.28296 142.809 2.55352 151.004 3.09888 159.105C3.64504 167.219 4.46407 175.193 5.68592 180.945C6.30003 183.835 6.99877 186.078 7.76969 187.488C8.15662 188.196 8.51572 188.607 8.81311 188.809C9.06546 188.981 9.26371 189.003 9.49584 188.928L10.1107 190.831C9.2398 191.113 8.40428 190.95 7.68773 190.462C7.01623 190.005 6.47133 189.282 6.0148 188.447C5.09881 186.772 4.3528 184.294 3.72958 181.36C2.47676 175.463 1.65076 167.371 1.1034 159.24C0.555245 151.097 0.283792 142.869 0.149297 136.68C0.0820328 133.584 0.0489901 130.997 0.0327625 129.184C0.0246484 128.277 0.0207376 127.563 0.0188555 127.076C0.0179144 126.832 0.0174805 126.645 0.0172819 126.519C0.0171826 126.456 0.0171422 126.408 0.0171266 126.376C0.0171188 126.359 0.0171172 126.347 0.0171176 126.339C0.0171179 126.335 0.0171185 126.332 0.0171192 126.33C0.0171195 126.329 0.0171199 126.328 0.0171201 126.327C0.0171203 126.327 0.0171205 126.326 1.01712 126.327ZM9.49583 188.928C10.6905 188.542 13.9505 187.311 18.9414 185.425L19.6483 187.296C14.6964 189.167 11.3661 190.426 10.1107 190.831L9.49583 188.928ZM18.9787 185.412L18.9789 185.412L19.6114 187.309L19.6111 187.309L18.9787 185.412ZM18.9417 185.425C33.803 179.81 63.6577 168.53 97.9781 157.355L98.5973 159.257C64.3244 170.416 34.5069 181.682 19.6486 187.296L18.9417 185.425ZM61.3812 235.915C60.0167 235.418 59.6263 234.024 59.6164 232.67C59.6062 231.264 59.9803 229.433 60.6356 227.287C61.9536 222.971 64.5116 217.06 67.9736 210.043C74.9057 195.992 85.5478 177.336 97.4332 157.786L99.1421 158.825C87.2676 178.357 76.6607 196.955 69.7672 210.928C66.3164 217.922 63.8175 223.716 62.5484 227.871C61.9103 229.961 61.6084 231.558 61.6164 232.656C61.6248 233.806 61.9469 233.992 62.0659 234.036L61.3812 235.915ZM125.373 259.769C125.184 260.68 124.581 261.296 123.785 261.634C123.041 261.95 122.121 262.033 121.141 261.989C119.167 261.902 116.538 261.278 113.54 260.322C107.516 258.401 99.6898 255.035 91.9607 251.417C84.2221 247.795 76.5435 243.904 70.8018 240.92C67.9304 239.428 65.5421 238.162 63.8712 237.268C63.0357 236.822 62.3796 236.468 61.932 236.226C61.7082 236.105 61.5366 236.012 61.4208 235.949C61.3629 235.918 61.3189 235.894 61.2893 235.877C61.2746 235.869 61.2634 235.863 61.2559 235.859C61.2521 235.857 61.2493 235.856 61.2474 235.855C61.2464 235.854 61.2456 235.854 61.2452 235.853C61.2446 235.853 61.2444 235.853 61.7235 234.975C62.2027 234.098 62.2029 234.098 62.2033 234.098C62.2038 234.098 62.2044 234.098 62.2053 234.099C62.2071 234.1 62.2098 234.101 62.2134 234.103C62.2206 234.107 62.2315 234.113 62.246 234.121C62.275 234.137 62.3184 234.161 62.3757 234.192C62.4903 234.254 62.6607 234.346 62.8832 234.467C63.3282 234.707 63.9816 235.059 64.8142 235.504C66.4793 236.395 68.8607 237.657 71.7242 239.146C77.4523 242.123 85.1043 246 92.8085 249.606C100.522 253.216 108.252 256.537 114.147 258.417C117.108 259.361 119.53 259.916 121.229 259.991C122.085 260.029 122.658 259.94 123.003 259.793C123.296 259.669 123.38 259.531 123.415 259.362L125.373 259.769ZM126.901 250.194C126.142 255.176 125.63 258.535 125.373 259.769L123.415 259.362C123.657 258.196 124.158 254.92 124.924 249.892L126.901 250.194ZM126.907 250.153L126.907 250.153L124.919 249.932L124.919 249.932L126.907 250.153ZM140.663 171.609C133.76 205.217 129.183 235.234 126.901 250.193L124.924 249.892C127.206 234.929 131.79 204.868 138.704 171.207L140.663 171.609ZM140.535 170.884C152.508 190.362 164.259 208.337 173.626 220.962C178.314 227.281 182.379 232.224 185.559 235.344C187.156 236.911 188.479 237.965 189.505 238.516C190.594 239.101 190.986 238.94 191.1 238.853L192.313 240.443C191.19 241.299 189.776 240.931 188.56 240.279C187.281 239.593 185.799 238.38 184.158 236.772C180.863 233.539 176.724 228.494 172.02 222.154C162.602 209.459 150.816 191.428 138.831 171.932L140.535 170.884ZM191.706 239.648C191.228 238.77 191.228 238.77 191.229 238.77C191.229 238.769 191.23 238.769 191.231 238.768C191.233 238.767 191.235 238.766 191.239 238.764C191.246 238.76 191.257 238.754 191.271 238.746C191.3 238.73 191.344 238.707 191.401 238.675C191.515 238.613 191.685 238.52 191.907 238.398C192.35 238.154 193 237.796 193.824 237.337C195.473 236.421 197.821 235.104 200.618 233.506C206.212 230.31 213.593 225.99 220.751 221.492C227.919 216.988 234.828 212.327 239.497 208.448C241.844 206.497 243.555 204.8 244.466 203.461C244.925 202.785 245.115 202.293 245.149 201.971C245.176 201.721 245.117 201.591 244.955 201.457L246.227 199.914C246.943 200.504 247.231 201.312 247.138 202.184C247.052 202.984 246.654 203.799 246.12 204.585C245.044 206.168 243.15 208.012 240.775 209.986C235.999 213.955 228.997 218.673 221.816 223.185C214.625 227.704 207.217 232.039 201.61 235.243C198.806 236.845 196.451 238.166 194.796 239.085C193.969 239.545 193.316 239.905 192.871 240.15C192.648 240.273 192.477 240.367 192.361 240.43C192.303 240.462 192.259 240.486 192.23 240.502C192.215 240.51 192.204 240.516 192.196 240.52C192.192 240.522 192.19 240.524 192.188 240.525C192.187 240.525 192.186 240.526 192.186 240.526C192.185 240.526 192.185 240.526 191.706 239.648ZM244.955 201.457C244.005 200.674 241.247 198.625 237.023 195.485L238.215 193.88C242.406 196.994 245.226 199.089 246.227 199.914L244.955 201.457ZM237.021 195.485L237.02 195.484L238.216 193.88L238.217 193.881L237.021 195.485ZM237.03 195.491L237.03 195.491L238.206 193.873L238.206 193.873L237.03 195.491ZM237.052 195.507L237.052 195.507L238.183 193.857L238.183 193.857L237.052 195.507ZM237.021 195.485C224.442 186.137 199.17 167.359 171.761 144.875L173.03 143.329C200.398 165.78 225.637 184.534 238.214 193.879L237.021 195.485ZM172.393 143.102C196.242 143.048 218.604 142.425 234.87 141.076C243.011 140.401 249.582 139.547 254.039 138.505C256.279 137.981 257.911 137.425 258.932 136.86C260.038 136.247 260.004 135.881 259.996 135.836L261.97 135.509C262.208 136.949 261.081 137.955 259.901 138.609C258.634 139.311 256.786 139.916 254.495 140.452C249.89 141.529 243.199 142.392 235.035 143.069C218.69 144.424 196.266 145.048 172.398 145.102L172.393 143.102ZM260.983 135.673C259.983 135.672 259.983 135.672 259.983 135.672C259.983 135.671 259.983 135.67 259.983 135.669C259.983 135.668 259.983 135.665 259.983 135.661C259.983 135.653 259.983 135.641 259.983 135.625C259.983 135.594 259.983 135.546 259.983 135.484C259.983 135.359 259.982 135.174 259.981 134.932C259.979 134.448 259.976 133.737 259.967 132.834C259.951 131.027 259.918 128.449 259.851 125.364C259.717 119.191 259.447 110.996 258.901 102.895C258.355 94.7813 257.536 86.8069 256.314 81.0553C255.7 78.1645 255.001 75.9223 254.23 74.5121C253.843 73.8043 253.484 73.3931 253.187 73.1907C252.935 73.0189 252.736 72.9967 252.504 73.0717L251.889 71.1686C252.76 70.8872 253.596 71.0496 254.312 71.5374C254.984 71.9945 255.529 72.7176 255.985 73.5527C256.901 75.2283 257.647 77.7061 258.271 80.6397C259.523 86.537 260.349 94.629 260.897 102.76C261.445 110.903 261.716 119.131 261.851 125.32C261.918 128.415 261.951 131.002 261.967 132.816C261.975 133.723 261.979 134.437 261.981 134.924C261.982 135.168 261.983 135.355 261.983 135.481C261.983 135.544 261.983 135.592 261.983 135.624C261.983 135.64 261.983 135.653 261.983 135.661C261.983 135.665 261.983 135.668 261.983 135.67C261.983 135.671 261.983 135.672 261.983 135.673C261.983 135.673 261.983 135.673 260.983 135.673ZM252.504 73.0717C251.31 73.4577 248.05 74.689 243.059 76.5748L242.352 74.7039C247.304 72.8328 250.634 71.5742 251.889 71.1686L252.504 73.0717ZM243.099 76.5585L243.099 76.5585L242.311 74.7202L242.311 74.7202L243.099 76.5585ZM243.058 76.5748C228.197 82.1899 198.343 93.47 164.022 104.645L163.403 102.743C197.676 91.5838 227.493 80.3179 242.352 74.7039L243.058 76.5748ZM200.619 26.0852C201.983 26.5824 202.374 27.9756 202.384 29.3297C202.394 30.7361 202.02 32.5666 201.364 34.7127C200.047 39.0286 197.489 44.9398 194.027 51.9571C187.095 66.0081 176.452 84.6639 164.567 104.213L162.858 103.174C174.733 83.6428 185.339 65.0451 192.233 51.0723C195.684 44.0777 198.183 38.2844 199.452 34.1286C200.09 32.0389 200.392 30.4417 200.384 29.3443C200.375 28.1945 200.053 28.0077 199.934 27.9643L200.619 26.0852ZM136.627 2.23086C136.816 1.31988 137.419 0.70415 138.215 0.366023C138.959 0.0498667 139.879 -0.032826 140.859 0.0107406C142.833 0.0984259 145.462 0.721849 148.461 1.6779C154.485 3.59865 162.31 6.96548 170.039 10.583C177.778 14.2049 185.457 18.0958 191.198 21.0799C194.07 22.5722 196.458 23.8384 198.129 24.7318C198.964 25.1785 199.621 25.532 200.068 25.774C200.292 25.895 200.464 25.9881 200.579 26.051C200.637 26.0825 200.681 26.1064 200.711 26.1225C200.726 26.1306 200.737 26.1367 200.744 26.1408C200.748 26.1428 200.751 26.1444 200.753 26.1454C200.754 26.1459 200.754 26.1464 200.755 26.1466C200.755 26.1469 200.756 26.1471 200.277 27.0248C199.797 27.9025 199.797 27.9024 199.797 27.9022C199.796 27.9019 199.796 27.9016 199.795 27.9011C199.793 27.9001 199.79 27.8986 199.787 27.8967C199.779 27.8927 199.769 27.8868 199.754 27.8789C199.725 27.8631 199.682 27.8395 199.624 27.8084C199.51 27.7461 199.339 27.6536 199.117 27.5333C198.672 27.2927 198.018 26.9407 197.186 26.4955C195.521 25.6052 193.139 24.3427 190.276 22.8545C184.548 19.8775 176.896 16.0003 169.192 12.3944C161.478 8.78397 153.748 5.46307 147.853 3.58339C144.892 2.63922 142.47 2.08426 140.771 2.00877C139.915 1.97075 139.342 2.06028 138.997 2.20682C138.704 2.33138 138.62 2.46883 138.585 2.63817L136.627 2.23086Z" fill="white"/>
<defs>
<linearGradient id="paint0_linear_36_63" x1="34.5" y1="43" x2="222.5" y2="221.5" gradientUnits="userSpaceOnUse">
<stop stop-color="#FF0000"/>
<stop offset="0.166667" stop-color="#FFA500"/>
<stop offset="0.333333" stop-color="#FFFF00"/>
<stop offset="0.5" stop-color="#008000"/>
<stop offset="0.666667" stop-color="#0000FF"/>
<stop offset="0.833333" stop-color="#4B0082"/>
<stop offset="1" stop-color="#EE82EE"/>
</linearGradient>
</defs>
</svg>
