<svg width="264" height="264" viewBox="0 0 264 264" fill="none" xmlns="http://www.w3.org/2000/svg">
<path fill-rule="evenodd" clip-rule="evenodd" d="M138.606 3.43452C138.356 4.63437 137.851 7.95194 137.087 12.9572L137.087 12.9574C134.806 27.9183 130.225 57.9574 123.317 91.5918C99.3595 52.6183 76.2432 19.5795 71.2936 23.3518C71.2936 23.3518 10.3829 56.5225 17.4092 62.3143C18.3843 63.118 21.1717 65.1892 25.3771 68.3141L25.3808 68.3169L25.382 68.3177L25.3824 68.3181C37.9609 77.6645 63.2161 96.4305 90.6044 118.898C42.8872 119.005 1.03271 121.393 2.01712 127.327C2.01712 127.327 1.97913 193.731 10.8033 190.88C12.0283 190.484 15.3235 189.239 20.2949 187.361L20.2952 187.36C35.155 181.746 64.9911 170.473 99.2877 159.306C75.5278 198.387 56.7895 233.813 62.7235 235.975C62.7235 235.975 123.596 269.208 125.394 260.565C125.644 259.366 126.15 256.048 126.913 251.043L126.913 251.042C129.194 236.081 133.775 206.042 140.683 172.408C164.641 211.382 187.757 244.42 192.706 240.648C192.706 240.648 253.617 207.477 246.591 201.686C245.615 200.882 242.827 198.809 238.619 195.683L238.618 195.682L238.618 195.682L238.618 195.682C226.039 186.335 200.784 167.569 173.396 145.102C221.113 144.994 262.967 142.607 261.983 136.673C261.983 136.673 262.021 70.2692 253.197 73.1201C251.972 73.5159 248.677 74.7609 243.705 76.6393L243.705 76.6394C228.845 82.2539 199.009 93.5269 164.713 104.694C188.472 65.6127 207.211 30.1869 201.277 28.0248C201.277 28.0248 140.404 -5.20809 138.606 3.43452Z" fill="url(#paint0_linear_36_63)"/>
<path d="M137.087 12.9572L135.107 12.676L135.109 12.6659L135.11 12.6557L137.087 12.9572ZM138.606 3.43452L136.648 3.0272L136.648 3.0272L138.606 3.43452ZM137.087 12.9574L139.067 13.2386L139.066 13.2488L139.064 13.2589L137.087 12.9574ZM123.317 91.5918L125.276 91.9942L124.259 96.9441L121.613 92.6392L123.317 91.5918ZM71.2936 23.3518L72.5059 24.9425L72.3843 25.0351L72.2501 25.1082L71.2936 23.3518ZM17.4092 62.3143L16.1371 63.8576L16.1371 63.8576L17.4092 62.3143ZM25.3771 68.3141L24.1867 69.9212L24.1843 69.9195L25.3771 68.3141ZM25.3808 68.3169L24.1912 69.9246L24.1904 69.924L25.3808 68.3169ZM25.382 68.3177L26.5717 66.71L26.582 66.7177L25.382 68.3177ZM25.3824 68.3181L24.1896 69.9234L24.1824 69.9181L25.3824 68.3181ZM90.6044 118.898L91.8729 117.351L96.1806 120.885L90.6089 120.898L90.6044 118.898ZM2.01712 127.327L3.99016 127L4.01721 127.163L4.01712 127.328L2.01712 127.327ZM10.8033 190.88L11.4182 192.783L11.4181 192.783L10.8033 190.88ZM20.2949 187.361L19.588 185.49L19.625 185.476L19.6624 185.463L20.2949 187.361ZM20.2952 187.36L21.0021 189.231L20.9651 189.245L20.9276 189.258L20.2952 187.36ZM99.2877 159.306L98.6684 157.404L103.8 155.733L100.997 160.345L99.2877 159.306ZM62.7235 235.975L63.4082 234.096L63.5497 234.148L63.6819 234.22L62.7235 235.975ZM125.394 260.565L123.436 260.158L123.436 260.158L125.394 260.565ZM126.913 251.043L128.901 251.264L128.896 251.304L128.89 251.344L126.913 251.043ZM126.913 251.042L124.925 250.822L124.93 250.781L124.936 250.741L126.913 251.042ZM140.683 172.408L138.724 172.006L139.741 167.056L142.387 171.361L140.683 172.408ZM192.706 240.648L191.494 239.057L191.616 238.965L191.75 238.892L192.706 240.648ZM246.591 201.686L247.863 200.142L247.863 200.142L246.591 201.686ZM238.619 195.683L237.426 197.288L237.424 197.286L238.619 195.683ZM238.618 195.682L239.794 194.065L239.804 194.072L239.813 194.079L238.618 195.682ZM238.618 195.682L239.749 194.033L239.772 194.048L239.794 194.065L238.618 195.682ZM238.618 195.682L237.487 197.331L237.455 197.31L237.425 197.287L238.618 195.682ZM173.396 145.102L172.127 146.648L167.819 143.115L173.391 143.102L173.396 145.102ZM261.983 136.673L260.01 137L259.983 136.837L259.983 136.672L261.983 136.673ZM253.197 73.1201L253.812 75.0233L253.812 75.0233L253.197 73.1201ZM243.705 76.6393L242.917 74.801L242.957 74.7838L242.998 74.7684L243.705 76.6393ZM243.705 76.6394L244.493 78.4777L244.453 78.4949L244.412 78.5103L243.705 76.6394ZM164.713 104.694L165.332 106.596L160.2 108.267L163.004 103.655L164.713 104.694ZM201.277 28.0248L200.592 29.9039L200.45 29.8524L200.318 29.7802L201.277 28.0248ZM135.11 12.6557C135.866 7.69587 136.384 4.29601 136.648 3.0272L140.564 3.84183C140.329 4.97273 139.835 8.20801 139.064 13.2587L135.11 12.6557ZM135.107 12.6762L135.107 12.676L139.067 13.2384L139.067 13.2386L135.107 12.6762ZM121.358 91.1895C128.255 57.609 132.829 27.6133 135.11 12.6559L139.064 13.2589C136.782 28.2233 132.195 58.3059 125.276 91.9942L121.358 91.1895ZM121.613 92.6392C109.646 73.1706 97.9124 55.2246 88.5711 42.6338C83.8907 36.3251 79.8634 31.433 76.7408 28.3699C75.1647 26.8238 73.9228 25.8482 73.0217 25.3647C71.9963 24.8144 72.1163 25.2394 72.5059 24.9425L70.0813 21.7611C71.7083 20.5211 73.6334 21.1533 74.9131 21.8401C76.3172 22.5935 77.8805 23.8846 79.5419 25.5144C82.8944 28.8031 87.0716 33.8993 91.7836 40.2504C101.227 52.9793 113.031 71.0395 125.021 90.5445L121.613 92.6392ZM71.2936 23.3518C72.2501 25.1082 72.25 25.1083 72.2496 25.1085C72.2492 25.1087 72.2486 25.109 72.2477 25.1095C72.246 25.1104 72.2434 25.1119 72.2399 25.1138C72.2328 25.1177 72.222 25.1235 72.2077 25.1314C72.179 25.147 72.136 25.1705 72.079 25.2017C71.9652 25.264 71.7958 25.3568 71.5749 25.4782C71.133 25.7212 70.4849 26.0789 69.6619 26.5364C68.0158 27.4516 65.6708 28.766 62.8783 30.3617C57.2909 33.5544 49.9229 37.8666 42.7806 42.3546C35.6193 46.8545 28.7579 51.486 24.1427 55.3212C21.8097 57.2599 20.189 58.8836 19.3614 60.1014C18.9396 60.7221 18.8541 61.0516 18.8451 61.1355C18.8435 61.1505 18.8526 61.0783 18.8087 60.9656C18.7628 60.8481 18.6971 60.784 18.6813 60.771L16.1371 63.8576C15.1442 63.0391 14.7409 61.8928 14.8679 60.7091C14.9792 59.6707 15.4818 58.6937 16.0531 57.8531C17.2116 56.1483 19.1969 54.2303 21.5862 52.2448C26.4155 48.2316 33.4644 43.4844 40.6524 38.9677C47.8596 34.439 55.2801 30.0965 60.8938 26.8887C63.7019 25.2841 66.0607 23.9619 67.7182 23.0404C68.547 22.5796 69.2006 22.2189 69.6476 21.9732C69.8711 21.8503 70.0429 21.7561 70.1591 21.6926C70.2172 21.6608 70.2614 21.6366 70.2912 21.6203C70.3062 21.6122 70.3175 21.606 70.3251 21.6018C70.329 21.5998 70.3319 21.5982 70.3339 21.5971C70.3349 21.5965 70.3357 21.5961 70.3362 21.5958C70.3367 21.5955 70.3371 21.5953 71.2936 23.3518ZM18.6813 60.771C19.6055 61.5328 22.33 63.5582 26.57 66.7088L24.1843 69.9195C20.0135 66.8203 17.163 64.7032 16.1371 63.8576L18.6813 60.771ZM26.5676 66.707L26.5713 66.7098L24.1904 69.924L24.1867 69.9212L26.5676 66.707ZM26.5705 66.7092L26.5717 66.71L24.1923 69.9254L24.1912 69.9246L26.5705 66.7092ZM26.582 66.7177L26.5824 66.7181L24.1824 69.9181L24.182 69.9177L26.582 66.7177ZM26.5753 66.7127C39.1563 76.0611 64.4446 94.8515 91.8729 117.351L89.336 120.444C61.9875 98.0096 36.7655 79.268 24.1896 69.9234L26.5753 66.7127ZM90.6089 120.898C66.7697 120.952 44.4389 121.575 28.2129 122.921C20.0838 123.595 13.5722 124.443 9.18894 125.469C6.97457 125.987 5.45045 126.518 4.55298 127.015C3.48307 127.608 4.09859 127.653 3.99016 127L0.0440816 127.654C-0.310447 125.517 1.39768 124.19 2.61466 123.516C4.00409 122.746 5.96114 122.116 8.27776 121.574C12.9566 120.479 19.7063 119.612 27.8824 118.934C44.2669 117.576 66.7219 116.952 90.5999 116.898L90.6089 120.898ZM2.01712 127.327C4.01712 127.328 4.01712 127.328 4.01712 127.329C4.01712 127.329 4.01712 127.33 4.01712 127.331C4.01712 127.333 4.01712 127.335 4.01712 127.339C4.01712 127.347 4.01712 127.359 4.01713 127.374C4.01714 127.405 4.01718 127.452 4.01728 127.514C4.01747 127.638 4.0179 127.823 4.01883 128.064C4.0207 128.547 4.02458 129.255 4.03264 130.157C4.04877 131.96 4.08164 134.534 4.14859 137.615C4.28254 143.779 4.55266 151.957 5.09662 160.038C5.64218 168.142 6.45772 176.058 7.66409 181.737C8.27365 184.606 8.94874 186.731 9.64713 188.008C9.99926 188.652 10.2655 188.907 10.3758 188.982C10.4138 189.008 10.3936 188.986 10.3224 188.974C10.2892 188.969 10.2566 188.968 10.2283 188.97C10.2006 188.973 10.1864 188.977 10.1884 188.977L11.4181 192.783C10.2278 193.167 9.07369 192.935 8.12504 192.289C7.26648 191.705 6.62869 190.826 6.13736 189.927C5.14883 188.119 4.37918 185.523 3.75141 182.568C2.48311 176.598 1.65362 168.447 1.10566 160.307C0.556108 152.143 0.284208 143.899 0.149533 137.701C0.0821622 134.601 0.049062 132.01 0.0328025 130.193C0.0246722 129.284 0.0207511 128.569 0.0188629 128.08C0.0179188 127.835 0.0174829 127.648 0.0172831 127.521C0.0171833 127.457 0.0171425 127.409 0.0171267 127.376C0.0171188 127.36 0.0171172 127.347 0.0171177 127.339C0.0171179 127.335 0.0171186 127.332 0.0171192 127.329C0.0171196 127.328 0.0171199 127.327 0.0171202 127.327C0.0171205 127.326 0.0171207 127.326 2.01712 127.327ZM10.1884 188.977C11.3527 188.6 14.5776 187.383 19.588 185.49L21.0018 189.231C16.0693 191.095 12.704 192.367 11.4182 192.783L10.1884 188.977ZM19.6624 185.463L19.6627 185.463L20.9276 189.258L20.9273 189.258L19.6624 185.463ZM19.5883 185.49C34.4511 179.874 64.3244 168.587 98.6684 157.404L99.9069 161.208C65.6578 172.359 35.8589 183.618 21.0021 189.231L19.5883 185.49ZM62.0389 237.854C60.0515 237.13 59.6271 235.134 59.6165 233.678C59.6051 232.117 60.0153 230.169 60.6792 227.995C62.0216 223.599 64.6092 217.629 68.0768 210.6C75.0281 196.51 85.6879 177.825 97.5787 158.267L100.997 160.345C89.1275 179.868 78.5383 198.436 71.664 212.37C68.2188 219.353 65.7494 225.088 64.5048 229.163C63.8753 231.225 63.6095 232.705 63.6164 233.648C63.624 234.696 63.9121 234.28 63.4082 234.096L62.0389 237.854ZM127.352 260.973C127.086 262.255 126.223 263.109 125.176 263.554C124.232 263.955 123.139 264.035 122.096 263.988C119.985 263.894 117.253 263.237 114.236 262.275C108.147 260.334 100.273 256.944 92.5368 253.323C84.781 249.693 77.0891 245.795 71.3407 242.807C68.4653 241.313 66.0734 240.045 64.3997 239.15C63.5627 238.703 62.9052 238.348 62.4564 238.106C62.232 237.984 62.0597 237.891 61.9433 237.828C61.8851 237.796 61.8408 237.772 61.811 237.756C61.7961 237.748 61.7848 237.741 61.7771 237.737C61.7733 237.735 61.7704 237.734 61.7684 237.732C61.7674 237.732 61.7666 237.731 61.7661 237.731C61.7655 237.731 61.7652 237.731 62.7235 235.975C63.6819 234.22 63.682 234.22 63.6824 234.22C63.6828 234.22 63.6834 234.221 63.6843 234.221C63.686 234.222 63.6886 234.223 63.6921 234.225C63.6992 234.229 63.71 234.235 63.7243 234.243C63.753 234.259 63.7961 234.282 63.8531 234.313C63.9672 234.375 64.137 234.467 64.3588 234.587C64.8026 234.827 65.4546 235.178 66.2857 235.623C67.9479 236.511 70.3258 237.772 73.1853 239.258C78.9068 242.232 86.5453 246.102 94.2325 249.7C101.939 253.307 109.62 256.605 115.451 258.464C118.393 259.402 120.712 259.923 122.274 259.992C123.067 260.027 123.467 259.935 123.612 259.873C123.654 259.855 123.478 259.957 123.436 260.158L127.352 260.973ZM128.89 251.344C128.134 256.304 127.616 259.704 127.352 260.973L123.436 260.158C123.671 259.027 124.166 255.792 124.936 250.741L128.89 251.344ZM128.901 251.263L128.901 251.264L124.925 250.822L124.925 250.822L128.901 251.263ZM142.642 172.811C135.745 206.391 131.171 236.386 128.89 251.344L124.936 250.741C127.218 235.776 131.805 205.694 138.724 172.006L142.642 172.811ZM142.387 171.361C154.355 190.829 166.088 208.775 175.429 221.366C180.109 227.675 184.137 232.567 187.259 235.63C188.835 237.176 190.077 238.152 190.978 238.635C192.004 239.185 191.884 238.76 191.494 239.057L193.919 242.239C192.292 243.479 190.367 242.847 189.087 242.16C187.683 241.406 186.12 240.115 184.458 238.485C181.106 235.197 176.928 230.101 172.217 223.749C162.773 211.021 150.969 192.96 138.979 173.456L142.387 171.361ZM192.706 240.648C191.75 238.892 191.75 238.892 191.75 238.891C191.751 238.891 191.751 238.891 191.752 238.89C191.754 238.889 191.757 238.888 191.76 238.886C191.767 238.882 191.778 238.876 191.792 238.869C191.821 238.853 191.864 238.829 191.921 238.798C192.035 238.736 192.204 238.643 192.425 238.522C192.867 238.279 193.515 237.921 194.338 237.463C195.984 236.548 198.329 235.234 201.122 233.638C206.709 230.445 214.077 226.133 221.219 221.645C228.381 217.145 235.242 212.514 239.857 208.679C242.19 206.74 243.811 205.116 244.639 203.898C245.061 203.278 245.146 202.948 245.155 202.864C245.157 202.849 245.147 202.922 245.191 203.034C245.237 203.152 245.303 203.216 245.319 203.229L247.863 200.142C248.856 200.961 249.259 202.107 249.132 203.291C249.021 204.329 248.518 205.306 247.947 206.147C246.788 207.852 244.803 209.77 242.414 211.755C237.585 215.768 230.536 220.515 223.348 225.032C216.141 229.561 208.72 233.903 203.106 237.111C200.298 238.716 197.939 240.038 196.282 240.959C195.453 241.42 194.799 241.781 194.352 242.027C194.129 242.15 193.957 242.244 193.841 242.307C193.783 242.339 193.739 242.363 193.709 242.38C193.694 242.388 193.683 242.394 193.675 242.398C193.671 242.4 193.668 242.402 193.666 242.403C193.665 242.403 193.664 242.404 193.664 242.404C193.663 242.404 193.663 242.405 192.706 240.648ZM245.319 203.229C244.394 202.467 241.668 200.44 237.426 197.288L239.812 194.077C243.985 197.178 246.837 199.296 247.863 200.142L245.319 203.229ZM237.424 197.286L237.423 197.286L239.813 194.079L239.814 194.079L237.424 197.286ZM237.442 197.3L237.442 197.299L239.794 194.065L239.794 194.065L237.442 197.3ZM237.487 197.331L237.487 197.331L239.749 194.032L239.749 194.033L237.487 197.331ZM237.425 197.287C224.844 187.939 199.555 169.148 172.127 146.648L174.664 143.556C202.013 165.99 227.235 184.732 239.811 194.077L237.425 197.287ZM173.391 143.102C197.23 143.048 219.561 142.425 235.787 141.079C243.916 140.405 250.428 139.556 254.811 138.531C257.026 138.013 258.55 137.482 259.447 136.985C260.517 136.392 259.902 136.346 260.01 137L263.956 136.346C264.311 138.483 262.602 139.81 261.385 140.484C259.996 141.254 258.039 141.884 255.722 142.426C251.044 143.52 244.294 144.388 236.118 145.066C219.733 146.424 197.278 147.048 173.4 147.102L173.391 143.102ZM261.983 136.673C259.983 136.672 259.983 136.672 259.983 136.671C259.983 136.671 259.983 136.67 259.983 136.669C259.983 136.667 259.983 136.664 259.983 136.661C259.983 136.653 259.983 136.641 259.983 136.626C259.983 136.594 259.983 136.548 259.983 136.486C259.983 136.362 259.982 136.177 259.981 135.936C259.979 135.453 259.976 134.744 259.967 133.843C259.951 132.04 259.918 129.466 259.852 126.385C259.718 120.221 259.447 112.043 258.903 103.962C258.358 95.8574 257.542 87.9418 256.336 82.2631C255.726 79.3938 255.051 77.2693 254.353 75.9918C254.001 75.3476 253.735 75.0925 253.624 75.0174C253.586 74.9915 253.606 75.0142 253.678 75.0257C253.711 75.0311 253.743 75.032 253.772 75.0297C253.8 75.0273 253.814 75.0226 253.812 75.0233L252.582 71.217C253.772 70.8324 254.926 71.065 255.875 71.7107C256.734 72.2951 257.371 73.1743 257.863 74.073C258.851 75.8813 259.621 78.4768 260.249 81.4319C261.517 87.4021 262.346 95.5529 262.894 103.693C263.444 111.857 263.716 120.101 263.851 126.298C263.918 129.399 263.951 131.99 263.967 133.807C263.975 134.716 263.979 135.431 263.981 135.92C263.982 136.164 263.983 136.352 263.983 136.479C263.983 136.543 263.983 136.591 263.983 136.624C263.983 136.64 263.983 136.652 263.983 136.661C263.983 136.665 263.983 136.668 263.983 136.67C263.983 136.672 263.983 136.672 263.983 136.673C263.983 136.674 263.983 136.674 261.983 136.673ZM253.812 75.0233C252.647 75.3994 249.422 76.6171 244.412 78.5102L242.998 74.7684C247.931 72.9047 251.296 71.6324 252.582 71.217L253.812 75.0233ZM244.493 78.4776L244.493 78.4777L242.917 74.8011L242.917 74.801L244.493 78.4776ZM244.412 78.5103C229.549 84.1259 199.676 95.4132 165.332 106.596L164.093 102.792C198.342 91.6406 228.141 80.3818 242.998 74.7685L244.412 78.5103ZM201.961 26.1456C203.949 26.8697 204.373 28.8662 204.384 30.3224C204.395 31.8832 203.985 33.8305 203.321 36.0048C201.979 40.4008 199.391 46.3708 195.923 53.3996C188.972 67.4895 178.312 86.1745 166.422 105.733L163.004 103.655C174.873 84.1322 185.462 65.5636 192.336 51.6298C195.781 44.6467 198.251 38.9123 199.495 34.8366C200.125 32.775 200.391 31.2946 200.384 30.3516C200.376 29.3039 200.088 29.7204 200.592 29.9039L201.961 26.1456ZM136.648 3.0272C136.915 1.7454 137.777 0.890534 138.824 0.445626C139.768 0.0446624 140.861 -0.0346142 141.904 0.0117259C144.015 0.10551 146.747 0.763161 149.764 1.72516C155.853 3.66644 163.727 7.05623 171.463 10.6773C179.219 14.3073 186.911 18.205 192.659 21.1925C195.535 22.687 197.927 23.955 199.6 24.85C200.437 25.2974 201.095 25.6517 201.544 25.8943C201.768 26.0157 201.94 26.1091 202.057 26.1724C202.115 26.204 202.159 26.2281 202.189 26.2444C202.204 26.2525 202.215 26.2587 202.223 26.2628C202.227 26.2649 202.23 26.2665 202.232 26.2676C202.233 26.2681 202.234 26.2686 202.234 26.2688C202.235 26.2692 202.235 26.2693 201.277 28.0248C200.318 29.7802 200.318 29.7801 200.318 29.7799C200.317 29.7797 200.317 29.7794 200.316 29.7789C200.314 29.778 200.312 29.7765 200.308 29.7746C200.301 29.7707 200.29 29.7649 200.276 29.7571C200.247 29.7415 200.204 29.718 200.147 29.687C200.033 29.625 199.863 29.5329 199.641 29.413C199.198 29.1731 198.545 28.8218 197.714 28.3774C196.052 27.4886 193.674 26.2279 190.815 24.7418C185.093 21.7683 177.455 17.898 169.768 14.3001C162.061 10.6932 154.38 7.39528 148.549 5.53613C145.607 4.59791 143.288 4.07717 141.726 4.00778C140.933 3.97254 140.533 4.06548 140.388 4.12721C140.346 4.145 140.522 4.0433 140.564 3.84183L136.648 3.0272Z" fill="white"/>
<defs>
<linearGradient id="paint0_linear_36_63" x1="35.5" y1="44" x2="223.5" y2="222.5" gradientUnits="userSpaceOnUse">
<stop stop-color="#FF0000"/>
<stop offset="0.166667" stop-color="#FFA500"/>
<stop offset="0.333333" stop-color="#FFFF00"/>
<stop offset="0.5" stop-color="#008000"/>
<stop offset="0.666667" stop-color="#0000FF"/>
<stop offset="0.833333" stop-color="#4B0082"/>
<stop offset="1" stop-color="#EE82EE"/>
</linearGradient>
</defs>
</svg>
