<svg width="260" height="261" viewBox="0 0 260 261" fill="none" xmlns="http://www.w3.org/2000/svg">
<mask id="path-1-inside-1_35_9" fill="white">
<path fill-rule="evenodd" clip-rule="evenodd" d="M111.338 237.247C115.251 237.977 118.182 241.33 118.182 245.31V252.242C118.182 256.66 121.766 260.262 126.179 260.051C142.069 259.291 157.714 256.27 172.453 251.099C189.659 245.062 205.293 236.214 218.462 225.06C231.631 213.906 242.078 200.665 249.205 186.091C256.332 171.518 260 155.898 260 140.124C260 124.35 256.332 108.73 249.205 94.1567C242.078 79.5833 231.631 66.3415 218.462 55.1875C205.293 44.0335 189.659 35.1857 172.453 29.1492C164.739 26.4429 156.777 24.3254 148.662 22.8127C144.749 22.0834 141.818 18.7298 141.818 14.7495V7.81771C141.818 3.39943 138.234 -0.202284 133.821 0.00883172C117.931 0.768961 102.286 3.79024 87.5467 8.96116C70.3405 14.9977 54.7066 23.8455 41.5376 34.9995C28.3685 46.1535 17.9223 59.3953 10.7953 73.9687C3.66824 88.5421 0 104.162 0 119.936C0 135.71 3.66821 151.33 10.7953 165.903C17.9223 180.477 28.3685 193.718 41.5376 204.872C54.7066 216.026 70.3405 224.874 87.5467 230.911C95.2605 233.617 103.223 235.734 111.338 237.247ZM134.107 51.6774C133.098 51.4465 132.052 51.426 131.034 51.6169C125.811 52.597 120.681 53.8815 115.689 55.4635C102.805 59.547 91.0974 65.5323 81.2359 73.0777C71.3745 80.623 63.5519 89.5807 58.2149 99.4392C52.8779 109.298 50.131 119.864 50.131 130.535C50.131 141.205 52.8779 151.772 58.2149 161.63C63.5519 171.489 71.3745 180.446 81.2359 187.992C91.0974 195.537 102.805 201.522 115.689 205.606C119.033 206.666 122.439 207.592 125.893 208.383C126.902 208.613 127.948 208.634 128.966 208.443C134.189 207.463 139.319 206.178 144.311 204.596C157.195 200.513 168.903 194.528 178.764 186.982C188.625 179.437 196.448 170.479 201.785 160.621C207.122 150.762 209.869 140.196 209.869 129.525C209.869 118.855 207.122 108.288 201.785 98.4297C196.448 88.5713 188.625 79.6136 178.764 72.0683C168.903 64.5229 157.195 58.5376 144.311 54.4541C140.967 53.3944 137.561 52.4681 134.107 51.6774Z"/>
</mask>
<path fill-rule="evenodd" clip-rule="evenodd" d="M111.338 237.247C115.251 237.977 118.182 241.33 118.182 245.31V252.242C118.182 256.66 121.766 260.262 126.179 260.051C142.069 259.291 157.714 256.27 172.453 251.099C189.659 245.062 205.293 236.214 218.462 225.06C231.631 213.906 242.078 200.665 249.205 186.091C256.332 171.518 260 155.898 260 140.124C260 124.35 256.332 108.73 249.205 94.1567C242.078 79.5833 231.631 66.3415 218.462 55.1875C205.293 44.0335 189.659 35.1857 172.453 29.1492C164.739 26.4429 156.777 24.3254 148.662 22.8127C144.749 22.0834 141.818 18.7298 141.818 14.7495V7.81771C141.818 3.39943 138.234 -0.202284 133.821 0.00883172C117.931 0.768961 102.286 3.79024 87.5467 8.96116C70.3405 14.9977 54.7066 23.8455 41.5376 34.9995C28.3685 46.1535 17.9223 59.3953 10.7953 73.9687C3.66824 88.5421 0 104.162 0 119.936C0 135.71 3.66821 151.33 10.7953 165.903C17.9223 180.477 28.3685 193.718 41.5376 204.872C54.7066 216.026 70.3405 224.874 87.5467 230.911C95.2605 233.617 103.223 235.734 111.338 237.247ZM134.107 51.6774C133.098 51.4465 132.052 51.426 131.034 51.6169C125.811 52.597 120.681 53.8815 115.689 55.4635C102.805 59.547 91.0974 65.5323 81.2359 73.0777C71.3745 80.623 63.5519 89.5807 58.2149 99.4392C52.8779 109.298 50.131 119.864 50.131 130.535C50.131 141.205 52.8779 151.772 58.2149 161.63C63.5519 171.489 71.3745 180.446 81.2359 187.992C91.0974 195.537 102.805 201.522 115.689 205.606C119.033 206.666 122.439 207.592 125.893 208.383C126.902 208.613 127.948 208.634 128.966 208.443C134.189 207.463 139.319 206.178 144.311 204.596C157.195 200.513 168.903 194.528 178.764 186.982C188.625 179.437 196.448 170.479 201.785 160.621C207.122 150.762 209.869 140.196 209.869 129.525C209.869 118.855 207.122 108.288 201.785 98.4297C196.448 88.5713 188.625 79.6136 178.764 72.0683C168.903 64.5229 157.195 58.5376 144.311 54.4541C140.967 53.3944 137.561 52.4681 134.107 51.6774Z" fill="#FF0000"/>
<path d="M218.462 225.06L215.877 222.008L215.877 222.008L218.462 225.06ZM249.205 186.091L252.798 187.849L252.798 187.849L249.205 186.091ZM249.205 94.1567L252.798 92.3994L252.798 92.3994L249.205 94.1567ZM218.462 55.1875L215.877 58.2398L215.877 58.2398L218.462 55.1875ZM172.453 29.1492L171.129 32.9236L171.129 32.9236L172.453 29.1492ZM87.5467 8.96116L86.2225 5.18671L86.2225 5.18671L87.5467 8.96116ZM41.5376 34.9995L44.1228 38.0518L44.1228 38.0518L41.5376 34.9995ZM10.7953 73.9687L14.3886 75.726L14.3886 75.726L10.7953 73.9687ZM10.7953 165.903L14.3886 164.146L14.3886 164.146L10.7953 165.903ZM87.5467 230.911L88.8709 227.136L88.8709 227.136L87.5467 230.911ZM115.689 55.4635L114.481 51.6504L114.481 51.6504L115.689 55.4635ZM81.2359 73.0777L78.8053 69.9009L78.8053 69.9009L81.2359 73.0777ZM58.2149 99.4392L61.7326 101.343L61.7326 101.343L58.2149 99.4392ZM58.2149 161.63L54.6973 163.534L54.6973 163.534L58.2149 161.63ZM81.2359 187.992L78.8053 191.168L78.8053 191.168L81.2359 187.992ZM115.689 205.606L116.898 201.793L116.898 201.793L115.689 205.606ZM144.311 204.596L143.102 200.783L143.102 200.783L144.311 204.596ZM201.785 160.621L198.267 158.716L198.267 158.716L201.785 160.621ZM178.764 72.0683L181.195 68.8915L181.195 68.8915L178.764 72.0683ZM144.311 54.4541L143.102 58.2671L143.102 58.2672L144.311 54.4541ZM125.893 208.383L125.001 212.282L125.893 208.383ZM128.966 208.443L128.228 204.512L128.966 208.443ZM131.034 51.6169L130.297 47.6855L131.034 51.6169ZM134.107 51.6774L134.999 47.7783L134.107 51.6774ZM111.338 237.247L110.605 241.179L111.338 237.247ZM114.182 245.31V252.242H122.182V245.31H114.182ZM126.37 264.046C142.638 263.268 158.665 260.175 173.777 254.873L171.129 247.324C156.763 252.364 141.5 255.314 125.988 256.056L126.37 264.046ZM173.777 254.873C191.418 248.684 207.485 239.6 221.048 228.113L215.877 222.008C203.102 232.829 187.901 241.44 171.129 247.324L173.777 254.873ZM221.048 228.113C234.611 216.624 245.413 202.95 252.798 187.849L245.611 184.334C238.743 198.379 228.652 211.188 215.877 222.008L221.048 228.113ZM252.798 187.849C260.185 172.744 264 156.525 264 140.124H256C256 155.271 252.479 170.292 245.611 184.334L252.798 187.849ZM264 140.124C264 123.723 260.185 107.504 252.798 92.3994L245.611 95.914C252.479 109.956 256 124.977 256 140.124H264ZM252.798 92.3994C245.413 77.298 234.611 63.6234 221.048 52.1352L215.877 58.2398C228.652 69.0596 238.743 81.8685 245.611 95.914L252.798 92.3994ZM221.048 52.1352C207.485 40.648 191.418 31.5637 173.777 25.3747L171.129 32.9236C187.901 38.8076 203.102 47.4191 215.877 58.2398L221.048 52.1352ZM173.777 25.3747C165.868 22.5996 157.708 20.4299 149.395 18.8804L147.929 26.745C155.847 28.2209 163.611 30.2861 171.129 32.9236L173.777 25.3747ZM145.818 14.7495V7.81771H137.818V14.7495H145.818ZM133.63 -3.9866C117.362 -3.2084 101.335 -0.115102 86.2225 5.18671L88.8709 12.7356C103.237 7.69558 118.5 4.74632 134.012 4.00426L133.63 -3.9866ZM86.2225 5.18671C68.5818 11.3757 52.5148 20.46 38.9523 31.9472L44.1228 38.0518C56.8984 27.2311 72.0993 18.6197 88.8709 12.7356L86.2225 5.18671ZM38.9523 31.9472C25.3887 43.4354 14.5871 57.11 7.20195 72.2114L14.3886 75.726C21.2574 61.6805 31.3483 48.8716 44.1228 38.0518L38.9523 31.9472ZM7.20195 72.2114C-0.184801 87.3159 -4 103.535 -4 119.936H4C4 104.789 7.52129 89.7683 14.3886 75.726L7.20195 72.2114ZM-4 119.936C-4 136.337 -0.184833 152.556 7.20194 167.661L14.3886 164.146C7.52126 150.104 4 135.083 4 119.936H-4ZM7.20194 167.661C14.5871 182.762 25.3887 196.436 38.9523 207.925L44.1228 201.82C31.3483 191 21.2574 178.191 14.3886 164.146L7.20194 167.661ZM38.9523 207.925C52.5148 219.412 68.5818 228.496 86.2225 234.685L88.8709 227.136C72.0993 221.252 56.8984 212.641 44.1228 201.82L38.9523 207.925ZM86.2225 234.685C94.1324 237.46 102.292 239.63 110.605 241.179L112.071 233.315C104.153 231.839 96.3887 229.774 88.8709 227.136L86.2225 234.685ZM116.898 59.2766C121.732 57.7446 126.704 56.4992 131.772 55.5482L130.297 47.6855C124.918 48.6948 119.63 50.0185 114.481 51.6504L116.898 59.2766ZM83.6666 76.2544C93.1293 69.0142 104.415 63.2327 116.898 59.2766L114.481 51.6504C101.194 55.8614 89.0654 62.0505 78.8053 69.9009L83.6666 76.2544ZM61.7326 101.343C66.7733 92.0321 74.2046 83.4942 83.6666 76.2544L78.8053 69.9009C68.5443 77.7519 60.3305 87.1293 54.6973 97.5349L61.7326 101.343ZM54.131 130.535C54.131 120.563 56.6956 110.648 61.7326 101.343L54.6973 97.5349C49.0603 107.948 46.131 119.165 46.131 130.535H54.131ZM61.7325 159.726C56.6956 150.422 54.131 140.506 54.131 130.535H46.131C46.131 141.904 49.0603 153.122 54.6973 163.534L61.7325 159.726ZM83.6666 184.815C74.2046 177.575 66.7733 169.037 61.7325 159.726L54.6973 163.534C60.3305 173.94 68.5443 183.317 78.8053 191.168L83.6666 184.815ZM116.898 201.793C104.415 197.837 93.1293 192.055 83.6666 184.815L78.8053 191.168C89.0654 199.019 101.194 205.208 114.481 209.419L116.898 201.793ZM126.786 204.483C123.436 203.717 120.136 202.819 116.898 201.793L114.481 209.419C117.93 210.512 121.442 211.467 125.001 212.282L126.786 204.483ZM143.102 200.783C138.268 202.315 133.295 203.561 128.228 204.512L129.703 212.374C135.082 211.365 140.37 210.041 145.519 208.41L143.102 200.783ZM176.333 183.805C166.871 191.046 155.585 196.827 143.102 200.783L145.519 208.41C158.806 204.199 170.935 198.009 181.195 190.159L176.333 183.805ZM198.267 158.716C193.227 168.028 185.795 176.566 176.333 183.805L181.195 190.159C191.456 182.308 199.669 172.931 205.303 162.525L198.267 158.716ZM205.869 129.525C205.869 139.497 203.304 149.412 198.267 158.716L205.303 162.525C210.94 152.112 213.869 140.895 213.869 129.525H205.869ZM198.267 100.334C203.304 109.638 205.869 119.553 205.869 129.525H213.869C213.869 118.156 210.94 106.938 205.303 96.5255L198.267 100.334ZM176.333 75.245C185.795 82.4847 193.227 91.0227 198.267 100.334L205.303 96.5255C199.669 86.1199 191.456 76.7425 181.195 68.8915L176.333 75.245ZM143.102 58.2672C155.585 62.2232 166.871 68.0047 176.333 75.245L181.195 68.8915C170.935 61.0411 158.806 54.8519 145.519 50.641L143.102 58.2672ZM133.214 55.5766C136.564 56.3433 139.864 57.241 143.102 58.2671L145.519 50.641C142.07 49.5478 138.558 48.5929 134.999 47.7783L133.214 55.5766ZM125.001 212.282C126.546 212.635 128.146 212.667 129.703 212.374L128.228 204.512C127.75 204.601 127.259 204.592 126.786 204.483L125.001 212.282ZM131.772 55.5482C132.25 55.4586 132.741 55.4683 133.214 55.5766L134.999 47.7783C133.454 47.4247 131.854 47.3933 130.297 47.6855L131.772 55.5482ZM149.395 18.8804C147.274 18.4852 145.818 16.7017 145.818 14.7495H137.818C137.818 20.7578 142.224 25.6816 147.929 26.745L149.395 18.8804ZM114.182 252.242C114.182 258.816 119.549 264.373 126.37 264.046L125.988 256.056C123.982 256.152 122.182 254.505 122.182 252.242H114.182ZM145.818 7.81771C145.818 1.24369 140.451 -4.3129 133.63 -3.9866L134.012 4.00426C136.018 3.90833 137.818 5.55518 137.818 7.81771H145.818ZM122.182 245.31C122.182 239.302 117.776 234.378 112.071 233.315L110.605 241.179C112.726 241.575 114.182 243.358 114.182 245.31H122.182Z" fill="white" mask="url(#path-1-inside-1_35_9)"/>
</svg>
