<svg width="240" height="261" viewBox="0 0 240 261" fill="none" xmlns="http://www.w3.org/2000/svg">
<mask id="path-1-inside-1_35_9" fill="white">
<path fill-rule="evenodd" clip-rule="evenodd" d="M102.345 237.171C106.21 237.963 109.091 241.295 109.091 245.24V252.257C109.091 256.675 112.675 260.28 117.087 260.032C131.543 259.221 145.772 256.211 159.188 251.112C175.07 245.074 189.502 236.225 201.658 225.069C213.814 213.913 223.456 200.669 230.035 186.093C236.614 171.517 240 155.895 240 140.118C240 124.341 236.614 108.719 230.035 94.1428C223.456 79.5669 213.814 66.3229 201.658 55.167C189.502 44.0111 175.07 35.1617 159.188 29.1241C152.203 26.469 144.998 24.3806 137.655 22.8739C133.79 22.081 130.909 18.7496 130.909 14.8048V7.78775C130.909 3.36947 127.325 -0.235684 122.913 0.0120496C108.457 0.823914 94.2277 3.83312 80.8123 8.93276C64.9297 14.9703 50.4984 23.8197 38.3424 34.9756C26.1863 46.1315 16.5437 59.3755 9.96485 73.9514C3.38605 88.5273 -1.14444e-05 104.15 -1.14444e-05 119.927C-1.14444e-05 135.703 3.38605 151.326 9.96485 165.902C16.5436 180.478 26.1863 193.722 38.3424 204.877C50.4984 216.033 64.9297 224.883 80.8123 230.92C87.797 233.575 95.0022 235.664 102.345 237.171ZM124.029 51.7156C122.943 51.4438 121.809 51.4198 120.713 51.6453C115.975 52.6192 111.32 53.8873 106.79 55.443C94.8966 59.5272 84.0899 65.5135 74.987 73.0602C65.8841 80.6068 58.6633 89.566 53.7369 99.4262C48.8104 109.286 46.2748 119.854 46.2748 130.527C46.2748 141.2 48.8104 151.768 53.7369 161.628C58.6633 171.488 65.8841 180.447 74.987 187.994C84.0899 195.54 94.8966 201.527 106.79 205.611C109.8 206.645 112.864 207.551 115.971 208.329C117.057 208.601 118.191 208.625 119.287 208.399C124.025 207.425 128.68 206.157 133.21 204.601C145.103 200.517 155.91 194.531 165.013 186.984C174.116 179.438 181.337 170.478 186.263 160.618C191.19 150.758 193.725 140.19 193.725 129.517C193.725 118.845 191.19 108.277 186.263 98.4166C181.337 88.5564 174.116 79.5973 165.013 72.0506C155.91 64.504 145.103 58.5176 133.21 54.4334C130.2 53.3999 127.136 52.4933 124.029 51.7156Z"/>
</mask>
<path fill-rule="evenodd" clip-rule="evenodd" d="M102.345 237.171C106.21 237.963 109.091 241.295 109.091 245.24V252.257C109.091 256.675 112.675 260.28 117.087 260.032C131.543 259.221 145.772 256.211 159.188 251.112C175.07 245.074 189.502 236.225 201.658 225.069C213.814 213.913 223.456 200.669 230.035 186.093C236.614 171.517 240 155.895 240 140.118C240 124.341 236.614 108.719 230.035 94.1428C223.456 79.5669 213.814 66.3229 201.658 55.167C189.502 44.0111 175.07 35.1617 159.188 29.1241C152.203 26.469 144.998 24.3806 137.655 22.8739C133.79 22.081 130.909 18.7496 130.909 14.8048V7.78775C130.909 3.36947 127.325 -0.235684 122.913 0.0120496C108.457 0.823914 94.2277 3.83312 80.8123 8.93276C64.9297 14.9703 50.4984 23.8197 38.3424 34.9756C26.1863 46.1315 16.5437 59.3755 9.96485 73.9514C3.38605 88.5273 -1.14444e-05 104.15 -1.14444e-05 119.927C-1.14444e-05 135.703 3.38605 151.326 9.96485 165.902C16.5436 180.478 26.1863 193.722 38.3424 204.877C50.4984 216.033 64.9297 224.883 80.8123 230.92C87.797 233.575 95.0022 235.664 102.345 237.171ZM124.029 51.7156C122.943 51.4438 121.809 51.4198 120.713 51.6453C115.975 52.6192 111.32 53.8873 106.79 55.443C94.8966 59.5272 84.0899 65.5135 74.987 73.0602C65.8841 80.6068 58.6633 89.566 53.7369 99.4262C48.8104 109.286 46.2748 119.854 46.2748 130.527C46.2748 141.2 48.8104 151.768 53.7369 161.628C58.6633 171.488 65.8841 180.447 74.987 187.994C84.0899 195.54 94.8966 201.527 106.79 205.611C109.8 206.645 112.864 207.551 115.971 208.329C117.057 208.601 118.191 208.625 119.287 208.399C124.025 207.425 128.68 206.157 133.21 204.601C145.103 200.517 155.91 194.531 165.013 186.984C174.116 179.438 181.337 170.478 186.263 160.618C191.19 150.758 193.725 140.19 193.725 129.517C193.725 118.845 191.19 108.277 186.263 98.4166C181.337 88.5564 174.116 79.5973 165.013 72.0506C155.91 64.504 145.103 58.5176 133.21 54.4334C130.2 53.3999 127.136 52.4933 124.029 51.7156Z" fill="#FF0000"/>
<path d="M159.188 251.112L158.477 249.242L158.477 249.242L159.188 251.112ZM201.658 225.069L203.01 226.542L203.01 226.542L201.658 225.069ZM230.035 186.093L228.212 185.27L228.212 185.27L230.035 186.093ZM201.658 55.167L200.305 56.6405L200.305 56.6405L201.658 55.167ZM159.188 29.1241L159.898 27.2547L159.898 27.2547L159.188 29.1241ZM80.8123 8.93276L80.1017 7.06328L80.1017 7.06328L80.8123 8.93276ZM38.3424 34.9756L36.9901 33.502L36.9901 33.502L38.3424 34.9756ZM9.96485 73.9514L8.14193 73.1286L8.14192 73.1286L9.96485 73.9514ZM9.96485 165.902L8.14192 166.724L8.14193 166.724L9.96485 165.902ZM38.3424 204.877L36.9901 206.351L36.9901 206.351L38.3424 204.877ZM80.8123 230.92L81.523 229.051L81.523 229.051L80.8123 230.92ZM106.79 55.443L107.44 57.3346L107.44 57.3346L106.79 55.443ZM74.987 73.0602L73.7106 71.5205L73.7106 71.5205L74.987 73.0602ZM53.7369 99.4262L51.9478 98.5323L51.9478 98.5323L53.7369 99.4262ZM53.7369 161.628L55.526 160.734L55.526 160.734L53.7369 161.628ZM74.987 187.994L73.7106 189.534L73.7106 189.534L74.987 187.994ZM106.79 205.611L107.44 203.719L107.44 203.719L106.79 205.611ZM133.21 204.601L133.859 206.493L133.859 206.493L133.21 204.601ZM186.263 160.618L188.052 161.512L188.052 161.512L186.263 160.618ZM186.263 98.4166L184.474 99.3105L184.474 99.3105L186.263 98.4166ZM165.013 72.0506L166.289 70.5109L166.289 70.5109L165.013 72.0506ZM133.21 54.4334L133.859 52.5418L133.859 52.5418L133.21 54.4334ZM115.971 208.329L115.485 210.269L115.971 208.329ZM119.287 208.399L118.885 206.44L119.287 208.399ZM120.713 51.6453L120.31 49.6862L120.713 51.6453ZM124.029 51.7156L124.515 49.7755L124.029 51.7156ZM117.087 260.032L117.199 262.029L117.087 260.032ZM102.345 237.171L102.747 235.211L102.345 237.171ZM107.091 245.24V252.257H111.091V245.24H107.091ZM117.199 262.029C131.858 261.206 146.289 258.155 159.898 252.981L158.477 249.242C145.256 254.268 131.229 257.235 116.975 258.036L117.199 262.029ZM159.898 252.981C176.011 246.856 190.661 237.875 203.01 226.542L200.305 223.595C188.342 234.575 174.13 243.292 158.477 249.242L159.898 252.981ZM203.01 226.542C215.359 215.21 225.164 201.746 231.858 186.916L228.212 185.27C221.748 199.592 212.269 212.616 200.305 223.595L203.01 226.542ZM231.858 186.916C238.552 172.085 242 156.182 242 140.118H238C238 155.607 234.676 170.949 228.212 185.27L231.858 186.916ZM242 140.118C242 124.053 238.552 108.151 231.858 93.32L228.212 94.9656C234.676 109.287 238 124.629 238 140.118H242ZM231.858 93.32C225.164 78.4897 215.359 65.0263 203.01 53.6934L200.305 56.6405C212.269 67.6195 221.748 80.644 228.212 94.9656L231.858 93.32ZM203.01 53.6934C190.661 42.3609 176.011 33.3796 159.898 27.2547L158.477 30.9936C174.13 36.9438 188.342 45.6612 200.305 56.6405L203.01 53.6934ZM159.898 27.2547C152.812 24.561 145.504 22.4427 138.057 20.9147L137.253 24.833C144.492 26.3184 151.594 28.377 158.477 30.9936L159.898 27.2547ZM132.909 14.8048V7.78775L128.909 7.78775V14.8048H132.909ZM122.801 -1.9848C108.142 -1.16158 93.7113 1.8898 80.1017 7.06328L81.523 10.8022C94.7441 5.77645 108.771 2.80941 123.025 2.0089L122.801 -1.9848ZM80.1017 7.06328C63.9892 13.1882 49.3386 22.1695 36.9901 33.502L39.6947 36.4491C51.6583 25.4698 65.8702 16.7524 81.523 10.8022L80.1017 7.06328ZM36.9901 33.502C24.6413 44.8349 14.8356 58.2983 8.14193 73.1286L11.7878 74.7742C18.2518 60.4527 27.7314 47.4281 39.6947 36.4491L36.9901 33.502ZM8.14192 73.1286C1.44805 87.9595 -2.00001 103.862 -2.00001 119.927H1.99999C1.99999 104.437 5.32405 89.0951 11.7878 74.7742L8.14192 73.1286ZM-2.00001 119.927C-2.00001 135.991 1.44805 151.894 8.14192 166.724L11.7878 165.079C5.32405 150.758 1.99999 135.416 1.99999 119.927H-2.00001ZM8.14193 166.724C14.8355 181.555 24.6413 195.018 36.9901 206.351L39.6947 203.404C27.7314 192.425 18.2517 179.4 11.7878 165.079L8.14193 166.724ZM36.9901 206.351C49.3385 217.684 63.9892 226.665 80.1017 232.79L81.523 229.051C65.8702 223.101 51.6583 214.383 39.6947 203.404L36.9901 206.351ZM80.1017 232.79C87.1877 235.483 94.4962 237.602 101.943 239.13L102.747 235.211C95.5083 233.726 88.4063 231.667 81.523 229.051L80.1017 232.79ZM107.44 57.3346C111.888 55.8071 116.46 54.5613 121.115 53.6043L120.31 49.6862C115.49 50.677 110.753 51.9675 106.141 53.5514L107.44 57.3346ZM76.2635 74.5999C85.1688 67.217 95.76 61.3453 107.44 57.3346L106.141 53.5514C94.0332 57.7091 83.011 63.8101 73.7106 71.5205L76.2635 74.5999ZM55.526 100.32C60.3194 90.7262 67.3587 81.9823 76.2635 74.5999L73.7106 71.5205C64.4096 79.2314 57.0072 88.4059 51.9478 98.5323L55.526 100.32ZM48.2748 130.527C48.2748 120.175 50.7335 109.912 55.526 100.32L51.9478 98.5323C46.8873 108.661 44.2748 119.534 44.2748 130.527H48.2748ZM55.526 160.734C50.7335 151.142 48.2748 140.879 48.2748 130.527H44.2748C44.2748 141.52 46.8873 152.393 51.9478 162.522L55.526 160.734ZM76.2635 186.454C67.3587 179.072 60.3194 170.328 55.526 160.734L51.9478 162.522C57.0072 172.648 64.4096 181.823 73.7106 189.534L76.2635 186.454ZM107.44 203.719C95.76 199.709 85.1688 193.837 76.2635 186.454L73.7106 189.534C83.011 197.244 94.0332 203.345 106.141 207.503L107.44 203.719ZM116.457 206.389C113.404 205.625 110.395 204.734 107.44 203.719L106.141 207.503C109.205 208.555 112.324 209.478 115.485 210.269L116.457 206.389ZM132.56 202.71C128.112 204.237 123.54 205.483 118.885 206.44L119.69 210.358C124.51 209.367 129.247 208.077 133.859 206.493L132.56 202.71ZM163.737 185.445C154.831 192.827 144.24 198.699 132.56 202.71L133.859 206.493C145.967 202.335 156.989 196.234 166.289 188.524L163.737 185.445ZM184.474 159.724C179.681 169.318 172.641 178.062 163.737 185.445L166.289 188.524C175.59 180.813 182.993 171.639 188.052 161.512L184.474 159.724ZM191.725 129.517C191.725 139.869 189.266 150.132 184.474 159.724L188.052 161.512C193.113 151.384 195.725 140.511 195.725 129.517H191.725ZM184.474 99.3105C189.266 108.903 191.725 119.165 191.725 129.517H195.725C195.725 118.524 193.113 107.651 188.052 97.5227L184.474 99.3105ZM163.737 73.5903C172.641 80.9727 179.681 89.7166 184.474 99.3105L188.052 97.5227C182.993 87.3963 175.59 78.2218 166.289 70.5109L163.737 73.5903ZM132.56 56.325C144.24 60.3358 154.831 66.2074 163.737 73.5903L166.289 70.5109C156.989 62.8005 145.967 56.6995 133.859 52.5418L132.56 56.325ZM123.543 53.6558C126.596 54.4198 129.605 55.3102 132.56 56.325L133.859 52.5418C130.795 51.4896 127.676 50.5669 124.515 49.7755L123.543 53.6558ZM115.485 210.269C116.863 210.614 118.3 210.644 119.69 210.358L118.885 206.44C118.082 206.605 117.252 206.588 116.457 206.389L115.485 210.269ZM121.115 53.6043C121.918 53.4392 122.748 53.4568 123.543 53.6558L124.515 49.7755C123.137 49.4308 121.7 49.4004 120.31 49.6862L121.115 53.6043ZM138.057 20.9147C135.065 20.3007 132.909 17.7419 132.909 14.8048H128.909C128.909 19.7572 132.516 23.8612 137.253 24.833L138.057 20.9147ZM107.091 252.257C107.091 257.748 111.566 262.346 117.199 262.029L116.975 258.036C113.784 258.215 111.091 255.602 111.091 252.257H107.091ZM132.909 7.78775C132.909 2.29666 128.434 -2.30112 122.801 -1.9848L123.025 2.0089C126.216 1.82975 128.909 4.44229 128.909 7.78775L132.909 7.78775ZM111.091 245.24C111.091 240.287 107.484 236.183 102.747 235.211L101.943 239.13C104.935 239.744 107.091 242.303 107.091 245.24H111.091Z" fill="white" mask="url(#path-1-inside-1_35_9)"/>
</svg>
