<svg width="260" height="261" viewBox="0 0 260 261" fill="none" xmlns="http://www.w3.org/2000/svg">
<mask id="path-1-inside-1_35_9" fill="white">
<path fill-rule="evenodd" clip-rule="evenodd" d="M111.338 237.247C115.251 237.976 118.182 241.33 118.182 245.31V252.242C118.182 256.66 121.766 260.262 126.179 260.051C142.069 259.291 157.714 256.27 172.453 251.099C189.659 245.062 205.293 236.214 218.462 225.06C231.631 213.906 242.078 200.665 249.205 186.091C256.332 171.518 260 155.898 260 140.124C260 124.35 256.332 108.73 249.205 94.1567C242.078 79.5833 231.631 66.3415 218.462 55.1875C205.293 44.0335 189.659 35.1857 172.453 29.1492C164.739 26.4429 156.777 24.3254 148.662 22.8127C144.749 22.0834 141.818 18.7298 141.818 14.7495V7.81771C141.818 3.39943 138.234 -0.202284 133.821 0.00883173C117.931 0.768961 102.286 3.79024 87.5467 8.96116C70.3405 14.9977 54.7066 23.8455 41.5376 34.9995C28.3685 46.1535 17.9223 59.3953 10.7953 73.9687C3.66823 88.5421 -1.23981e-05 104.162 -1.23981e-05 119.936C-1.23981e-05 135.71 3.66823 151.33 10.7953 165.903C17.9223 180.477 28.3685 193.718 41.5376 204.872C54.7066 216.026 70.3405 224.874 87.5467 230.911C95.2605 233.617 103.223 235.734 111.338 237.247ZM134.107 51.6774C133.098 51.4465 132.052 51.426 131.034 51.6169C125.811 52.597 120.681 53.8815 115.689 55.4635C102.805 59.547 91.0974 65.5323 81.2359 73.0777C71.3745 80.623 63.5519 89.5807 58.2149 99.4392C52.8779 109.298 50.131 119.864 50.131 130.535C50.131 141.205 52.8779 151.772 58.2149 161.63C63.5519 171.489 71.3745 180.446 81.2359 187.992C91.0974 195.537 102.805 201.522 115.689 205.606C119.033 206.666 122.439 207.592 125.893 208.382C126.902 208.613 127.948 208.634 128.966 208.443C134.189 207.463 139.319 206.178 144.311 204.596C157.195 200.513 168.903 194.528 178.764 186.982C188.625 179.437 196.448 170.479 201.785 160.621C207.122 150.762 209.869 140.196 209.869 129.525C209.869 118.855 207.122 108.288 201.785 98.4297C196.448 88.5713 188.625 79.6136 178.764 72.0683C168.903 64.5229 157.195 58.5376 144.311 54.4541C140.967 53.3944 137.561 52.4681 134.107 51.6774Z"/>
</mask>
<path fill-rule="evenodd" clip-rule="evenodd" d="M111.338 237.247C115.251 237.976 118.182 241.33 118.182 245.31V252.242C118.182 256.66 121.766 260.262 126.179 260.051C142.069 259.291 157.714 256.27 172.453 251.099C189.659 245.062 205.293 236.214 218.462 225.06C231.631 213.906 242.078 200.665 249.205 186.091C256.332 171.518 260 155.898 260 140.124C260 124.35 256.332 108.73 249.205 94.1567C242.078 79.5833 231.631 66.3415 218.462 55.1875C205.293 44.0335 189.659 35.1857 172.453 29.1492C164.739 26.4429 156.777 24.3254 148.662 22.8127C144.749 22.0834 141.818 18.7298 141.818 14.7495V7.81771C141.818 3.39943 138.234 -0.202284 133.821 0.00883173C117.931 0.768961 102.286 3.79024 87.5467 8.96116C70.3405 14.9977 54.7066 23.8455 41.5376 34.9995C28.3685 46.1535 17.9223 59.3953 10.7953 73.9687C3.66823 88.5421 -1.23981e-05 104.162 -1.23981e-05 119.936C-1.23981e-05 135.71 3.66823 151.33 10.7953 165.903C17.9223 180.477 28.3685 193.718 41.5376 204.872C54.7066 216.026 70.3405 224.874 87.5467 230.911C95.2605 233.617 103.223 235.734 111.338 237.247ZM134.107 51.6774C133.098 51.4465 132.052 51.426 131.034 51.6169C125.811 52.597 120.681 53.8815 115.689 55.4635C102.805 59.547 91.0974 65.5323 81.2359 73.0777C71.3745 80.623 63.5519 89.5807 58.2149 99.4392C52.8779 109.298 50.131 119.864 50.131 130.535C50.131 141.205 52.8779 151.772 58.2149 161.63C63.5519 171.489 71.3745 180.446 81.2359 187.992C91.0974 195.537 102.805 201.522 115.689 205.606C119.033 206.666 122.439 207.592 125.893 208.382C126.902 208.613 127.948 208.634 128.966 208.443C134.189 207.463 139.319 206.178 144.311 204.596C157.195 200.513 168.903 194.528 178.764 186.982C188.625 179.437 196.448 170.479 201.785 160.621C207.122 150.762 209.869 140.196 209.869 129.525C209.869 118.855 207.122 108.288 201.785 98.4297C196.448 88.5713 188.625 79.6136 178.764 72.0683C168.903 64.5229 157.195 58.5376 144.311 54.4541C140.967 53.3944 137.561 52.4681 134.107 51.6774Z" fill="#FF0000"/>
<path d="M218.462 225.06L217.17 223.534L217.17 223.534L218.462 225.06ZM249.205 186.091L251.001 186.97L251.001 186.97L249.205 186.091ZM249.205 94.1567L251.001 93.278L251.001 93.278L249.205 94.1567ZM218.462 55.1875L217.17 56.7137L217.17 56.7137L218.462 55.1875ZM172.453 29.1492L171.791 31.0364L171.791 31.0364L172.453 29.1492ZM87.5467 8.96116L86.8846 7.07394L86.8846 7.07394L87.5467 8.96116ZM41.5376 34.9995L42.8302 36.5257L42.8302 36.5257L41.5376 34.9995ZM10.7953 73.9687L12.5919 74.8473L12.5919 74.8473L10.7953 73.9687ZM10.7953 165.903L8.9986 166.782L8.9986 166.782L10.7953 165.903ZM41.5376 204.872L42.8302 203.346L42.8302 203.346L41.5376 204.872ZM87.5467 230.911L88.2088 229.024L88.2088 229.024L87.5467 230.911ZM115.689 55.4635L115.085 53.5569L115.085 53.5569L115.689 55.4635ZM81.2359 73.0777L80.0206 71.4893L80.0206 71.4893L81.2359 73.0777ZM58.2149 99.4392L59.9737 100.391L59.9737 100.391L58.2149 99.4392ZM58.2149 161.63L56.4561 162.582L56.4561 162.582L58.2149 161.63ZM81.2359 187.992L82.4513 186.403L82.4512 186.403L81.2359 187.992ZM115.689 205.606L116.293 203.699L116.293 203.699L115.689 205.606ZM144.311 204.596L143.706 202.69L143.706 202.69L144.311 204.596ZM201.785 160.621L200.026 159.669L200.026 159.669L201.785 160.621ZM178.764 72.0683L179.979 70.4799L179.979 70.4799L178.764 72.0683ZM144.311 54.4541L144.915 52.5475L144.915 52.5475L144.311 54.4541ZM125.893 208.382L125.447 210.332L125.893 208.382ZM128.966 208.443L128.597 206.477L128.966 208.443ZM131.034 51.6169L131.403 53.5826L131.034 51.6169ZM134.107 51.6774L133.66 53.627L134.107 51.6774ZM111.338 237.247L110.972 239.213L111.338 237.247ZM116.182 245.31V252.242H120.182V245.31H116.182ZM126.274 262.049C142.353 261.28 158.19 258.222 173.115 252.986L171.791 249.212C157.239 254.317 141.784 257.302 126.083 258.053L126.274 262.049ZM173.115 252.986C190.539 246.873 206.389 237.907 219.755 226.587L217.17 223.534C204.197 234.522 188.78 243.251 171.791 249.212L173.115 252.986ZM219.755 226.587C233.121 215.265 243.745 201.807 251.001 186.97L247.408 185.213C240.41 199.522 230.142 212.547 217.17 223.534L219.755 226.587ZM251.001 186.97C258.258 172.131 262 156.211 262 140.124H258C258 155.585 254.405 170.905 247.408 185.213L251.001 186.97ZM262 140.124C262 124.036 258.258 108.117 251.001 93.278L247.408 95.0353C254.405 109.343 258 124.663 258 140.124H262ZM251.001 93.278C243.745 78.4407 233.121 64.9825 219.755 53.6614L217.17 56.7137C230.142 67.7006 240.41 80.7259 247.408 95.0353L251.001 93.278ZM219.755 53.6614C206.389 42.3407 190.539 33.3747 173.115 27.2619L171.791 31.0364C188.78 36.9966 204.197 45.7263 217.17 56.7137L219.755 53.6614ZM173.115 27.2619C165.303 24.5213 157.242 22.3777 149.028 20.8466L148.295 24.7789C156.312 26.2731 164.175 28.3645 171.791 31.0364L173.115 27.2619ZM143.818 14.7495V7.81771H139.818V14.7495H143.818ZM133.725 -1.98888C117.647 -1.21972 101.81 1.83757 86.8846 7.07394L88.2088 10.8484C102.761 5.74291 118.215 2.75764 133.917 2.00655L133.725 -1.98888ZM86.8846 7.07394C69.4612 13.1867 53.6107 22.1527 40.245 33.4734L42.8302 36.5257C55.8025 25.5383 71.2199 16.8087 88.2088 10.8484L86.8846 7.07394ZM40.245 33.4734C26.8786 44.7945 16.2547 58.2527 8.99862 73.09L12.5919 74.8473C19.5899 60.5379 29.8585 47.5126 42.8302 36.5257L40.245 33.4734ZM8.99862 73.09C1.74171 87.929 -2.00001 103.848 -2.00001 119.936H1.99999C1.99999 104.475 5.59475 89.1552 12.5919 74.8473L8.99862 73.09ZM-2.00001 119.936C-2.00001 136.023 1.74171 151.943 8.9986 166.782L12.5919 165.025C5.59475 150.717 1.99999 135.397 1.99999 119.936H-2.00001ZM8.9986 166.782C16.2547 181.619 26.8786 195.077 40.2449 206.399L42.8302 203.346C29.8584 192.359 19.5899 179.334 12.5919 165.025L8.9986 166.782ZM40.2449 206.399C53.6107 217.719 69.4611 226.685 86.8846 232.798L88.2088 229.024C71.2199 223.063 55.8025 214.334 42.8302 203.346L40.2449 206.399ZM86.8846 232.798C94.6964 235.539 102.758 237.682 110.972 239.213L111.705 235.281C103.688 233.787 95.8246 231.695 88.2088 229.024L86.8846 232.798ZM116.294 57.37C121.206 55.8131 126.258 54.5481 131.403 53.5826L130.666 49.6512C125.364 50.6459 120.155 51.95 115.085 53.5569L116.294 57.37ZM82.4512 74.6661C92.1134 67.2732 103.61 61.3898 116.294 57.37L115.085 53.5569C101.999 57.7042 90.0814 63.7914 80.0206 71.4893L82.4512 74.6661ZM59.9737 100.391C65.1626 90.8064 72.7895 82.0586 82.4513 74.6661L80.0206 71.4893C69.9594 79.1875 61.9412 88.355 56.4561 98.487L59.9737 100.391ZM52.131 130.535C52.131 120.213 54.7868 109.973 59.9737 100.391L56.4561 98.487C50.9691 108.623 48.131 119.514 48.131 130.535H52.131ZM59.9737 160.678C54.7868 151.097 52.131 140.856 52.131 130.535H48.131C48.131 141.555 50.9691 152.447 56.4561 162.582L59.9737 160.678ZM82.4512 186.403C72.7895 179.011 65.1626 170.263 59.9737 160.678L56.4561 162.582C61.9412 172.714 69.9594 181.882 80.0206 189.58L82.4512 186.403ZM116.293 203.699C103.61 199.68 92.1133 193.796 82.4513 186.403L80.0206 189.58C90.0814 197.278 101.999 203.365 115.085 207.512L116.293 203.699ZM126.34 206.433C122.937 205.654 119.584 204.742 116.293 203.699L115.085 207.512C118.482 208.589 121.94 209.529 125.447 210.332L126.34 206.433ZM143.706 202.69C138.794 204.247 133.742 205.512 128.597 206.477L129.334 210.409C134.636 209.414 139.845 208.11 144.915 206.503L143.706 202.69ZM177.549 185.394C167.887 192.787 156.39 198.67 143.706 202.69L144.915 206.503C158.001 202.356 169.919 196.269 179.979 188.571L177.549 185.394ZM200.026 159.669C194.837 169.254 187.21 178.001 177.549 185.394L179.979 188.571C190.041 180.872 198.059 171.705 203.544 161.573L200.026 159.669ZM207.869 129.525C207.869 139.847 205.213 150.087 200.026 159.669L203.544 161.573C209.031 151.437 211.869 140.545 211.869 129.525H207.869ZM200.026 99.3819C205.213 108.963 207.869 119.204 207.869 129.525H211.869C211.869 118.505 209.031 107.613 203.544 97.4776L200.026 99.3819ZM177.549 73.6566C187.21 81.0492 194.837 89.797 200.026 99.3819L203.544 97.4776C198.059 87.3456 190.041 78.1781 179.979 70.4799L177.549 73.6566ZM143.706 56.3606C156.39 60.3804 167.887 66.2638 177.549 73.6566L179.979 70.4799C169.919 62.782 158.001 56.6948 144.915 52.5475L143.706 56.3606ZM133.66 53.627C137.062 54.4057 140.416 55.3177 143.706 56.3606L144.915 52.5475C141.518 51.4711 138.06 50.5305 134.553 49.7278L133.66 53.627ZM125.447 210.332C126.724 210.624 128.047 210.65 129.334 210.409L128.597 206.477C127.849 206.618 127.081 206.603 126.34 206.433L125.447 210.332ZM131.403 53.5826C132.151 53.4423 132.919 53.4574 133.66 53.627L134.553 49.7278C133.276 49.4356 131.953 49.4096 130.666 49.6512L131.403 53.5826ZM149.028 20.8466C146.011 20.2843 143.818 17.7158 143.818 14.7495H139.818C139.818 19.7438 143.486 23.8825 148.295 24.7789L149.028 20.8466ZM116.182 252.242C116.182 257.738 120.657 262.317 126.274 262.049L126.083 258.053C122.874 258.207 120.182 255.583 120.182 252.242H116.182ZM143.818 7.81771C143.818 2.32156 139.343 -2.25759 133.725 -1.98888L133.917 2.00655C137.126 1.85302 139.818 4.4773 139.818 7.81771H143.818ZM120.182 245.31C120.182 240.316 116.514 236.177 111.705 235.281L110.972 239.213C113.989 239.776 116.182 242.344 116.182 245.31H120.182Z" fill="white" mask="url(#path-1-inside-1_35_9)"/>
</svg>
