<svg width="277" height="277" viewBox="0 0 277 277" fill="none" xmlns="http://www.w3.org/2000/svg">
<path fill-rule="evenodd" clip-rule="evenodd" d="M243.773 5.34454C249.475 3.75882 253.255 2.70779 254.655 2.39492C264.22 0.256686 259.734 69.5463 259.249 76.6479C259.22 77.0688 259.271 77.46 259.13 77.8575C258.394 79.9235 252.902 81.0569 244.012 81.4526C239.11 81.6707 235.332 85.9902 236.123 90.8332C246.31 153.207 264.705 218.94 271.953 244.843C273.543 250.522 274.596 254.287 274.91 255.681C277.053 265.213 207.447 260.765 200.362 260.287C199.944 260.259 199.557 260.309 199.162 260.172C197.025 259.428 195.882 253.661 195.521 244.345C195.33 239.426 190.993 235.63 186.135 236.429C123.989 246.65 58.8783 264.756 33.09 271.927C33.0899 271.927 33.0899 271.927 33.0898 271.927V271.927C33.0897 271.927 33.0896 271.927 33.0895 271.927C27.3871 273.513 23.6075 274.564 22.2078 274.876C12.6422 277.015 17.1289 207.725 17.6135 200.624C17.6422 200.203 17.5914 199.811 17.7329 199.414C18.4771 197.324 24.0893 196.188 33.1635 195.805C38.073 195.598 41.8555 191.269 41.0598 186.42C32.7476 135.77 19.0679 82.9991 10.374 51.2104C10.3345 51.066 10.256 50.9215 10.2098 50.7791V50.7791C10.15 50.5946 10.1546 50.409 10.1034 50.222C8.23592 43.4059 6.60925 37.5931 5.32984 33.0212C3.74034 27.3413 2.68681 23.5765 2.3733 22.1824C0.229922 12.6508 69.836 17.0991 76.9214 17.5762C77.3392 17.6043 77.7257 17.5543 78.1212 17.6919C80.2088 18.4178 81.3473 23.9388 81.7361 32.8784C81.9498 37.7912 86.2826 41.5761 91.1345 40.7756C153.159 30.542 218.041 12.4999 243.773 5.34454ZM89.6399 67.6643C84.9882 66.9899 80.747 70.4183 80.412 75.1067C78.0171 108.623 73.0131 151.347 67.6349 187.847C66.948 192.509 70.3846 196.766 75.0852 197.095C108.51 199.441 151.128 204.363 187.679 209.673C192.329 210.349 196.571 206.924 196.908 202.237C199.33 168.629 204.348 125.896 209.73 89.4627C210.419 84.7976 206.979 80.5381 202.274 80.2107C168.914 77.8885 126.271 72.9756 89.6399 67.6643Z" fill="white"/>
<path d="M254.655 2.39492L254.218 0.443088L254.218 0.443088L254.655 2.39492ZM243.773 5.34454L244.309 7.27142L244.309 7.27142L243.773 5.34454ZM271.953 244.843L270.027 245.382L270.027 245.382L271.953 244.843ZM274.91 255.681L276.861 255.243L276.861 255.243L274.91 255.681ZM22.2078 274.876L22.6441 276.828L22.6441 276.828L22.2078 274.876ZM5.32984 33.0212L3.40383 33.5602L3.40383 33.5602L5.32984 33.0212ZM2.3733 22.1824L0.422024 22.6211L0.422025 22.6211L2.3733 22.1824ZM209.73 89.4627L207.751 89.1705L209.73 89.4627ZM202.274 80.2107L202.413 78.2155L202.274 80.2107ZM187.679 209.673L187.967 207.694L187.679 209.673ZM196.908 202.237L194.914 202.093L196.908 202.237ZM80.412 75.1067L78.4171 74.9641L80.412 75.1067ZM67.6349 187.847L65.6563 187.556L67.6349 187.847ZM33.1635 195.805L33.0792 193.807L33.1635 195.805ZM17.6135 200.624L19.6088 200.76L17.6135 200.624ZM17.7329 199.414L15.8488 198.743L17.7329 199.414ZM33.0895 271.927L33.6254 273.854L33.0895 271.927ZM76.9214 17.5762L76.787 19.5717L76.9214 17.5762ZM78.1212 17.6919L78.7781 15.8028L78.1212 17.6919ZM200.362 260.287L200.496 258.292L200.362 260.287ZM199.162 260.172L199.819 258.283L199.162 260.172ZM33.09 271.927L33.6258 273.854L33.09 271.927ZM10.1034 50.222L8.17448 50.7505L10.1034 50.222ZM244.012 81.4526L244.101 83.4506L244.012 81.4526ZM236.123 90.8332L234.149 91.1556L236.123 90.8332ZM195.521 244.345L197.519 244.268L195.521 244.345ZM186.135 236.429L185.811 234.455L186.135 236.429ZM10.374 51.2104L12.3031 50.6828L10.374 51.2104ZM259.249 76.6479L261.245 76.784L259.249 76.6479ZM259.13 77.8575L261.014 78.5282L259.13 77.8575ZM254.218 0.443088C252.753 0.770618 248.897 1.84367 243.237 3.41765L244.309 7.27142C250.053 5.67397 253.757 4.64496 255.091 4.34675L254.218 0.443088ZM261.245 76.784C261.487 73.224 262.734 54.0697 262.721 36.055C262.714 27.065 262.394 18.2635 261.455 11.8084C260.99 8.61014 260.351 5.81437 259.432 3.83742C258.975 2.85319 258.371 1.89988 257.533 1.23327C256.617 0.504592 255.466 0.164285 254.218 0.443088L255.091 4.34675C255.103 4.34399 255.071 4.35132 255.022 4.33891C254.978 4.32789 254.985 4.31711 255.043 4.36358C255.19 4.48051 255.47 4.80352 255.805 5.52317C256.47 6.95395 257.045 9.27611 257.497 12.384C258.392 18.5413 258.714 27.1051 258.721 36.058C258.734 53.9288 257.495 72.9701 257.254 76.5117L261.245 76.784ZM244.101 83.4506C248.587 83.251 252.324 82.8622 255.076 82.2308C256.447 81.9163 257.671 81.5204 258.647 81.0007C259.586 80.5008 260.585 79.732 261.014 78.5282L257.246 77.1868C257.306 77.016 257.343 77.1636 256.768 77.4696C256.23 77.7559 255.387 78.0555 254.182 78.3321C251.782 78.8827 248.328 79.2586 243.923 79.4546L244.101 83.4506ZM273.879 244.304C266.629 218.395 248.263 152.761 238.097 90.5109L234.149 91.1556C244.356 153.653 262.78 219.485 270.027 245.382L273.879 244.304ZM276.861 255.243C276.533 253.782 275.457 249.941 273.879 244.304L270.027 245.382C271.629 251.104 272.66 254.792 272.959 256.12L276.861 255.243ZM200.227 262.283C203.779 262.522 223.008 263.757 241.099 263.738C250.127 263.728 258.966 263.406 265.448 262.469C268.661 262.004 271.467 261.366 273.45 260.452C274.437 259.996 275.394 259.395 276.064 258.561C276.797 257.647 277.142 256.494 276.861 255.243L272.959 256.12C272.961 256.129 272.953 256.093 272.967 256.041C272.978 255.994 272.99 255.999 272.944 256.058C272.826 256.204 272.5 256.485 271.775 256.819C270.334 257.484 267.999 258.058 264.876 258.51C258.689 259.404 250.086 259.728 241.094 259.738C223.146 259.757 204.03 258.53 200.496 258.292L200.227 262.283ZM193.522 244.423C193.705 249.12 194.086 253.032 194.723 255.906C195.04 257.337 195.441 258.61 195.97 259.622C196.477 260.593 197.263 261.629 198.505 262.061L199.819 258.283C199.992 258.343 199.834 258.38 199.515 257.769C199.217 257.199 198.909 256.309 198.628 255.041C198.069 252.516 197.698 248.886 197.519 244.268L193.522 244.423ZM33.6258 273.854C59.4194 266.681 124.433 248.604 186.46 238.402L185.811 234.455C123.544 244.697 58.3372 262.83 32.5542 270L33.6258 273.854ZM22.6441 276.828C24.1093 276.501 27.9651 275.428 33.6254 273.854L32.5537 270C26.8091 271.597 23.1056 272.626 21.7715 272.925L22.6441 276.828ZM15.6181 200.487C15.3752 204.047 14.1283 223.202 14.1418 241.216C14.1486 250.206 14.4685 259.008 15.4071 265.463C15.8722 268.661 16.5117 271.457 17.4304 273.434C17.8878 274.418 18.4915 275.372 19.3294 276.038C20.2454 276.767 21.3969 277.107 22.6441 276.828L21.7715 272.925C21.7592 272.927 21.7916 272.92 21.8408 272.932C21.8845 272.944 21.8781 272.954 21.8196 272.908C21.6727 272.791 21.3923 272.468 21.0579 271.748C20.393 270.317 19.8174 267.995 19.3655 264.887C18.4702 258.73 18.1485 250.166 18.1418 241.213C18.1284 223.343 19.3672 204.301 19.6088 200.76L15.6181 200.487ZM33.0792 193.807C28.5019 194 24.6898 194.386 21.8846 195.018C20.4877 195.333 19.2426 195.73 18.2508 196.252C17.2983 196.753 16.2821 197.526 15.8488 198.743L19.6171 200.085C19.5559 200.257 19.5202 200.104 20.1129 199.792C20.6662 199.501 21.5308 199.198 22.7643 198.92C25.2198 198.367 28.7509 197.993 33.2479 197.803L33.0792 193.807ZM8.4448 51.738C17.1343 83.5104 30.7914 136.2 39.0862 186.743L43.0334 186.096C34.7038 135.34 21.0015 82.4878 12.3031 50.6828L8.4448 51.738ZM3.40383 33.5602C4.68323 38.1321 6.30858 43.9402 8.17448 50.7505L12.0323 49.6935C10.1632 42.8716 8.53528 37.0542 7.25584 32.4822L3.40383 33.5602ZM0.422025 22.6211C0.750382 24.0813 1.82623 27.9228 3.40383 33.5602L7.25584 32.4822C5.65445 26.7598 4.62323 23.0717 4.32457 21.7436L0.422025 22.6211ZM77.0558 15.5807C73.504 15.3415 54.275 14.1062 36.1844 14.126C27.1563 14.1359 18.3172 14.4577 11.8346 15.395C8.62253 15.8594 5.81648 16.4972 3.83288 17.4121C2.84589 17.8674 1.8892 18.4682 1.2194 19.3031C0.486489 20.2167 0.14064 21.3698 0.422024 22.6211L4.32457 21.7436C4.32256 21.7346 4.3299 21.7706 4.31657 21.8229C4.30473 21.8694 4.29282 21.8643 4.3395 21.8061C4.45729 21.6593 4.78319 21.3788 5.50821 21.0444C6.94861 20.38 9.28424 19.8053 12.407 19.3538C18.5942 18.4593 27.1976 18.1359 36.1888 18.126C54.1367 18.1064 73.2535 19.3337 76.787 19.5717L77.0558 15.5807ZM83.7342 32.7915C83.5381 28.2809 83.1499 24.5233 82.515 21.7576C82.1989 20.3803 81.8001 19.1506 81.2754 18.1702C80.7701 17.226 79.9928 16.2252 78.7781 15.8028L77.4643 19.5809C77.2934 19.5215 77.4413 19.4831 77.7487 20.0576C78.0368 20.596 78.3384 21.4413 78.6164 22.6525C79.1699 25.0636 79.5454 28.5363 79.738 32.9653L83.7342 32.7915ZM243.237 3.41765C217.5 10.5744 152.713 28.5884 90.8089 38.8023L91.4601 42.7489C153.604 32.4956 218.582 14.4253 244.309 7.27142L243.237 3.41765ZM69.6135 188.139C74.9969 151.604 80.0076 108.828 82.4069 75.2492L78.4171 74.9641C76.0267 108.418 71.0293 151.091 65.6563 187.556L69.6135 188.139ZM187.967 207.694C151.381 202.379 108.712 197.451 75.2252 195.1L74.9451 199.091C108.308 201.432 150.875 206.347 187.392 211.653L187.967 207.694ZM207.751 89.1705C202.365 125.639 197.34 168.424 194.914 202.093L198.903 202.381C201.32 168.835 206.332 126.152 211.708 89.755L207.751 89.1705ZM89.3529 69.6436C126.018 74.9599 168.713 79.8793 202.135 82.2058L202.413 78.2155C169.116 75.8977 126.523 70.9913 89.9269 65.685L89.3529 69.6436ZM211.708 89.755C212.569 83.9319 208.275 78.6235 202.413 78.2155L202.135 82.2058C205.682 82.4528 208.269 85.6633 207.751 89.1705L211.708 89.755ZM187.392 211.653C193.196 212.496 198.482 208.221 198.903 202.381L194.914 202.093C194.659 205.627 191.463 208.202 187.967 207.694L187.392 211.653ZM82.4069 75.2492C82.6595 71.7145 85.8561 69.1366 89.3529 69.6436L89.9269 65.685C84.1204 64.8431 78.8346 69.1221 78.4171 74.9641L82.4069 75.2492ZM65.6563 187.556C64.7988 193.375 69.0878 198.679 74.9451 199.091L75.2252 195.1C71.6813 194.852 69.0971 191.644 69.6135 188.139L65.6563 187.556ZM79.738 32.9653C79.9997 38.983 85.3342 43.7597 91.4601 42.7489L90.8089 38.8023C87.231 39.3926 83.8999 36.5993 83.7342 32.7915L79.738 32.9653ZM33.2479 197.803C39.2654 197.55 44.0379 192.217 43.0334 186.096L39.0862 186.743C39.6732 190.32 36.8807 193.647 33.0792 193.807L33.2479 197.803ZM19.6088 200.76C19.6199 200.598 19.6226 200.449 19.6241 200.342C19.6259 200.22 19.6263 200.159 19.6291 200.096C19.6338 199.985 19.6424 200.014 19.6171 200.085L15.8488 198.743C15.682 199.212 15.6452 199.635 15.6327 199.924C15.6269 200.061 15.6258 200.202 15.6246 200.284C15.6231 200.381 15.6214 200.439 15.6181 200.487L19.6088 200.76ZM32.281 270.098C32.371 270.058 32.4623 270.025 32.5537 270L33.6254 273.854C33.717 273.828 33.8084 273.796 33.8986 273.756L32.281 270.098ZM76.787 19.5717C76.9478 19.5825 77.0949 19.5851 77.2014 19.5866C77.3229 19.5883 77.3832 19.5887 77.4469 19.5913C77.5575 19.5959 77.5316 19.6043 77.4643 19.5809L78.7781 15.8028C78.3153 15.6419 77.8984 15.6066 77.6124 15.5947C77.4778 15.5891 77.3384 15.5881 77.2576 15.587C77.1617 15.5856 77.1039 15.584 77.0558 15.5807L76.787 19.5717ZM200.496 258.292C200.335 258.281 200.188 258.279 200.082 258.277C199.96 258.275 199.9 258.275 199.836 258.272C199.726 258.268 199.751 258.259 199.819 258.283L198.505 262.061C198.968 262.222 199.385 262.257 199.671 262.269C199.805 262.275 199.945 262.276 200.026 262.277C200.121 262.278 200.179 262.28 200.227 262.283L200.496 258.292ZM32.5542 270C32.4541 270.028 32.3629 270.061 32.281 270.098L33.8986 273.756C33.8168 273.792 33.7257 273.826 33.6258 273.854L32.5542 270ZM12.1123 50.1621C12.1433 50.2576 12.148 50.3254 12.1349 50.2298C12.1308 50.2003 12.1199 50.117 12.1064 50.0355C12.0917 49.9465 12.0691 49.8279 12.0323 49.6935L8.17448 50.7505C8.16329 50.7097 8.15937 50.6844 8.16005 50.6885C8.16198 50.7001 8.16325 50.7098 8.17193 50.7732C8.18428 50.8632 8.21659 51.1161 8.30735 51.396L12.1123 50.1621ZM243.923 79.4546C237.918 79.7218 233.151 85.04 234.149 91.1556L238.097 90.5109C237.514 86.9404 240.301 83.6197 244.101 83.4506L243.923 79.4546ZM197.519 244.268C197.285 238.236 191.943 233.447 185.811 234.455L186.46 238.402C190.044 237.813 193.374 240.615 193.522 244.423L197.519 244.268ZM12.3031 50.6828C12.2445 50.4685 12.1662 50.2857 12.1375 50.2176C12.1165 50.1676 12.111 50.155 12.104 50.1375C12.0989 50.125 12.104 50.1366 12.1123 50.1621L8.30735 51.396C8.33873 51.4928 8.37096 51.5758 8.39484 51.635C8.41672 51.6892 8.44198 51.7484 8.45125 51.7704C8.46485 51.8027 8.46756 51.8099 8.46718 51.8089C8.46634 51.8067 8.45641 51.7805 8.4448 51.738L12.3031 50.6828ZM257.254 76.5117C257.243 76.6738 257.24 76.8223 257.238 76.9293C257.237 77.0515 257.236 77.1122 257.234 77.1757C257.229 77.2864 257.22 77.2577 257.246 77.1868L261.014 78.5282C261.181 78.0598 261.217 77.6367 261.23 77.3472C261.236 77.2107 261.237 77.0698 261.238 76.9878C261.239 76.8906 261.241 76.8324 261.245 76.784L257.254 76.5117Z" fill="black"/>
</svg>
