<svg width="275" height="275" viewBox="0 0 275 275" fill="none" xmlns="http://www.w3.org/2000/svg">
<path fill-rule="evenodd" clip-rule="evenodd" d="M242.773 4.34454C248.475 2.75882 252.255 1.70779 253.655 1.39492C263.22 -0.743314 258.734 68.5463 258.249 75.6479C258.22 76.0688 258.271 76.46 258.13 76.8575C257.394 78.9235 251.902 80.0569 243.012 80.4526C238.11 80.6707 234.332 84.9902 235.123 89.8332C245.31 152.207 263.705 217.94 270.953 243.843C272.543 249.522 273.596 253.287 273.91 254.681C276.053 264.213 206.447 259.765 199.362 259.287C198.944 259.259 198.557 259.309 198.162 259.172C196.025 258.428 194.882 252.661 194.521 243.345C194.33 238.426 189.993 234.63 185.135 235.429C122.989 245.65 57.8783 263.756 32.09 270.927C32.0899 270.927 32.0899 270.927 32.0898 270.927V270.927C32.0897 270.927 32.0896 270.927 32.0895 270.927C26.3871 272.513 22.6075 273.564 21.2078 273.876C11.6422 276.015 16.1289 206.725 16.6135 199.624C16.6422 199.203 16.5914 198.811 16.7329 198.414C17.4771 196.324 23.0893 195.188 32.1635 194.805C37.073 194.598 40.8555 190.269 40.0598 185.42C31.7476 134.77 18.0679 81.9991 9.37395 50.2104C9.33445 50.066 9.25601 49.9215 9.20982 49.7791V49.7791C9.15002 49.5946 9.15462 49.409 9.10339 49.222C7.23592 42.4059 5.60925 36.5931 4.32984 32.0212C2.74034 26.3413 1.68681 22.5765 1.3733 21.1824C-0.770078 11.6508 68.836 16.0991 75.9214 16.5762C76.3392 16.6043 76.7257 16.5543 77.1212 16.6919C79.2088 17.4178 80.3473 22.9388 80.7361 31.8784C80.9498 36.7912 85.2826 40.5761 90.1345 39.7756C152.159 29.542 217.041 11.4999 242.773 4.34454ZM88.6399 66.6643C83.9882 65.9899 79.747 69.4183 79.412 74.1067C77.0171 107.623 72.0131 150.347 66.6349 186.847C65.948 191.509 69.3846 195.766 74.0852 196.095C107.51 198.441 150.128 203.363 186.679 208.673C191.329 209.349 195.571 205.924 195.908 201.237C198.33 167.629 203.348 124.896 208.73 88.4627C209.419 83.7976 205.979 79.5381 201.274 79.2107C167.914 76.8885 125.271 71.9756 88.6399 66.6643Z" fill="white"/>
<path d="M253.655 1.39492L253.437 0.419003L253.437 0.419003L253.655 1.39492ZM242.773 4.34454L243.041 5.30798L243.041 5.30798L242.773 4.34454ZM270.953 243.843L269.99 244.112L269.99 244.112L270.953 243.843ZM273.91 254.681L274.885 254.462L274.885 254.462L273.91 254.681ZM21.2078 273.876L21.426 274.852L21.426 274.852L21.2078 273.876ZM4.32984 32.0212L3.36683 32.2907L3.36683 32.2907L4.32984 32.0212ZM1.3733 21.1824L0.397661 21.4018L0.397661 21.4018L1.3733 21.1824ZM208.73 88.4627L207.741 88.3166L208.73 88.4627ZM201.274 79.2107L201.344 78.2131L201.274 79.2107ZM186.679 208.673L186.823 207.684L186.679 208.673ZM195.908 201.237L194.911 201.165L195.908 201.237ZM79.412 74.1067L78.4146 74.0354L79.412 74.1067ZM66.6349 186.847L65.6456 186.702L66.6349 186.847ZM32.1635 194.805L32.1214 193.806L32.1635 194.805ZM16.6135 199.624L17.6111 199.692L16.6135 199.624ZM16.7329 198.414L15.7909 198.078L16.7329 198.414ZM32.0895 270.927L32.3574 271.89L32.0895 270.927ZM75.9214 16.5762L75.8542 17.5739L75.9214 16.5762ZM77.1212 16.6919L77.4497 15.7474L77.1212 16.6919ZM199.362 259.287L199.429 258.29L199.362 259.287ZM198.162 259.172L198.49 258.227L198.162 259.172ZM32.09 270.927L32.3579 271.89L32.09 270.927ZM9.10339 49.222L8.13894 49.4863L9.10339 49.222ZM243.012 80.4526L243.056 81.4516L243.012 80.4526ZM235.123 89.8332L234.136 89.9944L235.123 89.8332ZM194.521 243.345L195.52 243.306L194.521 243.345ZM185.135 235.429L184.973 234.442L185.135 235.429ZM9.37395 50.2104L10.3385 49.9466L9.37395 50.2104ZM258.249 75.6479L259.247 75.7159L258.249 75.6479ZM258.13 76.8575L259.072 77.1929L258.13 76.8575ZM253.437 0.419003C252.004 0.739203 248.186 1.80125 242.505 3.38109L243.041 5.30798C248.764 3.7164 252.506 2.67637 253.873 2.37083L253.437 0.419003ZM259.247 75.7159C259.489 72.1605 260.734 53.0345 260.721 35.0557C260.714 26.075 260.394 17.3329 259.466 10.9523C259.004 7.77663 258.381 5.09927 257.525 3.25885C257.099 2.34077 256.576 1.54504 255.911 1.01584C255.206 0.455623 254.359 0.212782 253.437 0.419003L253.873 2.37083C254.146 2.30978 254.385 2.35769 254.666 2.581C254.985 2.83535 255.346 3.31594 255.712 4.10173C256.44 5.66906 257.031 8.10962 257.487 11.2401C258.393 17.4718 258.714 26.0951 258.721 35.0572C258.734 52.964 257.493 72.0336 257.251 75.5798L259.247 75.7159ZM243.056 81.4516C247.522 81.2529 251.188 80.8674 253.853 80.2561C255.182 79.9511 256.31 79.5793 257.177 79.1179C258.026 78.6665 258.766 78.053 259.072 77.1929L257.188 76.5221C257.126 76.695 256.904 76.9979 256.238 77.3524C255.59 77.697 254.652 78.0207 253.405 78.3067C250.917 78.8776 247.392 79.2567 242.968 79.4536L243.056 81.4516ZM271.916 243.573C264.667 217.668 246.286 151.984 236.11 89.672L234.136 89.9944C244.333 152.43 262.742 218.212 269.99 244.112L271.916 243.573ZM274.885 254.462C274.565 253.035 273.5 249.232 271.916 243.573L269.99 244.112C271.586 249.813 272.628 253.54 272.934 254.901L274.885 254.462ZM199.295 260.285C202.842 260.524 222.043 261.757 240.098 261.738C249.117 261.728 257.897 261.406 264.305 260.479C267.495 260.018 270.184 259.396 272.031 258.543C272.953 258.118 273.752 257.598 274.284 256.935C274.847 256.233 275.093 255.385 274.885 254.462L272.934 254.901C272.994 255.169 272.948 255.404 272.724 255.683C272.468 256.002 271.984 256.363 271.194 256.727C269.618 257.454 267.164 258.045 264.019 258.5C257.758 259.405 249.096 259.728 240.095 259.738C222.112 259.757 202.967 258.528 199.429 258.29L199.295 260.285ZM193.521 243.384C193.703 248.062 194.082 251.903 194.699 254.689C195.007 256.08 195.385 257.257 195.856 258.158C196.316 259.039 196.945 259.807 197.833 260.116L198.49 258.227C198.31 258.165 197.995 257.933 197.629 257.232C197.273 256.552 196.942 255.566 196.652 254.257C196.073 251.645 195.7 247.944 195.52 243.306L193.521 243.384ZM32.3579 271.89C58.1488 264.718 123.211 246.627 185.298 236.415L184.973 234.442C122.766 244.673 57.6078 262.793 31.8221 269.963L32.3579 271.89ZM21.426 274.852C22.8584 274.532 26.6761 273.47 32.3574 271.89L31.8216 269.963C26.0981 271.555 22.3565 272.595 20.9897 272.901L21.426 274.852ZM15.6158 199.555C15.3732 203.111 14.1283 222.237 14.1418 240.216C14.1486 249.196 14.4689 257.938 15.3967 264.319C15.8585 267.495 16.482 270.172 17.3373 272.013C17.7639 272.931 18.2868 273.726 18.952 274.256C19.6562 274.816 20.5034 275.059 21.426 274.852L20.9897 272.901C20.7165 272.962 20.4778 272.914 20.1971 272.69C19.8774 272.436 19.5162 271.955 19.151 271.17C18.4226 269.602 17.8311 267.162 17.3759 264.031C16.4698 257.8 16.1486 249.176 16.1418 240.214C16.1284 222.307 17.3692 203.238 17.6111 199.692L15.6158 199.555ZM32.1214 193.806C27.5642 193.998 23.8223 194.381 21.1045 194.994C19.7485 195.3 18.5985 195.673 17.7163 196.137C16.8538 196.591 16.1005 197.209 15.7909 198.078L17.675 198.749C17.7374 198.574 17.9647 198.266 18.6474 197.907C19.3103 197.558 20.2701 197.232 21.5444 196.945C24.0873 196.372 27.6887 195.995 32.2057 195.804L32.1214 193.806ZM8.40938 50.4742C17.1011 82.2548 30.7695 134.985 39.073 185.581L41.0466 185.258C32.7257 134.555 19.0347 81.7435 10.3385 49.9466L8.40938 50.4742ZM3.36683 32.2907C4.64624 36.8626 6.27225 42.673 8.13894 49.4863L10.0679 48.9578C8.19958 42.1388 6.57227 36.3237 5.29284 31.7517L3.36683 32.2907ZM0.397661 21.4018C0.718593 22.8289 1.78329 26.632 3.36683 32.2907L5.29284 31.7517C3.6974 26.0505 2.65502 22.3241 2.34893 20.963L0.397661 21.4018ZM75.9886 15.5784C72.4413 15.3396 53.2404 14.1062 35.1855 14.126C26.1666 14.1359 17.3864 14.4581 10.9777 15.3847C7.78796 15.8459 5.09951 16.4679 3.25171 17.3202C2.33022 17.7452 1.53123 18.266 0.999424 18.9289C0.436068 19.6311 0.189988 20.4782 0.397661 21.4018L2.34893 20.963C2.28869 20.695 2.33523 20.4599 2.55947 20.1804C2.81527 19.8615 3.29887 19.5009 4.08937 19.1363C5.66558 18.4093 8.11881 17.8188 11.2639 17.3641C17.5249 16.4589 26.1872 16.1359 35.1877 16.126C53.1713 16.1063 72.3161 17.3357 75.8542 17.5739L75.9886 15.5784ZM81.7352 31.8349C81.5399 27.3447 81.1549 23.6584 80.5404 20.9813C80.2338 19.6456 79.8593 18.5119 79.3938 17.6421C78.9379 16.7903 78.3179 16.0493 77.4497 15.7474L76.7927 17.6364C76.9683 17.6974 77.2735 17.9188 77.6304 18.5858C77.9776 19.2346 78.3035 20.1761 78.5911 21.4288C79.1649 23.9286 79.5436 27.4724 79.7371 31.9218L81.7352 31.8349ZM242.505 3.38109C216.771 10.5371 151.936 28.5652 89.9717 38.789L90.2973 40.7623C152.381 30.5188 217.312 12.4626 243.041 5.30798L242.505 3.38109ZM67.6242 186.993C73.005 150.476 78.0124 107.726 80.4095 74.1779L78.4146 74.0354C76.0219 107.521 71.0212 150.219 65.6456 186.702L67.6242 186.993ZM186.823 207.684C150.255 202.371 107.611 197.446 74.1552 195.098L74.0151 197.093C107.409 199.437 150.002 204.355 186.536 209.663L186.823 207.684ZM207.741 88.3166C202.357 124.767 197.335 167.527 194.911 201.165L196.906 201.309C199.325 167.732 204.34 125.024 209.719 88.6089L207.741 88.3166ZM88.4964 67.654C125.144 72.9678 167.814 77.8839 201.205 80.2083L201.344 78.2131C168.015 75.8931 125.397 70.9835 88.7834 65.6747L88.4964 67.654ZM209.719 88.6089C210.494 83.3648 206.627 78.5808 201.344 78.2131L201.205 80.2083C205.33 80.4955 208.344 84.2305 207.741 88.3166L209.719 88.6089ZM186.536 209.663C191.763 210.422 196.527 206.572 196.906 201.309L194.911 201.165C194.615 205.275 190.896 208.275 186.823 207.684L186.536 209.663ZM80.4095 74.1779C80.7033 70.0664 84.4221 67.0632 88.4964 67.654L88.7834 65.6747C83.5543 64.9165 78.7908 68.7702 78.4146 74.0354L80.4095 74.1779ZM65.6456 186.702C64.8734 191.942 68.7362 196.722 74.0151 197.093L74.1552 195.098C70.0329 194.809 67.0225 191.077 67.6242 186.993L65.6456 186.702ZM79.7371 31.9218C79.9748 37.3871 84.8084 41.6679 90.2973 40.7623L89.9717 38.789C85.7568 39.4844 81.9248 36.1952 81.7352 31.8349L79.7371 31.9218ZM32.2057 195.804C37.6692 195.574 41.9467 190.743 41.0466 185.258L39.073 185.581C39.7644 189.794 36.4769 193.622 32.1214 193.806L32.2057 195.804ZM17.6111 199.692C17.6203 199.558 17.6227 199.432 17.6242 199.327C17.6259 199.215 17.6265 199.135 17.63 199.053C17.6367 198.897 17.6523 198.813 17.675 198.749L15.7909 198.078C15.6721 198.412 15.6423 198.722 15.6318 198.967C15.6268 199.085 15.6258 199.206 15.6245 199.298C15.623 199.398 15.621 199.479 15.6158 199.555L17.6111 199.692ZM31.6854 270.012C31.7304 269.992 31.776 269.976 31.8216 269.963L32.3574 271.89C32.4033 271.878 32.449 271.861 32.4942 271.841L31.6854 270.012ZM75.8542 17.5739C75.9868 17.5829 76.1116 17.5852 76.2155 17.5867C76.3268 17.5883 76.4068 17.5888 76.4883 17.5922C76.6427 17.5986 76.7275 17.6137 76.7927 17.6364L77.4497 15.7474C77.1194 15.6325 76.8132 15.6039 76.571 15.5939C76.4542 15.589 76.3345 15.5882 76.2435 15.5869C76.145 15.5855 76.0649 15.5836 75.9886 15.5784L75.8542 17.5739ZM199.429 258.29C199.296 258.281 199.171 258.278 199.068 258.277C198.956 258.275 198.876 258.275 198.795 258.272C198.64 258.265 198.556 258.25 198.49 258.227L197.833 260.116C198.164 260.231 198.47 260.26 198.712 260.27C198.829 260.275 198.949 260.276 199.04 260.277C199.138 260.278 199.218 260.28 199.295 260.285L199.429 258.29ZM31.8221 269.963C31.772 269.977 31.7264 269.994 31.6854 270.012L32.4942 271.841C32.4533 271.859 32.4078 271.876 32.3579 271.89L31.8221 269.963ZM10.1611 49.4706C10.1616 49.4722 10.157 49.4599 10.1441 49.3657C10.1343 49.2941 10.1145 49.1282 10.0679 48.9578L8.13894 49.4863C8.14348 49.5028 8.14702 49.5233 8.16266 49.6373C8.1752 49.7288 8.19825 49.9015 8.25859 50.0875L10.1611 49.4706ZM242.968 79.4536C237.514 79.6963 233.242 84.5151 234.136 89.9944L236.11 89.672C235.423 85.4653 238.705 81.6452 243.056 81.4516L242.968 79.4536ZM195.52 243.306C195.307 237.831 190.468 233.538 184.973 234.442L185.298 236.415C189.519 235.721 193.352 239.02 193.521 243.384L195.52 243.306ZM10.3385 49.9466C10.2993 49.8033 10.2455 49.6758 10.216 49.6058C10.1777 49.5151 10.1677 49.4911 10.1611 49.4706L8.25859 50.0875C8.29811 50.2094 8.3504 50.329 8.37282 50.3822C8.3872 50.4163 8.39603 50.438 8.40266 50.4555C8.40906 50.4724 8.41025 50.4774 8.40938 50.4742L10.3385 49.9466ZM257.251 75.5798C257.242 75.7134 257.24 75.8394 257.238 75.944C257.237 76.0561 257.236 76.1368 257.233 76.2186C257.226 76.374 257.21 76.4582 257.188 76.5221L259.072 77.1929C259.191 76.8593 259.22 76.5491 259.231 76.3043C259.236 76.186 259.237 76.0652 259.238 75.9732C259.24 75.8736 259.242 75.7928 259.247 75.7159L257.251 75.5798Z" fill="black"/>
</svg>
