<svg width="262" height="262" viewBox="0 0 262 262" fill="none" xmlns="http://www.w3.org/2000/svg">
<path fill-rule="evenodd" clip-rule="evenodd" d="M187.128 14.1222L187.128 14.123L187.128 14.1231V14.1231C186.46 18.1843 182.802 21.058 178.696 20.772C105.415 15.6677 3.33572 14.0678 1.04483 24.0829C0.9539 24.4805 1.0298 24.85 1.03616 25.2577C1.14695 32.3713 2.50614 104.751 11.9051 101.724C13.2773 101.282 16.9654 99.8761 22.5297 97.7543C23.5732 97.3563 24.6827 96.9332 25.8553 96.4866C29.7627 94.9984 34.1508 96.7796 35.945 100.556C68.1179 168.279 119.913 263.803 129.846 260.937C130.249 260.821 130.54 260.553 130.898 260.334C137.011 256.593 197.498 219.292 190.243 212.497C189.183 211.504 186.147 208.943 181.566 205.08C179.98 203.742 178.209 202.248 176.271 200.609C173.177 197.993 172.54 193.476 174.764 190.089C215.619 127.883 267.518 39.127 260.327 31.9661C260.028 31.6681 259.652 31.5422 259.285 31.3335C253.033 27.7803 191.207 -7.07972 189.076 2.73557C188.764 4.17077 188.112 8.1375 187.128 14.1222ZM65.2151 81.8816C59.862 83.8041 58.2239 90.5423 62.1262 94.6804C88.5692 122.721 118.304 150.13 142.51 171.491C146.895 175.362 153.785 173.319 155.32 167.675C165.741 129.357 173.899 89.0651 179.605 57.8268C180.643 52.144 175.473 47.3176 169.884 48.7812C132.577 58.5522 94.6306 71.3171 65.2151 81.8816Z" fill="#FFFF00"/>
<path d="M187.128 14.123L188.087 14.4055L188.104 14.3489L188.114 14.2908L187.128 14.123ZM187.128 14.1222L188.114 14.29L188.115 14.2844L187.128 14.1222ZM11.9051 101.724L11.5986 100.772L11.5986 100.772L11.9051 101.724ZM22.5297 97.7543L22.886 98.6886L22.886 98.6886L22.5297 97.7543ZM190.243 212.497L190.927 211.767L190.927 211.767L190.243 212.497ZM181.566 205.08L182.211 204.315L182.211 204.315L181.566 205.08ZM189.076 2.73557L188.098 2.52338L188.098 2.52338L189.076 2.73557ZM179.605 57.8268L180.589 58.0065L179.605 57.8268ZM169.884 48.7812L169.631 47.8138L169.884 48.7812ZM260.327 31.9661L259.621 32.6747L260.327 31.9661ZM259.285 31.3335L258.791 32.2029L259.285 31.3335ZM176.271 200.609L176.916 199.845L176.271 200.609ZM174.764 190.089L175.6 190.638L174.764 190.089ZM25.8553 96.4866L25.4994 95.5521L25.8553 96.4866ZM155.32 167.675L154.355 167.413L155.32 167.675ZM1.04483 24.0829L2.01965 24.3059L1.04483 24.0829ZM129.846 260.937L130.123 261.898L129.846 260.937ZM130.898 260.334L131.42 261.187L130.898 260.334ZM65.2151 81.8816L64.8771 80.9405L65.2151 81.8816ZM178.696 20.772L178.627 21.7696L178.696 20.772ZM188.114 14.2908L188.114 14.29L186.142 13.9544L186.142 13.9552L188.114 14.2908ZM188.087 14.4056L188.087 14.4055L186.169 13.8405L186.168 13.8407L188.087 14.4056ZM178.766 19.7744C142.106 17.2209 98.2397 15.5436 63.2431 15.7577C45.7493 15.8647 30.4451 16.4443 19.358 17.6283C13.821 18.2196 9.29166 18.9659 6.05458 19.8947C4.43992 20.3579 3.09527 20.8807 2.09622 21.4827C1.12337 22.069 0.304174 22.8363 0.0700069 23.86L2.01965 24.3059C2.07185 24.0777 2.3186 23.6838 3.12853 23.1957C3.91225 22.7234 5.06717 22.2586 6.60612 21.8171C9.67624 20.9363 14.0702 20.2044 19.5703 19.617C30.5574 18.4437 45.7827 17.8645 63.2553 17.7577C98.1914 17.5439 142.006 19.2188 178.627 21.7696L178.766 19.7744ZM0.0362764 25.2733C0.0917436 28.8345 0.459569 48.7351 1.99092 67.3754C2.75591 76.6871 3.81467 85.7303 5.28143 92.2723C6.01158 95.5288 6.86034 98.2494 7.86785 100.081C8.36979 100.994 8.95688 101.772 9.66477 102.264C10.4165 102.786 11.2936 102.972 12.2116 102.676L11.5986 100.772C11.3416 100.855 11.1067 100.83 10.8059 100.621C10.4612 100.382 10.0552 99.9082 9.62027 99.1174C8.75401 97.5424 7.95371 95.0493 7.23298 91.8347C5.79798 85.4344 4.74773 76.5056 3.98421 67.2116C2.45853 48.6404 2.09136 28.7945 2.03603 25.2422L0.0362764 25.2733ZM12.2116 102.676C13.6167 102.224 17.3427 100.802 22.886 98.6886L22.1734 96.8199C16.588 98.9498 12.9378 100.341 11.5986 100.772L12.2116 102.676ZM22.886 98.6886C23.9295 98.2907 25.0389 97.8677 26.2113 97.4211L25.4994 95.5521C24.3266 95.9988 23.2169 96.422 22.1734 96.8199L22.886 98.6886ZM129.569 259.976C129.357 260.037 128.884 260.011 128.022 259.494C127.193 258.998 126.181 258.154 124.992 256.945C122.62 254.534 119.693 250.826 116.326 246.035C109.598 236.464 101.205 222.708 92.1044 206.723C73.9067 174.76 52.926 133.97 36.8483 100.127L35.0418 100.985C51.1369 134.865 72.1402 175.699 90.3663 207.712C99.4774 223.715 107.907 237.536 114.69 247.185C118.077 252.005 121.078 255.819 123.566 258.348C124.807 259.609 125.956 260.589 126.994 261.21C127.997 261.811 129.093 262.195 130.123 261.898L129.569 259.976ZM189.56 213.227C189.767 213.421 189.869 213.658 189.842 214.042C189.811 214.474 189.611 215.072 189.161 215.849C188.264 217.399 186.558 219.348 184.202 221.587C179.51 226.047 172.486 231.43 165.004 236.746C150.054 247.367 133.429 257.613 130.376 259.481L131.42 261.187C134.48 259.314 151.154 249.039 166.163 238.376C173.66 233.05 180.78 227.599 185.58 223.037C187.969 220.766 189.846 218.657 190.892 216.851C191.414 215.951 191.776 215.047 191.837 214.184C191.902 213.274 191.626 212.423 190.927 211.767L189.56 213.227ZM180.922 205.844C185.519 209.722 188.524 212.257 189.56 213.227L190.927 211.767C189.841 210.751 186.774 208.164 182.211 204.315L180.922 205.844ZM175.625 201.373C177.564 203.012 179.336 204.506 180.922 205.844L182.211 204.315C180.625 202.977 178.854 201.484 176.916 199.845L175.625 201.373ZM259.621 32.6747C259.786 32.8384 259.995 33.2682 260 34.2432C260.004 35.1823 259.817 36.4415 259.421 38.0218C258.63 41.1751 257.059 45.4129 254.82 50.5464C250.347 60.8018 243.275 74.4784 234.689 89.8993C217.52 120.734 194.345 158.453 173.928 189.54L175.6 190.638C196.038 159.519 219.239 121.758 236.436 90.8723C245.033 75.4333 252.141 61.6903 256.653 51.346C258.907 46.1796 260.53 41.8225 261.361 38.5082C261.775 36.8548 262.005 35.4121 262 34.234C261.995 33.0917 261.767 31.989 261.033 31.2576L259.621 32.6747ZM190.053 2.94776C190.116 2.65776 190.267 2.45669 190.59 2.29633C190.961 2.11291 191.557 1.99094 192.437 2.00053C194.192 2.01966 196.691 2.55271 199.766 3.51764C205.888 5.43842 213.958 8.96052 222.202 12.9227C238.674 20.8393 255.669 30.4285 258.791 32.2029L259.779 30.4641C256.649 28.6852 239.605 19.0678 223.068 11.12C214.808 7.14994 206.631 3.57533 200.365 1.60937C197.247 0.630926 194.518 0.0230963 192.459 0.000648189C191.432 -0.0105494 190.475 0.121513 189.703 0.504055C188.884 0.909654 188.302 1.58647 188.098 2.52338L190.053 2.94776ZM188.115 14.2844C189.102 8.27827 189.748 4.3504 190.053 2.94776L188.098 2.52338C187.78 3.99114 187.122 7.99673 186.141 13.96L188.115 14.2844ZM61.3987 95.3664C87.8715 123.439 117.632 150.871 141.848 172.241L143.172 170.742C118.977 149.39 89.2669 122.003 62.8538 93.9943L61.3987 95.3664ZM156.285 167.937C166.717 129.581 174.88 89.2575 180.589 58.0065L178.621 57.6471C172.917 88.8728 164.765 129.134 154.355 167.413L156.285 167.937ZM65.5531 82.8227C94.9559 72.2628 132.871 59.5089 170.138 49.7486L169.631 47.8138C132.283 57.5954 94.3054 70.3714 64.8771 80.9405L65.5531 82.8227ZM180.589 58.0065C181.757 51.6096 175.933 46.1634 169.631 47.8138L170.138 49.7486C175.013 48.4718 179.529 52.6784 178.621 57.6471L180.589 58.0065ZM261.033 31.2576C260.784 31.0097 260.519 30.8498 260.303 30.7346C260.199 30.6788 260.091 30.6256 260.008 30.5842C259.919 30.5395 259.847 30.5024 259.779 30.4641L258.791 32.2029C258.907 32.2689 259.019 32.3257 259.113 32.3727C259.213 32.423 259.287 32.4589 259.36 32.498C259.499 32.5725 259.571 32.6245 259.621 32.6747L261.033 31.2576ZM176.916 199.845C174.211 197.558 173.651 193.606 175.6 190.638L173.928 189.54C171.429 193.346 172.142 198.427 175.625 201.373L176.916 199.845ZM26.2113 97.4211C29.6273 96.1201 33.4695 97.6759 35.0418 100.985L36.8483 100.127C34.8322 95.8834 29.8981 93.8768 25.4994 95.5521L26.2113 97.4211ZM141.848 172.241C146.785 176.598 154.554 174.301 156.285 167.937L154.355 167.413C153.016 172.337 147.005 174.125 143.172 170.742L141.848 172.241ZM0.0700069 23.86C-0.00418252 24.1843 -0.00515642 24.4777 0.00495858 24.71C0.0180414 25.0105 0.0329809 25.0617 0.0362764 25.2733L2.03603 25.2422C2.03298 25.046 2.00679 24.7086 2.00307 24.623C1.99637 24.4693 2.00291 24.3791 2.01965 24.3059L0.0700069 23.86ZM130.123 261.898C130.46 261.8 130.729 261.645 130.933 261.513C131.032 261.449 131.13 261.38 131.206 261.328C131.288 261.272 131.355 261.227 131.42 261.187L130.376 259.481C130.262 259.551 130.159 259.621 130.073 259.68C129.98 259.744 129.914 259.79 129.845 259.835C129.713 259.92 129.634 259.957 129.569 259.976L130.123 261.898ZM62.8538 93.9943C59.4499 90.3848 60.8727 84.5037 65.5531 82.8227L64.8771 80.9405C58.8513 83.1046 56.9979 90.6998 61.3987 95.3664L62.8538 93.9943ZM186.141 13.9609C185.558 17.5092 182.36 20.0248 178.766 19.7744L178.627 21.7696C183.244 22.0912 187.363 18.8593 188.115 14.2854L186.141 13.9609Z" fill="black"/>
</svg>
